<svg width="158" height="49" viewBox="0 0 158 49" fill="none" xmlns="http://www.w3.org/2000/svg">
<path fill-rule="evenodd" clip-rule="evenodd" d="M36.324 44.908C35.472 45.748 34.44 46.168 33.228 46.168C32.016 46.168 30.984 45.748 30.132 44.908C29.292 44.056 28.872 43.024 28.872 41.8C28.872 40.576 29.292 39.544 30.132 38.704C30.984 37.852 32.016 37.432 33.228 37.432C34.44 37.432 35.472 37.852 36.324 38.704C37.176 39.544 37.596 40.576 37.596 41.8C37.596 43.024 37.176 44.056 36.324 44.908ZM4.62002 46C5.26802 46 5.82002 45.772 6.27602 45.316C6.73202 44.86 6.96002 44.308 6.96002 43.66C6.96002 43.204 6.83802 42.798 6.59402 42.442C6.35002 42.086 6.02402 41.82 5.61602 41.644C6.27202 41.236 6.60002 40.64 6.60002 39.856C6.60002 39.24 6.38002 38.71 5.94002 38.266C5.50002 37.822 4.96802 37.6 4.34402 37.6H0.960022V46H4.62002ZM4.34402 41.32H1.80002V38.392H4.34402C4.73602 38.392 5.07002 38.536 5.34602 38.824C5.62202 39.112 5.76002 39.456 5.76002 39.856C5.76002 40.264 5.62202 40.61 5.34602 40.894C5.07002 41.178 4.73602 41.32 4.34402 41.32ZM1.80002 45.208H4.62002C5.03602 45.208 5.39002 45.058 5.68202 44.758C5.97402 44.458 6.12002 44.092 6.12002 43.66C6.12002 43.236 5.97402 42.872 5.68202 42.568C5.39002 42.264 5.03602 42.112 4.62002 42.112H1.80002V45.208ZM8.26802 48.4C8.79602 48.44 9.27402 48.29 9.70202 47.95C10.13 47.61 10.46 47.144 10.692 46.552L13.26 40H12.42L10.476 45.028L8.22002 40H7.38002L10.068 46.036L9.91202 46.408C9.53602 47.32 8.98802 47.736 8.26802 47.656V48.4ZM18.816 44.416H22.02V46H17.16V37.6H18.816V44.416ZM28.152 44.416H24.612V42.532H27.792V40.972H24.612V39.184H28.092V37.6H22.956V46H28.152V44.416ZM33.228 44.548C32.46 44.548 31.812 44.296 31.296 43.78C30.78 43.264 30.516 42.604 30.516 41.8C30.516 40.996 30.78 40.336 31.296 39.82C31.812 39.304 32.46 39.04 33.228 39.04C33.996 39.04 34.644 39.304 35.16 39.82C35.676 40.336 35.94 40.996 35.94 41.8C35.94 42.604 35.676 43.264 35.16 43.78C34.644 44.296 33.996 44.548 33.228 44.548ZM43.416 43.24V46H41.76V37.6H44.892C45.696 37.6 46.38 37.876 46.932 38.416C47.484 38.956 47.76 39.628 47.76 40.42C47.76 41.212 47.484 41.884 46.932 42.424C46.38 42.964 45.696 43.24 44.892 43.24H43.416ZM44.892 41.692H43.416V39.148H44.892C45.6 39.148 46.116 39.688 46.116 40.42C46.116 41.14 45.6 41.692 44.892 41.692ZM50.316 42.76V46H48.768V37.6H50.316V40.672C50.688 40.108 51.288 39.832 52.104 39.832C52.764 39.832 53.304 40.048 53.724 40.492C54.156 40.936 54.372 41.536 54.372 42.316V46H52.824V42.508C52.824 41.704 52.356 41.272 51.636 41.272C50.832 41.272 50.316 41.764 50.316 42.76ZM58.296 46.168C59.136 46.168 59.784 45.88 60.252 45.292V46H61.8V40H60.252V40.708C59.784 40.12 59.136 39.832 58.296 39.832C57.492 39.832 56.808 40.144 56.232 40.756C55.668 41.368 55.38 42.112 55.38 43C55.38 43.888 55.668 44.644 56.232 45.256C56.808 45.868 57.492 46.168 58.296 46.168ZM57.396 44.224C57.708 44.536 58.104 44.692 58.584 44.692C59.064 44.692 59.46 44.536 59.772 44.224C60.096 43.9 60.252 43.492 60.252 43C60.252 42.508 60.096 42.1 59.772 41.788C59.46 41.464 59.064 41.308 58.584 41.308C58.104 41.308 57.708 41.464 57.396 41.788C57.084 42.1 56.928 42.508 56.928 43C56.928 43.492 57.084 43.9 57.396 44.224ZM64.752 46V43.132C64.752 42.556 64.932 42.148 65.304 41.896C65.676 41.644 66.108 41.548 66.576 41.608V39.88C65.76 39.88 65.04 40.264 64.752 41.032V40H63.204V46H64.752ZM69.024 42.628V46H67.476V40H69.024V40.636C69.384 40.096 69.936 39.832 70.692 39.832C71.424 39.832 71.976 40.12 72.324 40.696C72.72 40.12 73.32 39.832 74.112 39.832C75.492 39.832 76.38 40.804 76.38 42.304V46H74.832V42.412C74.832 41.692 74.46 41.272 73.824 41.272C73.116 41.272 72.708 41.752 72.708 42.628V46H71.16V42.412C71.16 41.692 70.788 41.272 70.152 41.272C69.468 41.272 69.024 41.752 69.024 42.628ZM80.304 46.168C81.144 46.168 81.792 45.88 82.26 45.292V46H83.808V40H82.26V40.708C81.792 40.12 81.144 39.832 80.304 39.832C79.5 39.832 78.816 40.144 78.24 40.756C77.676 41.368 77.388 42.112 77.388 43C77.388 43.888 77.676 44.644 78.24 45.256C78.816 45.868 79.5 46.168 80.304 46.168ZM79.404 44.224C79.716 44.536 80.112 44.692 80.592 44.692C81.072 44.692 81.468 44.536 81.78 44.224C82.104 43.9 82.26 43.492 82.26 43C82.26 42.508 82.104 42.1 81.78 41.788C81.468 41.464 81.072 41.308 80.592 41.308C80.112 41.308 79.716 41.464 79.404 41.788C79.092 42.1 78.936 42.508 78.936 43C78.936 43.492 79.092 43.9 79.404 44.224Z" fill="white"/>
<path fill-rule="evenodd" clip-rule="evenodd" d="M36.324 44.908C35.472 45.748 34.44 46.168 33.228 46.168C32.016 46.168 30.984 45.748 30.132 44.908C29.292 44.056 28.872 43.024 28.872 41.8C28.872 40.576 29.292 39.544 30.132 38.704C30.984 37.852 32.016 37.432 33.228 37.432C34.44 37.432 35.472 37.852 36.324 38.704C37.176 39.544 37.596 40.576 37.596 41.8C37.596 43.024 37.176 44.056 36.324 44.908ZM4.62002 46C5.26802 46 5.82002 45.772 6.27602 45.316C6.73202 44.86 6.96002 44.308 6.96002 43.66C6.96002 43.204 6.83802 42.798 6.59402 42.442C6.35002 42.086 6.02402 41.82 5.61602 41.644C6.27202 41.236 6.60002 40.64 6.60002 39.856C6.60002 39.24 6.38002 38.71 5.94002 38.266C5.50002 37.822 4.96802 37.6 4.34402 37.6H0.960022V46H4.62002ZM4.34402 41.32H1.80002V38.392H4.34402C4.73602 38.392 5.07002 38.536 5.34602 38.824C5.62202 39.112 5.76002 39.456 5.76002 39.856C5.76002 40.264 5.62202 40.61 5.34602 40.894C5.07002 41.178 4.73602 41.32 4.34402 41.32ZM1.80002 45.208H4.62002C5.03602 45.208 5.39002 45.058 5.68202 44.758C5.97402 44.458 6.12002 44.092 6.12002 43.66C6.12002 43.236 5.97402 42.872 5.68202 42.568C5.39002 42.264 5.03602 42.112 4.62002 42.112H1.80002V45.208ZM8.26802 48.4C8.79602 48.44 9.27402 48.29 9.70202 47.95C10.13 47.61 10.46 47.144 10.692 46.552L13.26 40H12.42L10.476 45.028L8.22002 40H7.38002L10.068 46.036L9.91202 46.408C9.53602 47.32 8.98802 47.736 8.26802 47.656V48.4ZM18.816 44.416H22.02V46H17.16V37.6H18.816V44.416ZM28.152 44.416H24.612V42.532H27.792V40.972H24.612V39.184H28.092V37.6H22.956V46H28.152V44.416ZM33.228 44.548C32.46 44.548 31.812 44.296 31.296 43.78C30.78 43.264 30.516 42.604 30.516 41.8C30.516 40.996 30.78 40.336 31.296 39.82C31.812 39.304 32.46 39.04 33.228 39.04C33.996 39.04 34.644 39.304 35.16 39.82C35.676 40.336 35.94 40.996 35.94 41.8C35.94 42.604 35.676 43.264 35.16 43.78C34.644 44.296 33.996 44.548 33.228 44.548ZM43.416 43.24V46H41.76V37.6H44.892C45.696 37.6 46.38 37.876 46.932 38.416C47.484 38.956 47.76 39.628 47.76 40.42C47.76 41.212 47.484 41.884 46.932 42.424C46.38 42.964 45.696 43.24 44.892 43.24H43.416ZM44.892 41.692H43.416V39.148H44.892C45.6 39.148 46.116 39.688 46.116 40.42C46.116 41.14 45.6 41.692 44.892 41.692ZM50.316 42.76V46H48.768V37.6H50.316V40.672C50.688 40.108 51.288 39.832 52.104 39.832C52.764 39.832 53.304 40.048 53.724 40.492C54.156 40.936 54.372 41.536 54.372 42.316V46H52.824V42.508C52.824 41.704 52.356 41.272 51.636 41.272C50.832 41.272 50.316 41.764 50.316 42.76ZM58.296 46.168C59.136 46.168 59.784 45.88 60.252 45.292V46H61.8V40H60.252V40.708C59.784 40.12 59.136 39.832 58.296 39.832C57.492 39.832 56.808 40.144 56.232 40.756C55.668 41.368 55.38 42.112 55.38 43C55.38 43.888 55.668 44.644 56.232 45.256C56.808 45.868 57.492 46.168 58.296 46.168ZM57.396 44.224C57.708 44.536 58.104 44.692 58.584 44.692C59.064 44.692 59.46 44.536 59.772 44.224C60.096 43.9 60.252 43.492 60.252 43C60.252 42.508 60.096 42.1 59.772 41.788C59.46 41.464 59.064 41.308 58.584 41.308C58.104 41.308 57.708 41.464 57.396 41.788C57.084 42.1 56.928 42.508 56.928 43C56.928 43.492 57.084 43.9 57.396 44.224ZM64.752 46V43.132C64.752 42.556 64.932 42.148 65.304 41.896C65.676 41.644 66.108 41.548 66.576 41.608V39.88C65.76 39.88 65.04 40.264 64.752 41.032V40H63.204V46H64.752ZM69.024 42.628V46H67.476V40H69.024V40.636C69.384 40.096 69.936 39.832 70.692 39.832C71.424 39.832 71.976 40.12 72.324 40.696C72.72 40.12 73.32 39.832 74.112 39.832C75.492 39.832 76.38 40.804 76.38 42.304V46H74.832V42.412C74.832 41.692 74.46 41.272 73.824 41.272C73.116 41.272 72.708 41.752 72.708 42.628V46H71.16V42.412C71.16 41.692 70.788 41.272 70.152 41.272C69.468 41.272 69.024 41.752 69.024 42.628ZM80.304 46.168C81.144 46.168 81.792 45.88 82.26 45.292V46H83.808V40H82.26V40.708C81.792 40.12 81.144 39.832 80.304 39.832C79.5 39.832 78.816 40.144 78.24 40.756C77.676 41.368 77.388 42.112 77.388 43C77.388 43.888 77.676 44.644 78.24 45.256C78.816 45.868 79.5 46.168 80.304 46.168ZM79.404 44.224C79.716 44.536 80.112 44.692 80.592 44.692C81.072 44.692 81.468 44.536 81.78 44.224C82.104 43.9 82.26 43.492 82.26 43C82.26 42.508 82.104 42.1 81.78 41.788C81.468 41.464 81.072 41.308 80.592 41.308C80.112 41.308 79.716 41.464 79.404 41.788C79.092 42.1 78.936 42.508 78.936 43C78.936 43.492 79.092 43.9 79.404 44.224Z" fill="black"/>
<path fill-rule="evenodd" clip-rule="evenodd" d="M15.741 22.273C14.013 24.082 11.853 25 9.261 25H1.755V6.09998H9.261C11.853 6.09998 14.013 7.01798 15.741 8.82698C17.496 10.636 18.36 12.877 18.36 15.55C18.36 18.223 17.496 20.464 15.741 22.273ZM5.481 21.436H9.261C10.908 21.436 12.231 20.896 13.257 19.816C14.283 18.709 14.796 17.305 14.796 15.55C14.796 13.795 14.283 12.391 13.257 11.311C12.231 10.204 10.908 9.66398 9.261 9.66398H5.481V21.436ZM32.697 25V21.436H24.732V17.197H31.887V13.687H24.732V9.66398H32.562V6.09998H21.006V25H32.697ZM39.042 18.439V25H35.316V6.09998H42.876C44.631 6.09998 46.116 6.72098 47.331 7.93598C48.546 9.15098 49.167 10.636 49.167 12.364C49.167 14.713 47.709 16.873 45.522 17.872L49.707 25H45.684L41.877 18.439H39.042ZM42.876 15.172H39.042V9.58298H42.876C44.28 9.58298 45.441 10.825 45.441 12.364C45.441 13.903 44.28 15.172 42.876 15.172ZM55.62 12.769V25H51.894V6.09998H55.728L61.155 15.037L66.555 6.09998H70.389V25H66.69V12.742L61.371 21.517H60.939L55.62 12.769ZM76.248 25L77.382 21.598H84.915L86.049 25H90.099L83.457 6.09998H78.84L72.225 25H76.248ZM78.57 18.115H83.754L81.162 10.393L78.57 18.115Z" fill="black"/>
<g filter="url(#filter0_d_1_628)">
<path fill-rule="evenodd" clip-rule="evenodd" d="M135.009 25.054C134.901 25.072 134.793 25.081 134.685 25.081C134.651 25.0833 134.62 25.084 134.59 25.0831C134.383 25.0772 134.28 24.9955 134.28 24.838C134.28 24.712 134.379 24.649 134.577 24.649H135.279C135.783 24.649 136.035 24.541 136.035 24.325C136.05 24.2373 136.058 23.7574 136.061 22.8854L136.062 22.4551L136.062 22.219V8.47603C136.062 7.88203 136.044 7.55803 136.008 7.50403C135.954 7.36003 135.81 7.28803 135.576 7.28803H135.36L134.604 7.31503C134.352 7.31503 134.226 7.23403 134.226 7.07203C134.226 6.92803 134.451 6.84703 134.901 6.82903C135.765 6.77503 136.566 6.57703 137.304 6.23503L137.871 5.96503L138.087 5.88403C138.231 6.40603 138.294 7.19803 138.276 8.26003L138.249 10.177L138.276 23.407C138.276 23.947 138.285 24.2665 138.303 24.3655C138.317 24.4447 138.361 24.5038 138.433 24.5427L138.492 24.568C138.51 24.586 138.843 24.604 139.491 24.622C139.905 24.622 140.112 24.685 140.112 24.811C140.112 24.973 139.995 25.054 139.761 25.054H139.437C139.401 25.054 138.924 25.036 138.006 25L137.169 24.973C137.025 24.973 136.305 25 135.009 25.054ZM106.983 25C106.911 25.234 106.821 25.351 106.713 25.351C106.623 25.351 106.537 25.261 106.456 25.081C106.375 24.901 106.137 24.271 105.741 23.191C105.237 21.787 104.688 20.374 104.094 18.952C103.626 17.836 103.167 16.684 102.717 15.496C101.457 18.538 100.206 21.715 98.964 25.027C98.892 25.243 98.802 25.351 98.694 25.351C98.604 25.351 98.496 25.198 98.37 24.892C97.812 23.56 95.742 18.043 92.16 8.34103C91.908 7.65703 91.719 7.22953 91.593 7.05853C91.467 6.88753 91.152 6.79303 90.648 6.77503C89.784 6.73903 89.352 6.61303 89.352 6.39703C89.352 6.23503 89.496 6.15403 89.784 6.15403C89.91 6.15403 90.018 6.16303 90.108 6.18103C91.062 6.23503 92.088 6.26203 93.186 6.26203C93.402 6.26203 93.7755 6.24853 94.3065 6.22153C94.8375 6.19453 95.526 6.18103 96.372 6.18103H96.669C96.975 6.18103 97.128 6.26203 97.128 6.42403C97.128 6.62203 96.849 6.73003 96.291 6.74803C95.175 6.78403 94.617 6.92803 94.617 7.18003C94.617 7.68403 96.273 12.373 99.585 21.247C100.791 18.205 101.691 15.964 102.285 14.524L99.612 7.61203C99.468 7.23403 99.3015 6.99103 99.1125 6.88303C98.9235 6.77503 98.577 6.71203 98.073 6.69403C97.569 6.67603 97.317 6.59503 97.317 6.45103C97.317 6.25303 97.506 6.15403 97.884 6.15403C98.172 6.15403 98.523 6.17203 98.937 6.20803C99.3134 6.24076 99.9426 6.25861 100.825 6.26159L103.149 6.26203L106.119 6.31603C106.785 6.31603 107.586 6.28003 108.522 6.20803C108.63 6.19003 108.756 6.18103 108.9 6.18103C109.332 6.18103 109.548 6.27103 109.548 6.45103C109.548 6.61303 109.395 6.69403 109.089 6.69403H108.63C107.82 6.69403 107.208 6.80203 106.794 7.01803C106.614 7.10803 106.281 7.75603 105.795 8.96203C105.579 9.46603 105.219 10.321 104.715 11.527L104.229 12.742C104.355 13.102 104.751 14.101 105.417 15.739C106.281 17.827 106.992 19.618 107.55 21.112C108.558 18.196 109.746 14.749 111.114 10.771C111.584 9.39756 111.9 8.42219 112.063 7.84493L112.12 7.63526C112.169 7.44682 112.194 7.32208 112.194 7.26103C112.194 6.91903 111.879 6.74803 111.249 6.74803C110.367 6.74803 109.926 6.64903 109.926 6.45103C109.926 6.27103 110.106 6.18103 110.466 6.18103C110.772 6.18103 111.015 6.19003 111.195 6.20803C111.591 6.24403 111.951 6.26203 112.275 6.26203L114.435 6.23503C114.975 6.23503 115.272 6.25753 115.326 6.30253C115.38 6.34753 115.407 6.39703 115.407 6.45103C115.407 6.61303 115.101 6.70303 114.489 6.72103C113.805 6.73903 113.35 6.96403 113.125 7.39603C112.9 7.82803 112.554 8.74603 112.086 10.15C111.276 12.616 110.556 14.713 109.926 16.441C108.846 19.393 107.865 22.246 106.983 25ZM102.231 7.15303C102.231 7.18903 102.762 8.74603 103.824 11.824C104.238 10.924 104.724 9.73603 105.282 8.26003C105.354 8.06203 105.462 7.80103 105.606 7.47703L105.66 7.26103C105.66 6.93703 105.102 6.77503 103.986 6.77503H103.662L103.203 6.80203C102.555 6.83803 102.231 6.95503 102.231 7.15303ZM118.512 25.324C120.096 25.324 121.419 24.7345 122.481 23.5555C123.543 22.3765 124.074 20.914 124.074 19.168C124.074 17.386 123.529 15.8965 122.44 14.6995C121.351 13.5025 119.997 12.904 118.377 12.904C116.775 12.904 115.438 13.498 114.367 14.686C113.296 15.874 112.761 17.368 112.761 19.168C112.761 20.914 113.31 22.3765 114.408 23.5555C115.506 24.7345 116.874 25.324 118.512 25.324ZM116.122 23.4205C116.725 24.4375 117.567 24.946 118.647 24.946C119.475 24.946 120.087 24.631 120.483 24.001C121.239 22.813 121.617 21.193 121.617 19.141C121.617 17.161 121.311 15.622 120.699 14.524C120.249 13.714 119.493 13.309 118.431 13.309C117.423 13.309 116.635 13.8265 116.068 14.8615C115.501 15.8965 115.218 17.332 115.218 19.168C115.218 20.986 115.519 22.4035 116.122 23.4205ZM131.04 25.054C131.274 25.054 131.391 24.991 131.391 24.865C131.391 24.757 131.292 24.685 131.094 24.649C130.32 24.631 129.856 24.595 129.703 24.541C129.55 24.487 129.474 24.352 129.474 24.136V18.79C129.474 16.792 129.681 15.424 130.095 14.686C130.455 14.056 130.887 13.741 131.391 13.741C131.787 13.741 131.985 13.876 131.985 14.146C131.985 14.218 131.904 14.344 131.742 14.524C131.58 14.704 131.499 14.92 131.499 15.172C131.499 15.46 131.607 15.6985 131.823 15.8875C132.039 16.0765 132.309 16.171 132.633 16.171C133.029 16.171 133.353 16.036 133.605 15.766C133.857 15.496 133.983 15.154 133.983 14.74C133.983 14.218 133.794 13.7815 133.416 13.4305C133.038 13.0795 132.561 12.904 131.985 12.904C130.941 12.904 130.131 13.534 129.555 14.794V14.254C129.555 13.822 129.519 13.39 129.447 12.958L129.231 13.039L128.88 13.201C128.072 13.5781 127.336 13.7671 126.671 13.768C126.641 13.7621 126.554 13.7518 126.409 13.737L126.315 13.7275C126.045 13.7005 125.775 13.687 125.505 13.687H125.316C125.136 13.687 125.046 13.75 125.046 13.876C125.046 14.002 125.154 14.065 125.37 14.065C126.018 14.083 126.49 14.1685 126.787 14.3215C127.084 14.4745 127.233 15.046 127.233 16.036V23.461C127.233 24.055 127.215 24.388 127.179 24.46C127.071 24.604 126.711 24.676 126.099 24.676H125.721C125.487 24.676 125.37 24.739 125.37 24.865C125.37 24.991 125.514 25.054 125.802 25.054C126.162 25.054 126.459 25.045 126.693 25.027C126.927 25.009 127.305 25 127.827 25C128.835 25 129.519 25.009 129.879 25.027C130.239 25.045 130.626 25.054 131.04 25.054ZM149.373 25.378C149.427 25.378 149.58 25.306 149.832 25.162C150.444 24.802 151.191 24.622 152.073 24.622H152.289C152.451 24.64 152.604 24.649 152.748 24.649H152.883C153.135 24.649 153.261 24.586 153.261 24.46C153.261 24.316 153.135 24.244 152.883 24.244C152.073 24.244 151.65 24.181 151.614 24.055C151.529 23.7676 151.485 21.7329 151.479 17.9509L151.479 7.88203C151.479 7.66603 151.488 7.41403 151.506 7.12603V6.55903C151.506 6.12703 151.416 5.91103 151.236 5.91103C151.182 5.91103 151.119 5.92903 151.047 5.96503C149.931 6.48703 149.103 6.73903 148.563 6.72103L147.591 6.69403C147.393 6.69403 147.294 6.77503 147.294 6.93703C147.294 7.09903 147.411 7.18003 147.645 7.18003C147.753 7.18003 148.068 7.15303 148.59 7.09903C148.806 7.08103 148.968 7.20703 149.076 7.47703C149.202 7.80103 149.265 8.64703 149.265 10.015V14.227C148.653 13.345 147.735 12.904 146.511 12.904C144.927 12.904 143.644 13.48 142.663 14.632C141.682 15.784 141.192 17.287 141.192 19.141C141.192 20.941 141.682 22.4215 142.663 23.5825C143.644 24.7435 144.891 25.324 146.403 25.324C147.465 25.324 148.383 24.955 149.157 24.217L149.13 25.054C149.13 25.27 149.211 25.378 149.373 25.378ZM145.363 24.3655C145.786 24.6805 146.223 24.838 146.673 24.838C147.231 24.838 147.735 24.6715 148.185 24.3385C148.635 24.0055 148.927 23.605 149.062 23.137C149.197 22.669 149.265 20.851 149.265 17.683C149.265 15.955 149.076 14.848 148.698 14.362C148.212 13.75 147.591 13.444 146.835 13.444C145.863 13.444 145.089 13.948 144.513 14.956C143.937 15.964 143.649 17.314 143.649 19.006C143.649 20.626 143.901 22.012 144.405 23.164C144.621 23.65 144.94 24.0505 145.363 24.3655Z" fill="#575757"/>
<path d="M134.685 25.081V24.581H134.668L134.652 24.5821L134.685 25.081ZM135.009 25.054L134.988 24.5545L134.957 24.5558L134.927 24.5608L135.009 25.054ZM134.59 25.0831L134.576 25.5829H134.576L134.59 25.0831ZM136.035 24.325L135.542 24.2428L135.535 24.2836V24.325H136.035ZM136.061 22.8854L136.561 22.887L136.561 22.8864L136.061 22.8854ZM136.062 22.4551L136.562 22.4561V22.4553L136.062 22.4551ZM136.062 22.219L136.562 22.2192V22.219H136.062ZM136.008 7.50403L135.54 7.6796L135.56 7.73349L135.592 7.78138L136.008 7.50403ZM135.36 7.28803V6.78803H135.351L135.342 6.78835L135.36 7.28803ZM134.604 7.31503V7.81503H134.613L134.622 7.81471L134.604 7.31503ZM134.901 6.82903L134.921 7.32876L134.932 7.32806L134.901 6.82903ZM137.304 6.23503L137.514 6.68871L137.519 6.68646L137.304 6.23503ZM137.871 5.96503L137.695 5.49687L137.675 5.50439L137.656 5.5136L137.871 5.96503ZM138.087 5.88403L138.569 5.75107L138.424 5.22383L137.911 5.41587L138.087 5.88403ZM138.276 8.26003L137.776 8.25156L137.776 8.25299L138.276 8.26003ZM138.249 10.177L137.749 10.17L137.749 10.1781L138.249 10.177ZM138.276 23.407H138.776V23.406L138.276 23.407ZM138.303 24.3655L137.811 24.455V24.455L138.303 24.3655ZM138.433 24.5427L138.195 24.9826L138.215 24.9935L138.236 25.0024L138.433 24.5427ZM138.492 24.568L138.846 24.2145L138.777 24.1462L138.688 24.1082L138.492 24.568ZM139.491 24.622L139.477 25.122H139.491V24.622ZM138.006 25L138.026 24.5004L138.022 24.5003L138.006 25ZM137.169 24.973L137.185 24.4733L137.177 24.473H137.169V24.973ZM106.983 25L106.507 24.8475L106.505 24.853L106.983 25ZM105.741 23.191L105.27 23.36L105.272 23.3632L105.741 23.191ZM104.094 18.952L104.555 18.7593L104.555 18.7587L104.094 18.952ZM102.717 15.496L103.185 15.3189L102.738 14.1393L102.255 15.3047L102.717 15.496ZM98.964 25.027L98.4958 24.8515L98.4926 24.8601L98.4896 24.8689L98.964 25.027ZM98.37 24.892L98.8323 24.7017L98.8312 24.6988L98.37 24.892ZM92.16 8.34103L91.6908 8.51389L91.6909 8.51421L92.16 8.34103ZM90.648 6.77503L90.6272 7.27461L90.6301 7.27471L90.648 6.77503ZM90.108 6.18103L90.0099 6.67132L90.0445 6.67824L90.0797 6.68023L90.108 6.18103ZM94.3065 6.22153L94.2811 5.72218L94.3065 6.22153ZM96.291 6.74803L96.2749 6.24829L96.291 6.74803ZM99.585 21.247L99.1166 21.4219L99.5709 22.6392L100.05 21.4313L99.585 21.247ZM102.285 14.524L102.747 14.7147L102.823 14.53L102.751 14.3437L102.285 14.524ZM99.612 7.61203L99.1447 7.79003L99.1456 7.79238L99.612 7.61203ZM99.1125 6.88303L99.3606 6.44891V6.44891L99.1125 6.88303ZM98.073 6.69403L98.0551 7.19371L98.073 6.69403ZM98.937 6.20803L98.8937 6.70615L98.937 6.20803ZM100.825 6.26159L100.823 6.76159L100.825 6.76159L100.825 6.26159ZM103.149 6.26203L103.158 5.76203L103.149 5.76203L103.149 6.26203ZM106.119 6.31603L106.11 6.81603H106.119V6.31603ZM108.522 6.20803L108.56 6.70656L108.582 6.70486L108.604 6.70123L108.522 6.20803ZM106.794 7.01803L107.018 7.46531L107.025 7.46133L106.794 7.01803ZM105.795 8.96203L106.255 9.15904L106.259 9.14892L105.795 8.96203ZM104.715 11.527L104.254 11.3342L104.251 11.3413L104.715 11.527ZM104.229 12.742L103.765 12.5563L103.695 12.7303L103.757 12.9072L104.229 12.742ZM105.417 15.739L104.954 15.9274L104.955 15.9302L105.417 15.739ZM107.55 21.112L107.082 21.287L107.568 22.5898L108.023 21.2754L107.55 21.112ZM111.114 10.771L111.587 10.9336L111.587 10.9328L111.114 10.771ZM112.063 7.84493L112.544 7.98106L112.546 7.97645L112.063 7.84493ZM112.12 7.63526L112.603 7.76679L112.604 7.76108L112.12 7.63526ZM111.195 6.20803L111.145 6.70557L111.15 6.70598L111.195 6.20803ZM112.275 6.26203V6.76207L112.281 6.76199L112.275 6.26203ZM114.435 6.23503V5.73499L114.429 5.73507L114.435 6.23503ZM114.489 6.72103L114.502 7.22086L114.504 7.22082L114.489 6.72103ZM112.086 10.15L111.612 9.99192L111.611 9.994L112.086 10.15ZM109.926 16.441L110.396 16.6128L110.396 16.6123L109.926 16.441ZM103.824 11.824L103.351 11.9871L103.758 13.1647L104.278 12.033L103.824 11.824ZM105.282 8.26003L105.75 8.43686L105.752 8.4309L105.282 8.26003ZM105.606 7.47703L106.063 7.6801L106.081 7.64042L106.091 7.5983L105.606 7.47703ZM105.66 7.26103L106.145 7.3823L106.16 7.32258V7.26103H105.66ZM103.662 6.77503V6.27503H103.647L103.633 6.2759L103.662 6.77503ZM103.203 6.80203L103.231 7.30127L103.232 7.30117L103.203 6.80203ZM122.481 23.5555L122.109 23.2209L122.481 23.5555ZM122.44 14.6995L122.071 15.036V15.036L122.44 14.6995ZM114.367 14.686L114.739 15.0208L114.367 14.686ZM114.408 23.5555L114.042 23.8963L114.408 23.5555ZM116.122 23.4205L116.553 23.1655V23.1655L116.122 23.4205ZM120.483 24.001L120.061 23.7326L120.06 23.7349L120.483 24.001ZM120.699 14.524L120.262 14.7669L120.262 14.7675L120.699 14.524ZM131.094 24.649L131.183 24.1571L131.145 24.1501L131.106 24.1492L131.094 24.649ZM129.703 24.541L129.87 24.0695L129.87 24.0695L129.703 24.541ZM130.095 14.686L129.661 14.438L129.659 14.4414L130.095 14.686ZM131.742 14.524L131.37 14.1895L131.37 14.1896L131.742 14.524ZM133.605 15.766L133.239 15.4249L133.239 15.4249L133.605 15.766ZM133.416 13.4305L133.076 13.7969V13.7969L133.416 13.4305ZM129.555 14.794H129.055L130.01 15.0019L129.555 14.794ZM129.447 12.958L129.94 12.8758L129.84 12.2765L129.271 12.4899L129.447 12.958ZM129.231 13.039L129.055 12.5709L129.038 12.5773L129.021 12.5851L129.231 13.039ZM128.88 13.201L128.67 12.747L128.669 12.7479L128.88 13.201ZM126.671 13.768L126.574 14.2585L126.622 14.2681L126.672 14.268L126.671 13.768ZM126.409 13.737L126.46 13.2396L126.459 13.2396L126.409 13.737ZM126.315 13.7275L126.365 13.2301L126.365 13.23L126.315 13.7275ZM125.37 14.065L125.384 13.565H125.37V14.065ZM127.179 24.46L127.579 24.76L127.606 24.724L127.626 24.6836L127.179 24.46ZM149.832 25.162L150.08 25.5962L150.085 25.593L149.832 25.162ZM152.289 24.622L152.344 24.1251L152.317 24.122H152.289V24.622ZM151.614 24.055L152.095 23.9177L152.094 23.9139L151.614 24.055ZM151.479 17.9509L150.979 17.9509V17.9515L151.479 17.9509ZM151.479 7.88203H150.979V7.88206L151.479 7.88203ZM151.506 7.12603L152.005 7.15722L152.006 7.14164V7.12603H151.506ZM151.047 5.96503L151.259 6.41809L151.271 6.41225L151.047 5.96503ZM148.563 6.72103L148.58 6.2213L148.577 6.22123L148.563 6.72103ZM147.591 6.69403L147.605 6.19403H147.591V6.69403ZM148.59 7.09903L148.548 6.60066L148.539 6.60169L148.59 7.09903ZM149.076 7.47703L149.542 7.2958L149.54 7.29134L149.076 7.47703ZM149.265 14.227L148.854 14.5121L149.765 15.8247V14.227H149.265ZM142.663 14.632L143.044 14.9562L142.663 14.632ZM142.663 23.5825L142.282 23.9052L142.282 23.9052L142.663 23.5825ZM149.157 24.217L149.657 24.2332L149.696 23.0121L148.812 23.8552L149.157 24.217ZM149.13 25.054L148.63 25.0379L148.63 25.046V25.054H149.13ZM145.363 24.3655L145.065 24.7666L145.363 24.3655ZM149.062 23.137L149.543 23.2756V23.2756L149.062 23.137ZM148.698 14.362L149.093 14.055L149.09 14.0511L148.698 14.362ZM144.513 14.956L144.079 14.708L144.513 14.956ZM144.405 23.164L143.947 23.3644L143.948 23.3671L144.405 23.164ZM134.685 25.581C134.821 25.581 134.956 25.5697 135.091 25.5472L134.927 24.5608C134.846 24.5744 134.765 24.581 134.685 24.581V25.581ZM134.576 25.5829C134.623 25.5843 134.671 25.5831 134.718 25.5799L134.652 24.5821C134.632 24.5835 134.616 24.5837 134.604 24.5833L134.576 25.5829ZM133.78 24.838C133.78 25.0364 133.852 25.2551 134.047 25.4097C134.219 25.5457 134.422 25.5785 134.576 25.5829L134.604 24.5833C134.551 24.5818 134.599 24.5709 134.668 24.6252C134.706 24.6555 134.738 24.6967 134.758 24.7436C134.778 24.788 134.78 24.8231 134.78 24.838H133.78ZM134.577 24.149C134.441 24.149 134.253 24.1677 134.086 24.2745C133.88 24.4056 133.78 24.6192 133.78 24.838H134.78C134.78 24.8727 134.773 24.9275 134.741 24.9873C134.709 25.0487 134.664 25.0917 134.623 25.1181C134.554 25.1618 134.515 25.149 134.577 25.149V24.149ZM135.279 24.149H134.577V25.149H135.279V24.149ZM135.535 24.325C135.535 24.2741 135.553 24.2119 135.593 24.1598C135.628 24.1148 135.659 24.104 135.649 24.1085C135.639 24.1129 135.606 24.1243 135.539 24.1338C135.474 24.1431 135.388 24.149 135.279 24.149V25.149C135.551 25.149 135.822 25.1221 136.043 25.0276C136.159 24.9781 136.284 24.8997 136.382 24.7738C136.486 24.6407 136.535 24.484 136.535 24.325H135.535ZM135.561 22.8838C135.56 23.319 135.557 23.654 135.553 23.8903C135.548 24.1511 135.541 24.245 135.542 24.2428L136.528 24.4072C136.543 24.3173 136.548 24.1274 136.552 23.9084C136.557 23.6647 136.56 23.3238 136.561 22.887L135.561 22.8838ZM135.562 22.4541L135.561 22.8844L136.561 22.8864L136.562 22.4561L135.562 22.4541ZM135.562 22.2188L135.562 22.4549L136.562 22.4553L136.562 22.2192L135.562 22.2188ZM135.562 8.47603V22.219H136.562V8.47603H135.562ZM135.592 7.78138C135.567 7.7438 135.554 7.71183 135.548 7.69681C135.541 7.67992 135.538 7.66749 135.537 7.66242C135.534 7.65287 135.535 7.65225 135.537 7.66587C135.54 7.69242 135.545 7.74021 135.549 7.81527C135.557 7.9634 135.562 8.18205 135.562 8.47603H136.562C136.562 8.17601 136.557 7.93566 136.548 7.7598C136.543 7.67285 136.536 7.5924 136.527 7.52445C136.522 7.49081 136.515 7.45139 136.505 7.41146C136.497 7.3829 136.476 7.30528 136.424 7.22669L135.592 7.78138ZM135.576 7.78803C135.61 7.78803 135.63 7.79067 135.641 7.7927C135.652 7.79472 135.648 7.79535 135.636 7.78925C135.623 7.78265 135.602 7.76964 135.582 7.7474C135.561 7.72485 135.548 7.70055 135.54 7.6796L136.476 7.32847C136.313 6.89265 135.891 6.78803 135.576 6.78803V7.78803ZM135.36 7.78803H135.576V6.78803H135.36V7.78803ZM134.622 7.81471L135.378 7.78771L135.342 6.78835L134.586 6.81535L134.622 7.81471ZM133.726 7.07203C133.726 7.30661 133.831 7.53376 134.05 7.67487C134.232 7.79166 134.44 7.81503 134.604 7.81503V6.81503C134.566 6.81503 134.548 6.81186 134.543 6.81094C134.539 6.80995 134.559 6.81347 134.591 6.83369C134.626 6.85609 134.665 6.89382 134.693 6.94819C134.721 7.0009 134.726 7.04709 134.726 7.07203H133.726ZM134.881 6.32943C134.642 6.33901 134.411 6.36594 134.225 6.43284C134.063 6.49146 133.726 6.66637 133.726 7.07203H134.726C134.726 7.12116 134.716 7.17273 134.694 7.22182C134.673 7.26995 134.646 7.30542 134.622 7.3294C134.578 7.37282 134.545 7.38047 134.564 7.37373C134.579 7.36842 134.614 7.35845 134.678 7.34905C134.741 7.33989 134.821 7.33264 134.921 7.32863L134.881 6.32943ZM137.094 5.78138C136.416 6.09562 135.676 6.27963 134.87 6.33001L134.932 7.32806C135.854 7.27044 136.716 7.05844 137.514 6.68869L137.094 5.78138ZM137.656 5.5136L137.089 5.7836L137.519 6.68646L138.086 6.41646L137.656 5.5136ZM137.911 5.41587L137.695 5.49687L138.047 6.4332L138.263 6.3522L137.911 5.41587ZM138.776 8.26851C138.794 7.19531 138.733 6.34453 138.569 5.75107L137.605 6.017C137.729 6.46754 137.794 7.20076 137.776 8.25156L138.776 8.26851ZM138.749 10.1841L138.776 8.26707L137.776 8.25299L137.749 10.17L138.749 10.1841ZM138.776 23.406L138.749 10.176L137.749 10.1781L137.776 23.4081L138.776 23.406ZM138.795 24.2761C138.796 24.2813 138.793 24.2668 138.79 24.2177C138.787 24.1737 138.785 24.1142 138.783 24.0376C138.778 23.8846 138.776 23.6751 138.776 23.407H137.776C137.776 23.679 137.778 23.8992 137.783 24.0657C137.787 24.2174 137.794 24.3613 137.811 24.455L138.795 24.2761ZM138.67 24.1027C138.692 24.1144 138.722 24.1367 138.75 24.174C138.777 24.2114 138.79 24.2488 138.795 24.2761L137.811 24.455C137.853 24.6864 137.992 24.873 138.195 24.9826L138.67 24.1027ZM138.688 24.1082L138.629 24.0829L138.236 25.0024L138.296 25.0278L138.688 24.1082ZM139.505 24.1222C139.182 24.1133 138.942 24.1044 138.782 24.0958C138.701 24.0914 138.647 24.0874 138.616 24.0841C138.598 24.0824 138.597 24.0818 138.605 24.0832C138.608 24.0838 138.625 24.0869 138.649 24.0943C138.661 24.098 138.683 24.1056 138.71 24.1185C138.732 24.1288 138.788 24.1574 138.846 24.2145L138.138 24.9216C138.197 24.9798 138.255 25.0095 138.279 25.0209C138.309 25.035 138.334 25.0436 138.349 25.0485C138.38 25.0581 138.407 25.0635 138.422 25.0663C138.454 25.0723 138.487 25.0762 138.514 25.0789C138.57 25.0847 138.643 25.0897 138.728 25.0943C138.901 25.1037 139.152 25.1128 139.477 25.1218L139.505 24.1222ZM140.612 24.811C140.612 24.3895 140.244 24.2341 140.102 24.1909C139.926 24.1374 139.711 24.122 139.491 24.122V25.122C139.583 25.122 139.656 25.1256 139.712 25.1313C139.77 25.1372 139.801 25.1444 139.811 25.1476C139.827 25.1523 139.787 25.144 139.736 25.0976C139.708 25.0718 139.675 25.033 139.65 24.9792C139.624 24.9242 139.612 24.8661 139.612 24.811H140.612ZM139.761 25.554C139.92 25.554 140.128 25.5293 140.309 25.4044C140.523 25.2564 140.612 25.0298 140.612 24.811H139.612C139.612 24.7914 139.616 24.75 139.64 24.7004C139.665 24.6485 139.702 24.6084 139.74 24.5822C139.774 24.5582 139.8 24.5521 139.802 24.5516C139.804 24.5512 139.792 24.554 139.761 24.554V25.554ZM139.437 25.554H139.761V24.554H139.437V25.554ZM137.986 25.4996C138.893 25.5352 139.388 25.554 139.437 25.554V24.554C139.439 24.554 139.415 24.5534 139.345 24.551C139.281 24.5487 139.19 24.5454 139.071 24.5409C138.833 24.5319 138.485 24.5184 138.026 24.5004L137.986 25.4996ZM137.153 25.4728L137.99 25.4998L138.022 24.5003L137.185 24.4733L137.153 25.4728ZM135.03 25.5536C136.334 25.4992 137.039 25.473 137.169 25.473V24.473C137.011 24.473 136.276 24.5008 134.988 24.5545L135.03 25.5536ZM106.713 25.851C106.974 25.851 107.155 25.7014 107.258 25.5681C107.355 25.4413 107.417 25.2886 107.461 25.1471L106.505 24.853C106.492 24.8955 106.48 24.925 106.472 24.9441C106.462 24.9639 106.459 24.9662 106.465 24.9584C106.471 24.9508 106.493 24.9242 106.536 24.8986C106.583 24.8708 106.645 24.851 106.713 24.851V25.851ZM106.001 25.2862C106.052 25.4009 106.121 25.5253 106.219 25.6279C106.319 25.7335 106.485 25.851 106.713 25.851V24.851C106.851 24.851 106.929 24.9236 106.944 24.9392C106.956 24.9518 106.942 24.9411 106.912 24.8759L106.001 25.2862ZM105.272 23.3632C105.664 24.4329 105.91 25.0854 106.001 25.2862L106.912 24.8759C106.841 24.7166 106.61 24.1091 106.21 23.0189L105.272 23.3632ZM103.633 19.1448C104.223 20.5592 104.769 21.9642 105.27 23.36L106.212 23.0221C105.705 21.6098 105.153 20.1889 104.555 18.7593L103.633 19.1448ZM102.249 15.6731C102.701 16.8663 103.163 18.0238 103.633 19.1454L104.555 18.7587C104.089 17.6483 103.633 16.5017 103.185 15.3189L102.249 15.6731ZM99.4322 25.2026C100.672 21.8955 101.921 18.7238 103.179 15.6874L102.255 15.3047C100.993 18.3523 99.7397 21.5346 98.4958 24.8515L99.4322 25.2026ZM98.694 25.851C98.9385 25.851 99.1174 25.7212 99.2266 25.5901C99.3286 25.4677 99.3933 25.3202 99.4383 25.1851L98.4896 24.8689C98.4773 24.9059 98.4668 24.9304 98.4594 24.9452C98.4517 24.9605 98.4503 24.9596 98.4584 24.9499C98.4666 24.9401 98.4899 24.9149 98.5322 24.8918C98.5775 24.8671 98.6336 24.851 98.694 24.851V25.851ZM97.9077 25.0824C97.9758 25.248 98.0511 25.4029 98.137 25.5246C98.18 25.5855 98.2389 25.6573 98.3174 25.718C98.3962 25.7789 98.5248 25.851 98.694 25.851V24.851C98.8181 24.851 98.8996 24.9041 98.9288 24.9267C98.9578 24.9491 98.965 24.9636 98.954 24.9479C98.9448 24.9349 98.9287 24.9091 98.9066 24.8658C98.8849 24.8232 98.8601 24.769 98.8323 24.7017L97.9077 25.0824ZM91.6909 8.51421C95.2703 18.2089 97.3454 23.7404 97.9088 25.0852L98.8312 24.6988C98.2785 23.3797 96.2137 17.8771 92.629 8.16786L91.6909 8.51421ZM91.1905 7.35513C91.2185 7.39319 91.2789 7.49923 91.3719 7.70958C91.4605 7.90993 91.5667 8.17698 91.6908 8.51389L92.6292 8.16818C92.5013 7.82109 92.387 7.53239 92.2865 7.30523C92.1905 7.08808 92.0935 6.89487 91.9955 6.76193L91.1905 7.35513ZM90.6301 7.27471C90.8596 7.28291 91.0175 7.30801 91.1186 7.33832C91.2257 7.37047 91.2184 7.39302 91.1905 7.35513L91.9955 6.76193C91.8416 6.55305 91.6138 6.44285 91.4059 6.3805C91.1919 6.3163 90.9404 6.28516 90.6658 6.27535L90.6301 7.27471ZM88.852 6.39703C88.852 6.6445 88.9848 6.82509 89.1226 6.93418C89.2492 7.03438 89.4003 7.09397 89.536 7.13353C89.8116 7.21392 90.1846 7.25616 90.6272 7.2746L90.6688 6.27547C90.2474 6.25791 89.9724 6.21914 89.816 6.17353C89.7356 6.1501 89.7248 6.13543 89.7433 6.15014C89.7731 6.17372 89.852 6.25757 89.852 6.39703H88.852ZM89.784 5.65403C89.6095 5.65403 89.3985 5.67572 89.2149 5.779C88.9893 5.90587 88.852 6.13098 88.852 6.39703H89.852C89.852 6.43281 89.8432 6.48806 89.8091 6.54562C89.7753 6.60269 89.7325 6.63517 89.7051 6.65057C89.6807 6.6643 89.6702 6.66383 89.6871 6.66066C89.7031 6.65767 89.734 6.65403 89.784 6.65403V5.65403ZM90.206 5.69074C90.0743 5.6644 89.9317 5.65403 89.784 5.65403V6.65403C89.8883 6.65403 89.9616 6.66166 90.0099 6.67132L90.206 5.69074ZM93.186 5.76203C92.0961 5.76203 91.0796 5.73523 90.1362 5.68183L90.0797 6.68023C91.0444 6.73484 92.0799 6.76203 93.186 6.76203V5.76203ZM94.2811 5.72218C93.7499 5.74919 93.3879 5.76203 93.186 5.76203V6.76203C93.4161 6.76203 93.8011 6.74788 94.3319 6.72089L94.2811 5.72218ZM96.372 5.68103C95.5218 5.68103 94.824 5.69457 94.2811 5.72218L94.3319 6.72089C94.851 6.69449 95.5302 6.68103 96.372 6.68103V5.68103ZM96.669 5.68103H96.372V6.68103H96.669V5.68103ZM97.628 6.42403C97.628 6.30169 97.598 6.17137 97.5224 6.05131C97.4479 5.93303 97.3469 5.85266 97.2472 5.79989C97.0627 5.7022 96.8498 5.68103 96.669 5.68103V6.68103C96.7248 6.68103 96.7615 6.68483 96.7829 6.68861C96.8055 6.6926 96.8 6.69461 96.7793 6.68368C96.7561 6.67141 96.7124 6.64166 96.6762 6.58413C96.6388 6.52482 96.628 6.46537 96.628 6.42403H97.628ZM96.3071 7.24777C96.6024 7.23825 96.8797 7.20479 97.0992 7.11982C97.3167 7.03564 97.628 6.82983 97.628 6.42403H96.628C96.628 6.34278 96.6613 6.26801 96.7062 6.21878C96.7414 6.18017 96.7656 6.17664 96.7382 6.18725C96.6788 6.21028 96.5375 6.23982 96.2749 6.24829L96.3071 7.24777ZM95.117 7.18003C95.117 7.33322 95.0219 7.41126 95.011 7.41904C95.0084 7.42088 95.0452 7.39691 95.1604 7.36717C95.3846 7.30933 95.7584 7.26547 96.3071 7.24777L96.2749 6.24829C95.7076 6.26659 95.2444 6.31274 94.9106 6.39889C94.7468 6.44116 94.5743 6.50268 94.4322 6.60353C94.2818 6.7103 94.117 6.90084 94.117 7.18003H95.117ZM100.053 21.0722C98.3977 16.636 97.157 13.2485 96.3305 10.9083C95.917 9.73763 95.6085 8.83261 95.4039 8.19081C95.3014 7.8694 95.2265 7.61883 95.1777 7.4362C95.1222 7.22854 95.117 7.16551 95.117 7.18003H94.117C94.117 7.32056 94.1635 7.51431 94.2115 7.69421C94.2663 7.89914 94.3466 8.16692 94.4511 8.49463C94.6605 9.15108 94.973 10.0674 95.3875 11.2413C96.217 13.59 97.4603 16.9841 99.1166 21.4219L100.053 21.0722ZM101.823 14.3334C101.227 15.7767 100.326 18.0204 99.1202 21.0628L100.05 21.4313C101.256 18.3897 102.155 16.1513 102.747 14.7147L101.823 14.3334ZM99.1456 7.79238L101.819 14.7044L102.751 14.3437L100.078 7.43169L99.1456 7.79238ZM98.8644 7.31715C98.897 7.33579 99.011 7.43888 99.1447 7.79003L100.079 7.43404C99.925 7.02919 99.7059 6.64627 99.3606 6.44891L98.8644 7.31715ZM98.0551 7.19371C98.5583 7.21168 98.7923 7.27594 98.8644 7.31715L99.3606 6.44891C99.0547 6.27413 98.5957 6.21238 98.0908 6.19435L98.0551 7.19371ZM96.817 6.45103C96.817 6.65445 96.9137 6.81522 97.0312 6.92019C97.136 7.01376 97.2571 7.06499 97.353 7.0958C97.5461 7.15786 97.7907 7.18427 98.0551 7.19371L98.0908 6.19435C97.8512 6.18579 97.7179 6.16271 97.659 6.14377C97.6288 6.13407 97.6555 6.13693 97.6972 6.17425C97.721 6.19542 97.7524 6.23033 97.7776 6.28163C97.8037 6.33475 97.817 6.39322 97.817 6.45103H96.817ZM97.884 5.65403C97.6676 5.65403 97.4286 5.67963 97.2267 5.78537C97.1184 5.8421 97.0102 5.9276 96.9306 6.05266C96.8497 6.17974 96.817 6.31867 96.817 6.45103H97.817C97.817 6.48439 97.8079 6.5367 97.7743 6.58953C97.7419 6.64034 97.7045 6.66397 97.6907 6.6712C97.6794 6.67716 97.6854 6.67151 97.7219 6.66514C97.7572 6.65899 97.8099 6.65403 97.884 6.65403V5.65403ZM98.9803 5.70991C98.5576 5.67316 98.1912 5.65403 97.884 5.65403V6.65403C98.1528 6.65403 98.4884 6.67091 98.8937 6.70615L98.9803 5.70991ZM100.826 5.76159C99.9448 5.75862 99.3339 5.74066 98.9803 5.70991L98.8937 6.70615C99.2928 6.74086 99.9404 6.75861 100.823 6.76158L100.826 5.76159ZM103.149 5.76203L100.825 5.76159L100.825 6.76159L103.149 6.76203L103.149 5.76203ZM106.128 5.81612L103.158 5.76212L103.14 6.76195L106.11 6.81595L106.128 5.81612ZM108.484 5.70951C107.556 5.78089 106.768 5.81603 106.119 5.81603V6.81603C106.802 6.81603 107.616 6.77918 108.56 6.70656L108.484 5.70951ZM108.9 5.68103C108.736 5.68103 108.582 5.69115 108.44 5.71484L108.604 6.70123C108.678 6.68891 108.775 6.68103 108.9 6.68103V5.68103ZM110.048 6.45103C110.048 6.29755 109.999 6.14683 109.898 6.02056C109.803 5.90213 109.684 5.83086 109.578 5.78699C109.378 5.70339 109.136 5.68103 108.9 5.68103V6.68103C108.992 6.68103 109.062 6.68589 109.115 6.69315C109.141 6.69674 109.16 6.70063 109.174 6.70407C109.18 6.70577 109.185 6.70725 109.189 6.70836C109.192 6.70947 109.194 6.71011 109.194 6.71007C109.194 6.71003 109.192 6.70917 109.188 6.7072C109.184 6.70524 109.179 6.70201 109.172 6.69719C109.158 6.68752 109.138 6.67094 109.117 6.64526C109.07 6.58649 109.048 6.51452 109.048 6.45103H110.048ZM109.089 7.19403C109.27 7.19403 109.483 7.17286 109.667 7.07518C109.767 7.02241 109.868 6.94203 109.942 6.82375C110.018 6.70369 110.048 6.57337 110.048 6.45103H109.048C109.048 6.40969 109.059 6.35025 109.096 6.29094C109.132 6.23341 109.176 6.20366 109.199 6.19139C109.22 6.18045 109.226 6.18247 109.203 6.18645C109.182 6.19023 109.145 6.19403 109.089 6.19403V7.19403ZM108.63 7.19403H109.089V6.19403H108.63V7.19403ZM107.025 7.46133C107.333 7.30065 107.849 7.19403 108.63 7.19403V6.19403C107.791 6.19403 107.083 6.30342 106.563 6.57474L107.025 7.46133ZM106.259 9.14892C106.5 8.55097 106.698 8.1039 106.854 7.80007C106.932 7.64728 106.995 7.542 107.041 7.47554C107.102 7.3869 107.096 7.42617 107.018 7.46525L106.57 6.57082C106.402 6.6549 106.286 6.80892 106.22 6.90477C106.138 7.02281 106.053 7.17178 105.965 7.343C105.788 7.68717 105.576 8.1671 105.331 8.77515L106.259 9.14892ZM105.176 11.7198C105.68 10.5139 106.04 9.66071 106.255 9.15899L105.335 8.76507C105.118 9.27136 104.758 10.1282 104.254 11.3342L105.176 11.7198ZM104.693 12.9277L105.179 11.7127L104.251 11.3413L103.765 12.5563L104.693 12.9277ZM105.88 15.5507C105.212 13.9073 104.822 12.9223 104.701 12.5769L103.757 12.9072C103.888 13.2818 104.29 14.2948 104.954 15.9274L105.88 15.5507ZM108.018 20.9371C107.458 19.4359 106.744 17.6392 105.879 15.5479L104.955 15.9302C105.818 18.0148 106.526 19.8001 107.082 21.287L108.018 20.9371ZM110.641 10.6084C109.273 14.5863 108.085 18.033 107.077 20.9487L108.023 21.2754C109.031 18.3591 110.219 14.9118 111.587 10.9336L110.641 10.6084ZM111.582 7.7088C111.423 8.27178 111.11 9.23578 110.641 10.6093L111.587 10.9328C112.057 9.55933 112.377 8.57259 112.544 7.98105L111.582 7.7088ZM111.638 7.50374L111.581 7.71341L112.546 7.97645L112.603 7.76678L111.638 7.50374ZM111.694 7.26103C111.694 7.24616 111.695 7.2417 111.694 7.25339C111.692 7.26333 111.69 7.27976 111.685 7.30402C111.675 7.35278 111.66 7.42044 111.637 7.50943L112.604 7.76108C112.65 7.58625 112.694 7.39765 112.694 7.26103H111.694ZM111.249 7.24803C111.535 7.24803 111.671 7.28967 111.719 7.31571C111.736 7.32465 111.723 7.32188 111.709 7.29823C111.694 7.27335 111.694 7.25502 111.694 7.26103H112.694C112.694 7.09605 112.655 6.92809 112.561 6.77496C112.468 6.62306 112.337 6.51341 112.196 6.43686C111.929 6.2919 111.593 6.24803 111.249 6.24803V7.24803ZM109.426 6.45103C109.426 6.7212 109.588 6.90077 109.729 6.99569C109.86 7.0836 110.013 7.13145 110.147 7.16164C110.423 7.22361 110.799 7.24803 111.249 7.24803V6.24803C110.817 6.24803 110.531 6.22295 110.366 6.18593C110.28 6.16661 110.268 6.15259 110.288 6.16625C110.319 6.18692 110.426 6.27986 110.426 6.45103H109.426ZM110.466 5.68103C110.26 5.68103 110.032 5.70408 109.837 5.80132C109.733 5.85348 109.625 5.93394 109.544 6.05556C109.461 6.18031 109.426 6.31854 109.426 6.45103H110.426C110.426 6.49353 110.414 6.55301 110.376 6.61026C110.34 6.66438 110.299 6.68859 110.285 6.69575C110.272 6.70193 110.277 6.6969 110.312 6.69111C110.345 6.68554 110.395 6.68103 110.466 6.68103V5.68103ZM111.245 5.71051C111.041 5.69012 110.779 5.68103 110.466 5.68103V6.68103C110.765 6.68103 110.989 6.68995 111.145 6.70555L111.245 5.71051ZM112.275 5.76203C111.969 5.76203 111.624 5.74501 111.24 5.71009L111.15 6.70598C111.558 6.74305 111.933 6.76203 112.275 6.76203V5.76203ZM114.429 5.73507L112.269 5.76207L112.281 6.76199L114.441 6.73499L114.429 5.73507ZM115.646 5.91842C115.57 5.85541 115.493 5.82625 115.457 5.81378C115.412 5.79861 115.37 5.78878 115.334 5.782C115.264 5.76838 115.183 5.75959 115.101 5.75334C114.933 5.74066 114.709 5.73503 114.435 5.73503V6.73503C114.701 6.73503 114.895 6.74065 115.025 6.75048C115.091 6.75548 115.129 6.76075 115.146 6.76401C115.154 6.76566 115.148 6.76497 115.132 6.75965C115.124 6.75702 115.068 6.73841 115.006 6.68665L115.646 5.91842ZM115.907 6.45103C115.907 6.20649 115.777 6.02765 115.646 5.91842L115.006 6.68665C114.996 6.67842 114.971 6.65515 114.948 6.61283C114.923 6.5675 114.907 6.51144 114.907 6.45103H115.907ZM114.504 7.22082C114.821 7.21149 115.102 7.18329 115.319 7.11972C115.425 7.08842 115.555 7.03753 115.667 6.945C115.793 6.84184 115.907 6.67411 115.907 6.45103H114.907C114.907 6.30895 114.983 6.21323 115.032 6.17307C115.068 6.14354 115.083 6.14665 115.036 6.16035C114.947 6.18677 114.769 6.21258 114.474 6.22125L114.504 7.22082ZM113.569 7.627C113.678 7.41814 113.917 7.23626 114.502 7.22086L114.476 6.22121C113.693 6.24181 113.023 6.50993 112.682 7.16507L113.569 7.627ZM112.56 10.3081C113.031 8.8974 113.365 8.01781 113.569 7.627L112.682 7.16507C112.436 7.63825 112.077 8.59466 111.612 9.99192L112.56 10.3081ZM110.396 16.6123C111.028 14.8777 111.75 12.7753 112.561 10.3061L111.611 9.994C110.802 12.4568 110.084 14.5484 109.456 16.2698L110.396 16.6123ZM107.459 25.1525C108.339 22.4055 109.318 19.559 110.396 16.6128L109.456 16.2692C108.374 19.2271 107.391 22.0865 106.507 24.8475L107.459 25.1525ZM104.297 11.661C103.766 10.1221 103.368 8.96402 103.102 8.18639C102.97 7.79741 102.871 7.50454 102.805 7.30711C102.772 7.2081 102.748 7.13477 102.732 7.08591C102.724 7.06104 102.719 7.04531 102.717 7.03678C102.716 7.03202 102.716 7.03332 102.717 7.03813C102.718 7.04022 102.72 7.04781 102.722 7.05841C102.723 7.06374 102.725 7.07327 102.726 7.0854C102.728 7.09471 102.731 7.12013 102.731 7.15303H101.731C101.731 7.2076 101.741 7.25139 101.741 7.25326C101.744 7.26647 101.746 7.27741 101.748 7.2836C101.751 7.29659 101.755 7.30906 101.757 7.31843C101.763 7.33817 101.771 7.36259 101.78 7.38975C101.797 7.44495 101.823 7.52322 101.856 7.62333C101.923 7.82415 102.023 8.11966 102.156 8.50918C102.422 9.28855 102.82 10.448 103.351 11.9871L104.297 11.661ZM104.814 8.08322C104.258 9.5539 103.777 10.7299 103.37 11.6151L104.278 12.033C104.699 11.1182 105.19 9.91817 105.75 8.43684L104.814 8.08322ZM105.149 7.27397C105.003 7.60246 104.89 7.87544 104.812 8.08916L105.752 8.4309C105.818 8.24862 105.921 7.9996 106.063 7.6801L105.149 7.27397ZM105.175 7.13977L105.121 7.35577L106.091 7.5983L106.145 7.3823L105.175 7.13977ZM103.986 7.27503C104.532 7.27503 104.893 7.31594 105.102 7.37671C105.207 7.40729 105.234 7.43187 105.227 7.42545C105.205 7.40622 105.16 7.34596 105.16 7.26103H106.16C106.16 7.0141 106.045 6.81209 105.884 6.67137C105.737 6.54344 105.555 6.46677 105.381 6.41636C105.032 6.31512 104.556 6.27503 103.986 6.27503V7.27503ZM103.662 7.27503H103.986V6.27503H103.662V7.27503ZM103.232 7.30117L103.691 7.27417L103.633 6.2759L103.174 6.3029L103.232 7.30117ZM102.731 7.15303C102.731 7.25807 102.682 7.33796 102.64 7.37822C102.61 7.40745 102.598 7.40362 102.644 7.38706C102.736 7.35376 102.92 7.3185 103.231 7.30126L103.175 6.3028C102.838 6.32156 102.536 6.36281 102.304 6.44651C102.106 6.51813 101.731 6.71195 101.731 7.15303H102.731ZM122.109 23.2209C121.142 24.2948 119.954 24.824 118.512 24.824V25.824C120.238 25.824 121.696 25.1742 122.852 23.8902L122.109 23.2209ZM123.574 19.168C123.574 20.8039 123.08 22.1432 122.109 23.2209L122.852 23.8902C124.006 22.6098 124.574 21.0242 124.574 19.168H123.574ZM122.071 15.036C123.067 16.1313 123.574 17.4968 123.574 19.168H124.574C124.574 17.2752 123.992 15.6617 122.81 14.3631L122.071 15.036ZM118.377 13.404C119.856 13.404 121.077 13.9433 122.071 15.036L122.81 14.3631C121.626 13.0618 120.138 12.404 118.377 12.404V13.404ZM114.739 15.0208C115.715 13.9382 116.916 13.404 118.377 13.404V12.404C116.634 12.404 115.162 13.0579 113.996 14.3512L114.739 15.0208ZM113.261 19.168C113.261 17.475 113.761 16.1053 114.739 15.0208L113.996 14.3512C112.832 15.6428 112.261 17.261 112.261 19.168H113.261ZM114.774 23.2148C113.77 22.1364 113.261 20.7991 113.261 19.168H112.261C112.261 21.0289 112.85 22.6166 114.042 23.8963L114.774 23.2148ZM118.512 24.824C117.01 24.824 115.776 24.2903 114.774 23.2148L114.042 23.8963C115.236 25.1788 116.738 25.824 118.512 25.824V24.824ZM118.647 24.446C117.763 24.446 117.076 24.048 116.553 23.1655L115.692 23.6755C116.375 24.827 117.371 25.446 118.647 25.446V24.446ZM120.06 23.7349C119.767 24.2009 119.326 24.446 118.647 24.446V25.446C119.624 25.446 120.407 25.0612 120.906 24.2671L120.06 23.7349ZM121.117 19.141C121.117 21.139 120.748 22.6536 120.061 23.7326L120.905 24.2695C121.73 22.9725 122.117 21.2471 122.117 19.141H121.117ZM120.262 14.7675C120.816 15.7601 121.117 17.2019 121.117 19.141H122.117C122.117 17.1202 121.806 15.484 121.136 14.2806L120.262 14.7675ZM118.431 13.809C119.343 13.809 119.915 14.1417 120.262 14.7669L121.136 14.2812C120.583 13.2863 119.643 12.809 118.431 12.809V13.809ZM116.507 15.1018C117.004 14.1941 117.64 13.809 118.431 13.809V12.809C117.206 12.809 116.267 13.459 115.63 14.6213L116.507 15.1018ZM115.718 19.168C115.718 17.3736 115.997 16.0332 116.507 15.1018L115.63 14.6213C115.006 15.7598 114.718 17.2905 114.718 19.168H115.718ZM116.553 23.1655C116.014 22.2565 115.718 20.9406 115.718 19.168H114.718C114.718 21.0314 115.025 22.5505 115.692 23.6755L116.553 23.1655ZM130.891 24.865C130.891 24.8163 130.903 24.7501 130.944 24.6845C130.984 24.6203 131.033 24.5842 131.066 24.5665C131.096 24.5503 131.114 24.5486 131.105 24.5501C131.098 24.5514 131.077 24.554 131.04 24.554V25.554C131.186 25.554 131.373 25.5372 131.54 25.447C131.632 25.3979 131.725 25.3224 131.794 25.2109C131.864 25.098 131.891 24.9768 131.891 24.865H130.891ZM131.005 25.141C131.072 25.1531 131.061 25.1622 131.023 25.1344C130.999 25.1174 130.964 25.0848 130.934 25.0317C130.904 24.9766 130.891 24.9178 130.891 24.865H131.891C131.891 24.628 131.77 24.4413 131.611 24.3257C131.474 24.2259 131.314 24.1809 131.183 24.1571L131.005 25.141ZM129.537 25.0125C129.685 25.0648 129.905 25.0897 130.127 25.107C130.372 25.126 130.691 25.1398 131.082 25.1489L131.106 24.1492C130.723 24.1403 130.423 24.127 130.205 24.11C130.095 24.1015 130.011 24.0924 129.949 24.0834C129.88 24.0734 129.861 24.0665 129.87 24.0695L129.537 25.0125ZM128.974 24.136C128.974 24.2982 129.002 24.4793 129.096 24.6458C129.197 24.8233 129.353 24.9474 129.537 25.0125L129.87 24.0695C129.882 24.0737 129.901 24.0826 129.921 24.0994C129.942 24.1164 129.957 24.1356 129.966 24.1528C129.984 24.1842 129.974 24.1898 129.974 24.136H128.974ZM128.974 18.79V24.136H129.974V18.79H128.974ZM129.659 14.4414C129.41 14.8859 129.242 15.4801 129.135 16.1907C129.026 16.9077 128.974 17.776 128.974 18.79H129.974C129.974 17.8061 130.025 16.9914 130.124 16.3403C130.223 15.683 130.366 15.2242 130.531 14.9307L129.659 14.4414ZM131.391 13.241C130.635 13.241 130.067 13.728 129.661 14.438L130.529 14.9341C130.843 14.384 131.139 14.241 131.391 14.241V13.241ZM132.485 14.146C132.485 13.8701 132.373 13.6028 132.118 13.4292C131.898 13.279 131.63 13.241 131.391 13.241V14.241C131.463 14.241 131.511 14.2473 131.54 14.2539C131.569 14.2605 131.569 14.2651 131.555 14.2554C131.537 14.2435 131.514 14.2207 131.499 14.1884C131.484 14.1585 131.485 14.1398 131.485 14.146H132.485ZM132.114 14.8585C132.203 14.7591 132.284 14.66 132.345 14.5649C132.392 14.4916 132.485 14.3367 132.485 14.146H131.485C131.485 14.1088 131.49 14.0795 131.495 14.0603C131.499 14.041 131.504 14.0275 131.507 14.0208C131.512 14.0087 131.513 14.009 131.504 14.0242C131.484 14.055 131.443 14.109 131.37 14.1895L132.114 14.8585ZM131.999 15.172C131.999 15.038 132.038 14.9427 132.114 14.8585L131.37 14.1896C131.122 14.4654 130.999 14.802 130.999 15.172H131.999ZM132.152 15.5112C132.045 15.4176 131.999 15.3164 131.999 15.172H130.999C130.999 15.6036 131.169 15.9795 131.494 16.2638L132.152 15.5112ZM132.633 15.671C132.413 15.671 132.265 15.6102 132.152 15.5112L131.494 16.2638C131.813 16.5429 132.205 16.671 132.633 16.671V15.671ZM133.239 15.4249C133.089 15.5857 132.902 15.671 132.633 15.671V16.671C133.156 16.671 133.617 16.4864 133.971 16.1072L133.239 15.4249ZM133.483 14.74C133.483 15.0439 133.394 15.2589 133.239 15.4249L133.971 16.1072C134.32 15.7332 134.483 15.2641 134.483 14.74H133.483ZM133.076 13.7969C133.351 14.052 133.483 14.3552 133.483 14.74H134.483C134.483 14.0809 134.237 13.511 133.756 13.0641L133.076 13.7969ZM131.985 13.404C132.451 13.404 132.801 13.5421 133.076 13.7969L133.756 13.0641C133.275 12.617 132.671 12.404 131.985 12.404V13.404ZM130.01 15.0019C130.536 13.8505 131.203 13.404 131.985 13.404V12.404C130.679 12.404 129.726 13.2175 129.1 14.5862L130.01 15.0019ZM129.055 14.254V14.794H130.055V14.254H129.055ZM128.954 13.0402C129.021 13.4454 129.055 13.85 129.055 14.254H130.055C130.055 13.7941 130.017 13.3346 129.94 12.8758L128.954 13.0402ZM129.407 13.5072L129.623 13.4262L129.271 12.4899L129.055 12.5709L129.407 13.5072ZM129.09 13.655L129.441 13.493L129.021 12.5851L128.67 12.7471L129.09 13.655ZM126.672 14.268C127.43 14.267 128.239 14.052 129.091 13.6541L128.669 12.7479C127.905 13.1042 127.242 13.2672 126.67 13.268L126.672 14.268ZM126.358 14.2344C126.43 14.2417 126.485 14.2477 126.524 14.2524C126.544 14.2547 126.559 14.2566 126.569 14.258C126.581 14.2597 126.581 14.2599 126.574 14.2585L126.768 13.2776C126.71 13.2659 126.593 13.2532 126.46 13.2396L126.358 14.2344ZM126.265 14.225L126.359 14.2345L126.459 13.2396L126.365 13.2301L126.265 14.225ZM125.505 14.187C125.758 14.187 126.012 14.1997 126.265 14.2251L126.365 13.23C126.078 13.2014 125.792 13.187 125.505 13.187V14.187ZM125.316 14.187H125.505V13.187H125.316V14.187ZM125.546 13.876C125.546 13.904 125.541 13.9525 125.514 14.0083C125.487 14.0666 125.445 14.1126 125.4 14.1439C125.323 14.198 125.269 14.187 125.316 14.187V13.187C125.183 13.187 124.994 13.2075 124.827 13.3247C124.627 13.4646 124.546 13.6776 124.546 13.876H125.546ZM125.37 13.565C125.355 13.565 125.344 13.5645 125.336 13.5638C125.332 13.5635 125.329 13.5631 125.327 13.5629C125.325 13.5626 125.324 13.5624 125.324 13.5624C125.324 13.5624 125.325 13.5627 125.327 13.5633C125.33 13.5639 125.333 13.5649 125.338 13.5665C125.347 13.5697 125.361 13.5756 125.379 13.5859C125.416 13.6077 125.464 13.6473 125.5 13.7106C125.536 13.7738 125.546 13.8344 125.546 13.876H124.546C124.546 14.1152 124.666 14.3277 124.875 14.4497C125.043 14.5475 125.23 14.565 125.37 14.565V13.565ZM127.016 13.877C126.616 13.6706 126.049 13.5837 125.384 13.5652L125.356 14.5648C125.987 14.5824 126.365 14.6665 126.559 14.766L127.016 13.877ZM127.733 16.036C127.733 15.523 127.695 15.0843 127.606 14.7392C127.521 14.4147 127.36 14.0542 127.016 13.877L126.559 14.766C126.512 14.7419 126.573 14.7436 126.638 14.9907C126.696 15.217 126.733 15.559 126.733 16.036H127.733ZM127.733 23.461V16.036H126.733V23.461H127.733ZM127.626 24.6836C127.677 24.5819 127.692 24.4696 127.698 24.4232C127.707 24.3541 127.714 24.2726 127.719 24.1833C127.728 24.0034 127.733 23.7613 127.733 23.461H126.733C126.733 23.7548 126.728 23.9761 126.72 24.1293C126.716 24.2065 126.711 24.2589 126.707 24.291C126.705 24.3071 126.704 24.312 126.704 24.309C126.705 24.3072 126.706 24.3003 126.71 24.29C126.713 24.2805 126.719 24.261 126.732 24.2364L127.626 24.6836ZM126.099 25.176C126.419 25.176 126.7 25.1576 126.926 25.1123C127.121 25.0734 127.405 24.9918 127.579 24.76L126.779 24.16C126.819 24.1072 126.855 24.0942 126.841 24.1006C126.83 24.1058 126.796 24.1185 126.73 24.1317C126.596 24.1584 126.391 24.176 126.099 24.176V25.176ZM125.721 25.176H126.099V24.176H125.721V25.176ZM125.87 24.865C125.87 24.9138 125.858 24.9799 125.817 25.0455C125.777 25.1097 125.728 25.1459 125.695 25.1635C125.665 25.1797 125.647 25.1815 125.656 25.18C125.663 25.1787 125.684 25.176 125.721 25.176V24.176C125.575 24.176 125.388 24.1928 125.221 24.283C125.129 24.3322 125.036 24.4077 124.967 24.5192C124.897 24.632 124.87 24.7533 124.87 24.865H125.87ZM125.802 24.554C125.747 24.554 125.709 24.5509 125.685 24.5475C125.66 24.5437 125.661 24.5411 125.678 24.5487C125.696 24.5564 125.747 24.5823 125.795 24.6447C125.847 24.7136 125.87 24.7941 125.87 24.865H124.87C124.87 24.9989 124.911 25.1346 124.999 25.2507C125.083 25.3603 125.188 25.4257 125.278 25.4649C125.445 25.5383 125.637 25.554 125.802 25.554V24.554ZM126.655 24.5285C126.438 24.5452 126.155 24.554 125.802 24.554V25.554C126.169 25.554 126.48 25.5449 126.731 25.5256L126.655 24.5285ZM127.827 24.5C127.304 24.5 126.909 24.5089 126.655 24.5285L126.731 25.5256C126.945 25.5091 127.306 25.5 127.827 25.5V24.5ZM129.904 24.5277C129.53 24.5089 128.834 24.5 127.827 24.5V25.5C128.836 25.5 129.508 25.5091 129.854 25.5264L129.904 24.5277ZM131.04 24.554C130.633 24.554 130.255 24.5452 129.904 24.5277L129.854 25.5264C130.223 25.5449 130.619 25.554 131.04 25.554V24.554ZM149.584 24.7279C149.463 24.7973 149.374 24.8438 149.315 24.8716C149.285 24.8857 149.271 24.8912 149.268 24.8923C149.267 24.8927 149.273 24.8902 149.286 24.8872C149.297 24.8848 149.329 24.878 149.373 24.878V25.878C149.475 25.878 149.56 25.8493 149.596 25.8368C149.645 25.8198 149.695 25.7984 149.741 25.7764C149.835 25.7322 149.949 25.6708 150.08 25.5962L149.584 24.7279ZM152.073 24.122C151.123 24.122 150.284 24.3161 149.578 24.7311L150.085 25.593C150.604 25.2879 151.259 25.122 152.073 25.122V24.122ZM152.289 24.122H152.073V25.122H152.289V24.122ZM152.748 24.149C152.625 24.149 152.49 24.1413 152.344 24.1251L152.234 25.119C152.412 25.1388 152.583 25.149 152.748 25.149V24.149ZM152.883 24.149H152.748V25.149H152.883V24.149ZM152.761 24.46C152.761 24.404 152.776 24.3327 152.821 24.2654C152.864 24.2011 152.915 24.1685 152.943 24.1546C152.969 24.1416 152.981 24.1416 152.966 24.144C152.953 24.1462 152.926 24.149 152.883 24.149V25.149C153.035 25.149 153.223 25.1327 153.39 25.049C153.481 25.0036 153.579 24.9316 153.653 24.8201C153.73 24.7054 153.761 24.579 153.761 24.46H152.761ZM152.883 24.744C152.924 24.744 152.946 24.7471 152.955 24.7487C152.964 24.7505 152.948 24.7489 152.918 24.7322C152.886 24.7137 152.841 24.6777 152.805 24.6175C152.77 24.557 152.761 24.4989 152.761 24.46H153.761C153.761 24.2069 153.632 23.9881 153.415 23.8639C153.239 23.7636 153.04 23.744 152.883 23.744V24.744ZM151.133 24.1924C151.21 24.4601 151.441 24.5663 151.523 24.6001C151.635 24.6463 151.763 24.6732 151.885 24.6913C152.133 24.7284 152.471 24.744 152.883 24.744V23.744C152.485 23.744 152.206 23.7282 152.032 23.7022C151.99 23.696 151.958 23.6897 151.935 23.6842C151.911 23.6784 151.902 23.6747 151.904 23.6754C151.905 23.6759 151.911 23.6785 151.921 23.684C151.931 23.6894 151.946 23.6991 151.965 23.7147C152.002 23.7451 152.064 23.8102 152.095 23.9177L151.133 24.1924ZM150.979 17.9515C150.982 19.8436 150.995 21.3018 151.017 22.3244C151.028 22.8352 151.042 23.2411 151.059 23.5396C151.067 23.6886 151.076 23.8151 151.087 23.9166C151.096 24.0067 151.109 24.1114 151.134 24.1961L152.094 23.9139C152.097 23.9268 152.091 23.905 152.082 23.8141C152.073 23.7345 152.065 23.6253 152.057 23.484C152.042 23.202 152.028 22.8089 152.017 22.3024C151.995 21.2902 151.982 19.8401 151.979 17.9502L150.979 17.9515ZM150.979 7.88206L150.979 17.9509L151.979 17.9508L151.979 7.88201L150.979 7.88206ZM151.007 7.09485C150.989 7.39002 150.979 7.65285 150.979 7.88203H151.979C151.979 7.67922 151.987 7.43805 152.005 7.15722L151.007 7.09485ZM151.006 6.55903V7.12603H152.006V6.55903H151.006ZM151.236 6.41103C151.173 6.41103 151.101 6.38898 151.042 6.34197C151.016 6.32142 151 6.30128 150.99 6.28736C150.985 6.28042 150.982 6.27484 150.98 6.27118C150.978 6.26751 150.977 6.26543 150.977 6.26534C150.977 6.26524 150.978 6.26677 150.979 6.27021C150.98 6.27364 150.981 6.27865 150.983 6.28543C150.986 6.29919 150.99 6.31851 150.994 6.34432C151.001 6.39664 151.006 6.46722 151.006 6.55903H152.006C152.006 6.32337 151.984 6.08138 151.9 5.88073C151.856 5.77544 151.785 5.65584 151.666 5.5611C151.54 5.46008 151.389 5.41103 151.236 5.41103V6.41103ZM151.271 6.41225C151.285 6.40507 151.29 6.40414 151.286 6.4053C151.282 6.40644 151.264 6.41103 151.236 6.41103V5.41103C151.076 5.41103 150.934 5.46274 150.823 5.51782L151.271 6.41225ZM148.546 7.22076C149.217 7.2431 150.141 6.94099 151.259 6.41794L150.835 5.51213C149.721 6.03307 148.989 6.23497 148.58 6.22131L148.546 7.22076ZM147.577 7.19384L148.549 7.22084L148.577 6.22123L147.605 6.19423L147.577 7.19384ZM147.794 6.93703C147.794 6.9465 147.793 6.97758 147.776 7.01937C147.757 7.06422 147.726 7.10776 147.685 7.14176C147.608 7.20498 147.547 7.19403 147.591 7.19403V6.19403C147.437 6.19403 147.228 6.22359 147.052 6.36781C146.856 6.52773 146.794 6.74952 146.794 6.93703H147.794ZM147.645 6.68003C147.614 6.68003 147.602 6.67718 147.604 6.67765C147.606 6.67813 147.632 6.68423 147.666 6.70819C147.704 6.73439 147.741 6.77446 147.766 6.82644C147.79 6.876 147.794 6.91735 147.794 6.93703H146.794C146.794 7.15577 146.883 7.38244 147.097 7.53038C147.278 7.65527 147.486 7.68003 147.645 7.68003V6.68003ZM148.539 6.60169C148.004 6.65702 147.721 6.68003 147.645 6.68003V7.68003C147.785 7.68003 148.132 7.64905 148.641 7.59638L148.539 6.60169ZM149.54 7.29134C149.466 7.10648 149.355 6.92092 149.18 6.78536C148.994 6.6407 148.774 6.58198 148.548 6.60076L148.632 7.59731C148.632 7.59728 148.629 7.59752 148.624 7.59707C148.619 7.59661 148.612 7.59553 148.605 7.5933C148.588 7.58845 148.574 7.58073 148.567 7.57471C148.56 7.56945 148.562 7.56963 148.572 7.5832C148.581 7.5971 148.595 7.6221 148.612 7.66273L149.54 7.29134ZM149.765 10.015C149.765 9.32514 149.749 8.75788 149.716 8.3174C149.685 7.89575 149.635 7.53497 149.542 7.29581L148.61 7.65826C148.643 7.74309 148.688 7.96732 148.719 8.39167C148.749 8.79719 148.765 9.33693 148.765 10.015H149.765ZM149.765 14.227V10.015H148.765V14.227H149.765ZM146.511 13.404C147.598 13.404 148.35 13.7852 148.854 14.5121L149.676 13.942C148.956 12.9049 147.872 12.404 146.511 12.404V13.404ZM143.044 14.9562C143.925 13.9216 145.066 13.404 146.511 13.404V12.404C144.788 12.404 143.364 13.0385 142.283 14.3079L143.044 14.9562ZM141.692 19.141C141.692 17.378 142.156 15.9986 143.044 14.9562L142.283 14.3079C141.209 15.5694 140.692 17.196 140.692 19.141H141.692ZM143.045 23.2598C142.154 22.2051 141.692 20.8457 141.692 19.141H140.692C140.692 21.0364 141.211 22.638 142.282 23.9052L143.045 23.2598ZM146.403 24.824C145.039 24.824 143.932 24.3091 143.045 23.2598L142.282 23.9052C143.357 25.178 144.743 25.824 146.403 25.824V24.824ZM148.812 23.8552C148.13 24.5052 147.335 24.824 146.403 24.824V25.824C147.594 25.824 148.636 25.4049 149.502 24.5789L148.812 23.8552ZM149.63 25.0702L149.657 24.2332L148.657 24.2009L148.63 25.0379L149.63 25.0702ZM149.373 24.878C149.388 24.878 149.424 24.8805 149.47 24.9009C149.519 24.9226 149.561 24.9569 149.591 24.997C149.644 25.0677 149.63 25.114 149.63 25.054H148.63C148.63 25.2101 148.657 25.4183 148.791 25.597C148.945 25.8028 149.17 25.878 149.373 25.878V24.878ZM146.673 24.338C146.348 24.338 146.014 24.2267 145.662 23.9645L145.065 24.7666C145.559 25.1344 146.098 25.338 146.673 25.338V24.338ZM147.888 23.9366C147.523 24.2061 147.124 24.338 146.673 24.338V25.338C147.338 25.338 147.947 25.1369 148.482 24.7405L147.888 23.9366ZM148.582 22.9985C148.482 23.3456 148.263 23.6587 147.888 23.9366L148.482 24.7405C149.007 24.3523 149.373 23.8645 149.543 23.2756L148.582 22.9985ZM148.765 17.683C148.765 19.2646 148.748 20.5041 148.715 21.404C148.698 21.8543 148.677 22.215 148.653 22.4888C148.628 22.7738 148.601 22.9323 148.582 22.9985L149.543 23.2756C149.591 23.1077 149.624 22.8635 149.649 22.577C149.676 22.2794 149.697 21.8998 149.714 21.4411C149.748 20.523 149.765 19.2694 149.765 17.683H148.765ZM148.303 14.669C148.415 14.8131 148.54 15.112 148.63 15.6409C148.718 16.156 148.765 16.8339 148.765 17.683H149.765C149.765 16.8041 149.717 16.0645 149.616 15.4726C149.517 14.8946 149.359 14.397 149.093 14.0551L148.303 14.669ZM146.835 13.944C147.433 13.944 147.912 14.1757 148.306 14.673L149.09 14.0511C148.512 13.3243 147.749 12.944 146.835 12.944V13.944ZM144.947 15.2041C145.455 14.316 146.08 13.944 146.835 13.944V12.944C145.646 12.944 144.723 13.5801 144.079 14.708L144.947 15.2041ZM144.149 19.006C144.149 17.3638 144.43 16.1097 144.947 15.2041L144.079 14.708C143.444 15.8183 143.149 17.2642 143.149 19.006H144.149ZM144.863 22.9636C144.393 21.8902 144.149 20.5761 144.149 19.006H143.149C143.149 20.6759 143.409 22.1338 143.947 23.3644L144.863 22.9636ZM145.662 23.9645C145.309 23.7013 145.043 23.3692 144.862 22.961L143.948 23.3671C144.199 23.9309 144.572 24.3998 145.065 24.7666L145.662 23.9645Z" fill="black"/>
</g>
<path fill-rule="evenodd" clip-rule="evenodd" d="M99 30H154V34H100.539L99 30Z" fill="#C7E3DD"/>
<defs>
<filter id="filter0_d_1_628" x="84.852" y="5.22388" width="72.909" height="28.6542" filterUnits="userSpaceOnUse" color-interpolation-filters="sRGB">
<feFlood flood-opacity="0" result="BackgroundImageFix"/>
<feColorMatrix in="SourceAlpha" type="matrix" values="0 0 0 0 0 0 0 0 0 0 0 0 0 0 0 0 0 0 127 0" result="hardAlpha"/>
<feOffset dy="4"/>
<feGaussianBlur stdDeviation="2"/>
<feComposite in2="hardAlpha" operator="out"/>
<feColorMatrix type="matrix" values="0 0 0 0 0 0 0 0 0 0 0 0 0 0 0 0 0 0 0.25 0"/>
<feBlend mode="normal" in2="BackgroundImageFix" result="effect1_dropShadow_1_628"/>
<feBlend mode="normal" in="SourceGraphic" in2="effect1_dropShadow_1_628" result="shape"/>
</filter>
</defs>
</svg>
