<svg width="92" height="92" viewBox="0 0 92 92" fill="none" xmlns="http://www.w3.org/2000/svg">
<path fill-rule="evenodd" clip-rule="evenodd" d="M85.2547 5.56752C85.2547 5.61489 85.2192 5.56752 85.2192 5.56752L85.2547 5.46602C85.2547 5.52016 85.2914 5.56752 85.2547 5.56752Z" fill="white"/>
<path fill-rule="evenodd" clip-rule="evenodd" d="M83.5122 8.75875C83.5478 9.00385 83.4733 9.29933 83.3231 9.35046C83.1695 9.44594 83.0589 9.44594 82.9471 9.39482C82.7969 9.24896 82.7241 9.04821 82.7992 8.85423C82.8376 8.65349 82.9884 8.4565 83.1746 8.45951C83.3254 8.45951 83.4778 8.60913 83.5122 8.75875Z" fill="white"/>
<path fill-rule="evenodd" clip-rule="evenodd" d="M28.3146 29.0331C27.413 29.4722 26.8788 30.6496 26.6874 31.7819C26.4954 32.915 26.6031 34.0984 26.7114 35.2849C27.0055 37.06 27.3373 38.8352 28.3467 40.2735C28.6447 40.6682 29.1325 40.7735 29.5469 40.5757C29.9235 40.3344 30.3012 39.8442 30.3041 39.2525C30.2313 38.7592 30.0828 38.263 29.857 37.8172C29.3727 37.1239 29.1491 36.236 29.0786 35.3488C29.0448 34.315 29.3113 33.43 29.6535 32.5932C29.9206 31.709 30.1877 30.4744 29.7779 29.5361C29.4432 28.9444 28.8436 28.788 28.3146 29.0331ZM30.3304 29.294C30.5172 29.7391 30.6261 30.2323 30.5877 30.7767C30.5098 31.5624 30.2427 32.3007 30.0146 33.039C29.787 33.627 29.5979 34.2187 29.5927 34.9097C29.5159 35.7465 29.7383 36.5352 30.1481 37.181C30.5579 37.9224 30.9316 38.7622 30.7792 39.7486C30.6233 40.5855 29.9808 41.32 29.3428 41.514C28.2876 41.6546 27.5047 40.3659 26.9441 39.3284C26.6845 38.7336 26.4621 38.0908 26.2775 37.4006C25.8333 35.6728 25.6539 33.7007 25.8849 31.7789L26.1147 30.8947C26.4575 29.8602 27.0633 28.6797 27.9288 28.3429C28.3421 28.1963 28.7949 28.1008 29.2437 28.203C29.6947 28.3045 30.0318 28.7978 30.3304 29.294Z" fill="white"/>
<path fill-rule="evenodd" clip-rule="evenodd" d="M9.03951 53.5512C9.03492 54.4392 8.77011 55.1737 8.61478 56.0136C8.61478 56.5068 8.61249 56.9489 8.68528 57.3948L8.68299 58.2316C8.52709 59.0684 8.45028 60.0037 8.21929 60.8398C8.21929 60.8909 8.18318 60.8909 8.1465 60.8398L8.10809 60.5954C8.18834 59.7556 8.19063 58.8195 8.19464 57.9323C8.15911 57.4902 8.23648 57.0481 8.23935 56.5549L8.39411 55.0753C8.54715 54.5347 8.66121 53.9933 8.77756 53.4016C8.85265 53.2046 9.03951 53.4046 9.03951 53.5512Z" fill="white"/>
<path fill-rule="evenodd" clip-rule="evenodd" d="M11.2533 54.2083C11.1031 54.2053 10.9913 54.4504 10.9524 54.6C10.8377 55.0421 10.9868 55.4872 11.2097 55.8338C11.4717 55.9331 11.7359 55.7391 11.925 55.494C12.0775 55.1466 11.7382 55.0962 11.6258 54.8985L11.2533 54.2083ZM12.3497 52.9322C12.1239 52.9804 11.8957 53.2728 11.8207 53.6164C11.8935 53.966 11.7794 54.4051 12.1164 54.5547C12.2672 54.657 12.4173 54.5577 12.5675 54.4119C12.7567 54.1194 12.7951 53.7247 12.7223 53.33C12.6867 53.13 12.536 52.9322 12.3497 52.9322ZM13.0627 52.9352C13.3241 53.3329 13.3585 53.9728 13.1693 54.4149C12.9802 54.7615 12.7521 55.2043 12.4145 55.1502C12.301 55.4457 12.3371 55.7893 12.1119 55.9863C11.7336 56.2795 11.3209 56.5246 10.8698 56.3238C10.5328 56.1231 10.3459 55.6306 10.3488 55.1374C10.3866 54.5457 10.6153 54.0998 10.9162 53.7593L11.2555 53.6134L11.2945 53.2187C11.486 52.7285 11.862 52.436 12.2769 52.439C12.5773 52.439 12.8759 52.5886 13.0627 52.9352Z" fill="white"/>
<path fill-rule="evenodd" clip-rule="evenodd" d="M10.1601 55.1838C10.1555 56.6124 9.73536 57.8439 9.54392 59.1732L9.34732 61.2927C9.34502 61.6363 9.30605 61.9799 9.19256 62.2754C9.00513 62.3265 8.93004 62.1258 8.85496 61.9762L8.81885 61.7311C8.82343 60.5987 8.8647 59.5138 9.09512 58.48C9.24816 57.6943 9.62588 57.0033 9.7067 56.1665C9.78178 55.7755 9.74739 55.2793 9.93368 54.9387C10.0483 54.8402 10.124 54.9868 10.1601 55.1838Z" fill="white"/>
<path fill-rule="evenodd" clip-rule="evenodd" d="M11.8829 56.7256C11.8021 58.103 11.4215 59.3345 11.0776 60.5623C10.8489 61.3518 10.9194 62.2871 11.0673 63.0788C11.1046 63.2766 11.1791 63.4736 11.1401 63.6705C11.0289 63.7187 10.8782 63.7187 10.8403 63.569C10.5807 62.6818 10.36 61.7909 10.4764 60.7563C10.7062 59.2804 11.5024 58.1511 11.6961 56.6241C11.6961 56.4263 11.8829 56.6241 11.8829 56.7256Z" fill="white"/>
<path fill-rule="evenodd" clip-rule="evenodd" d="M34.4241 58.457C34.2327 58.651 33.9323 58.9472 33.9323 59.3382C34.0406 59.6848 34.1885 60.2322 34.5284 60.3306C34.9044 60.3818 35.1686 59.987 35.3578 59.6472C35.5108 59.2555 35.2489 58.9059 35.2122 58.5585C35.0253 58.263 34.686 58.4089 34.4241 58.457ZM33.7208 55.3488C33.4927 55.6887 33.4537 56.2812 33.6045 56.6751C33.7134 56.9744 33.9025 57.2706 34.126 57.318C34.4264 57.3721 34.6184 57.0285 34.7691 56.7323C34.9583 56.3383 34.8849 55.797 34.6986 55.4503C34.5112 55.0052 33.9489 55.0052 33.7208 55.3488ZM35.1858 55.7014C35.4088 56.2458 35.293 56.9841 35.0282 57.4232C34.9892 57.6713 35.2535 57.6713 35.3658 57.8239C35.6633 58.3171 35.8868 58.9592 35.771 59.6502C35.7315 59.9938 35.6541 60.3848 35.3916 60.5825C35.0523 60.8269 34.6018 61.1201 34.2252 60.8208C33.7764 60.5727 33.5534 59.978 33.5167 59.3893C33.4084 58.8961 33.5219 58.3517 33.8618 57.9608C33.8618 57.7638 33.636 57.76 33.5632 57.563C33.1872 57.0668 32.9275 56.4239 33.0806 55.6856C33.1579 55.342 33.272 55.0465 33.4978 54.8526C33.7621 54.6578 34.1019 54.5593 34.4 54.6578C34.776 54.8112 35.074 55.2089 35.1858 55.7014Z" fill="white"/>
<path fill-rule="evenodd" clip-rule="evenodd" d="M36.6697 60.7398C37.1552 61.4812 37.3392 62.3721 37.6739 63.1608L37.8974 63.9503C38.1198 64.4969 38.3434 65.0886 38.7561 65.439C39.0541 65.8337 39.4295 66.2314 39.6531 66.6765C39.6531 66.8231 39.6147 66.972 39.5751 67.0682C39.1636 67.0682 38.9016 66.6698 38.6001 66.3231C37.9284 65.4803 37.4045 64.5382 37.1093 63.4533C36.8514 62.318 36.5562 61.2331 35.9957 60.291L36.0323 60.1414C36.2966 60.2436 36.4829 60.4917 36.6697 60.7398Z" fill="white"/>
<path fill-rule="evenodd" clip-rule="evenodd" d="M77.85 62.4039C78.4489 63.2468 78.747 64.2332 78.7034 65.4167C78.665 65.8114 78.4759 66.2024 78.5842 66.6482C78.7298 67.4881 79.1786 68.1309 79.5529 68.7737C79.5529 68.8722 79.5529 68.9226 79.5156 68.9707C78.9143 68.4264 78.2816 67.682 78.058 66.7437C77.9497 66.0535 78.289 65.5122 78.1795 64.8219C78.034 63.8325 78.0001 62.849 77.4012 62.1047C77.4012 62.0062 77.4396 61.9551 77.5124 61.9077C77.6631 62.0092 77.7382 62.2543 77.85 62.4039Z" fill="white"/>
<path fill-rule="evenodd" clip-rule="evenodd" d="M35.4165 63.9843C36.0905 64.7798 36.7628 65.5722 37.3228 66.4625C37.6965 67.1564 38.1447 67.7038 38.7076 68.0978C39.1558 68.2511 39.5685 68.6962 39.9812 69.0428C40.054 69.1925 40.168 69.3894 40.0924 69.5872C39.8671 69.4376 39.7169 69.2398 39.4905 69.1383C38.8171 68.7887 38.0651 68.6865 37.5045 67.9932C37.0173 67.4459 36.6826 66.7557 36.4229 66.1098C36.0492 65.3685 35.5248 64.6775 35.1155 63.9813C35.1545 63.7836 35.3414 63.8858 35.4165 63.9843Z" fill="white"/>
<path fill-rule="evenodd" clip-rule="evenodd" d="M9.55785 64.7942C9.40768 64.8897 9.40768 65.1379 9.40482 65.3318C9.40482 65.5326 9.55556 65.5799 9.63064 65.6822C9.85418 65.7326 10.1545 65.7326 10.3075 65.5356C10.4187 65.4401 10.346 65.2905 10.3075 65.1439C10.1958 64.7973 9.82208 64.6476 9.55785 64.7942ZM10.7615 64.8011C10.836 65.0011 11.0234 65.1981 10.9455 65.4943C10.832 65.8853 10.4915 66.1304 10.1906 66.1785C9.73953 66.3213 9.36353 66.0732 9.10445 65.6281C8.95371 65.2808 9.03166 64.7883 9.14572 64.4447C9.37384 64.1011 9.74927 64.1552 10.0863 64.2056C10.3488 64.2567 10.5741 64.5522 10.7615 64.8011Z" fill="white"/>
<path fill-rule="evenodd" clip-rule="evenodd" d="M76.4462 65.6967C76.3321 65.8434 76.3321 66.0403 76.3688 66.2885C76.4049 66.4313 76.48 66.6351 76.6307 66.6832C76.7419 66.6832 76.856 66.6862 76.9333 66.5366C77.0067 66.39 77.0841 66.1418 77.009 65.9449C76.9362 65.6012 76.633 65.4997 76.4462 65.6967ZM77.346 66.0462C77.3821 66.3424 77.3798 66.6379 77.2681 66.883C77.0789 67.0808 76.8898 67.2266 76.6668 67.2236C76.4026 67.1251 76.1017 66.877 76.0679 66.4823C75.9567 66.1868 76.0679 65.8906 76.1453 65.6424C76.2616 65.3973 76.4851 65.3019 76.6743 65.2545C77.0864 65.159 77.2005 65.7026 77.346 66.0462Z" fill="white"/>
<path fill-rule="evenodd" clip-rule="evenodd" d="M52.7699 66.1236C52.7338 66.3717 52.469 66.4672 52.3916 66.7153C52.011 67.8957 52.3062 69.2761 52.9419 70.1197L53.2795 70.6159C53.1287 70.7114 52.9029 70.6603 52.7888 70.6603C52.3016 70.6573 52.1561 69.916 51.9302 69.4709C51.6706 68.4844 51.7514 67.2499 52.2048 66.419C52.3572 66.2702 52.508 66.0221 52.7338 66.0762L52.7699 66.1236Z" fill="white"/>
<path fill-rule="evenodd" clip-rule="evenodd" d="M59.1761 70.5588C59.101 70.6573 58.9893 70.7528 58.9503 70.8994C59.026 70.9497 59.14 70.9497 59.2122 70.9024C59.2122 70.8039 59.2925 70.6061 59.1761 70.5588ZM44.5219 70.1608L44.4468 70.3105C44.3718 70.5044 44.1849 70.6029 44.1436 70.848C44.3328 70.8991 44.6337 70.9976 44.7472 70.7525C44.7088 70.5586 44.6721 70.3105 44.5219 70.1608ZM15.2886 69.8616C15.2496 69.8143 15.1745 69.712 15.1378 69.8105C15.0994 70.1549 14.908 70.4473 14.7211 70.6955C14.6455 70.7428 14.6822 70.8421 14.7572 70.8421C14.908 70.8451 15.0582 70.8925 15.1728 70.6985C15.2473 70.4504 15.3224 70.1579 15.2886 69.8616ZM13.2224 69.7476C13.1083 69.8461 12.9576 69.9927 12.9576 70.1423C12.9942 70.2882 13.067 70.4859 13.1811 70.5363C13.3313 70.5363 13.5565 70.6889 13.6683 70.4919C13.7434 70.3423 13.7462 70.1453 13.7072 70.0468C13.7095 69.6995 13.4086 69.6521 13.2224 69.7476ZM84.6237 69.6452C84.548 69.6933 84.3956 69.7444 84.4707 69.8903L84.9561 70.8324C85.0312 70.8835 85.0696 70.8324 85.1063 70.7842C85.2198 70.4888 85.3367 70.1452 85.2227 69.7986C85.0358 69.6963 84.8129 69.6489 84.6237 69.6452ZM86.5392 69.6106C86.4618 69.9061 86.6876 70.0557 86.6876 70.3039C86.7627 70.5016 86.6848 70.8926 86.9496 70.9437C87.2115 70.7016 87.2115 70.2084 87.2138 69.7633C87.1433 69.3686 86.726 69.5633 86.5392 69.6106ZM59.8209 69.331C59.7097 69.3783 59.5567 69.4264 59.5957 69.6234C59.6295 70.0685 59.7046 70.4632 59.7023 70.9053C59.814 71.0038 59.9281 70.9053 60.0422 70.8068C60.3041 70.4663 60.3454 69.8745 60.2359 69.4295C60.1218 69.2317 59.935 69.4768 59.8209 69.331ZM58.2814 69.2669C58.2424 69.2669 58.2057 69.318 58.2057 69.3684L58.2785 70.0556L58.2012 70.845L58.2373 70.8954C58.4608 70.7969 58.6133 70.5044 58.7273 70.2563C58.7273 69.9639 58.8053 69.6676 58.7296 69.4195C58.6184 69.2699 58.4316 69.2699 58.2814 69.2669ZM43.6633 69.1685C43.6243 69.3143 43.6994 69.3655 43.6994 69.464C43.8112 69.7121 43.6582 70.1549 43.8473 70.3038C44.1093 70.1068 44.2233 69.7158 44.2262 69.3211C44.1144 68.9745 43.8502 69.07 43.6633 69.1685ZM14.4277 68.7708C14.277 68.9174 14.0517 68.9677 14.0488 69.2098C14.1996 69.5091 14.3108 69.7572 14.4592 70.0527L14.5343 70.1038C14.6845 69.8587 14.6507 69.464 14.614 69.1174C14.5779 69.0189 14.5779 68.7196 14.4277 68.7708ZM15.5918 68.7768C15.4778 69.0249 15.6669 69.2226 15.703 69.4196C15.7758 69.6677 15.7007 70.0113 15.8125 70.2594C15.8486 70.2594 15.8876 70.2121 15.9237 70.1609C16.1157 69.8173 16.2297 69.3753 16.118 68.9294C16.0429 68.6339 15.742 68.7294 15.5918 68.7768ZM88.6473 68.9362C88.4943 68.9836 88.4582 69.1813 88.3831 69.3309C88.2301 69.77 88.7562 69.8745 88.829 70.3166C88.8651 70.4662 88.829 70.6602 88.9769 70.7625C89.2411 70.5685 89.13 70.0241 89.1322 69.6805C88.9844 69.4294 88.8703 69.082 88.6473 68.9362ZM44.7959 67.994C44.6818 67.994 44.5678 68.188 44.5317 68.3346C44.4927 68.5316 44.4904 68.8279 44.6016 68.9775C44.9392 69.1775 45.0527 69.6233 45.2762 69.9188C45.3513 69.8715 45.3513 69.6745 45.3903 69.5722C45.3926 68.9331 45.1696 68.3888 44.7959 67.994ZM51.0509 63.3522C50.9397 63.4033 50.8256 63.4988 50.7867 63.6484C50.6365 63.9409 50.8984 64.189 51.0125 64.4379C51.0847 64.4882 51.2355 64.4882 51.3105 64.3424C51.4607 64.1446 51.4636 63.8011 51.3908 63.5529C51.3157 63.4033 51.2016 63.3522 51.0509 63.3522ZM54.667 61.2589C54.5168 61.307 54.3667 61.501 54.3277 61.698C54.1746 62.0446 54.4005 62.4393 54.5484 62.7355C54.6624 62.834 54.847 62.8882 55.0384 62.7897C55.2276 62.6904 55.2637 62.3979 55.3049 62.1498C55.3049 61.8536 55.2665 61.6055 55.1158 61.4085C54.9679 61.2589 54.8177 61.2589 54.667 61.2589ZM55.4602 60.2754C55.3829 60.4762 55.3462 60.6732 55.3829 60.8679C55.572 61.0679 55.6448 61.4626 55.9067 61.4626C56.0569 61.4656 56.2461 61.3672 56.324 61.1732C56.3968 60.8739 56.2484 60.6258 56.2145 60.3333C56.0254 60.0852 55.6494 60.0815 55.4602 60.2754ZM31.609 57.6004C31.3832 57.4507 31.194 57.7462 31.0439 57.941C30.8163 58.2845 31.0026 58.7296 31.1505 59.0762C31.3012 59.3214 31.4491 59.8176 31.7494 59.7221C31.9386 59.5762 32.1254 59.4296 32.2034 59.1815C32.3559 58.7394 32.0188 58.3921 31.9071 57.9981L31.609 57.6004ZM36.3021 71.0234C36.615 71.0234 36.654 70.9212 36.5153 70.7467C35.9186 69.9543 35.3197 69.1618 34.8709 68.2716C34.425 67.1326 33.8283 66.095 33.2706 64.9559C32.5232 63.7183 31.7402 62.4808 30.9928 61.1958C30.5807 60.553 30.1342 59.9575 29.9502 59.2162C29.5037 57.7305 29.7731 55.914 29.5158 54.3328C29.4453 53.0983 28.9994 52.0615 28.2886 51.2179C27.8398 50.7728 27.3526 50.3239 26.7898 50.2224C25.5844 51.151 24.4152 51.9818 23.0596 52.4652C22.3466 52.7547 21.406 52.5036 20.8764 53.4359C20.348 54.2216 19.7438 54.9561 19.0646 55.4945C18.0094 56.3245 16.8069 56.7095 15.6015 56.9989C15.3396 57.0433 15.0748 57.1388 14.8495 57.3365C14.2065 58.3673 13.6367 59.4455 13.2584 60.6289L12.989 62.2041C12.9867 62.4492 12.8727 62.7958 13.0234 62.9928C13.4717 63.2447 13.9594 63.4447 14.3354 63.8394C14.9344 64.3356 15.3052 65.1785 15.5649 65.9679L15.7517 66.0694C16.5037 66.3687 16.9525 67.3107 17.2093 68.1979C17.3961 69.0378 17.1657 69.8746 16.9376 70.6129C16.9376 70.7114 16.8923 70.9723 17.0035 71.0234H36.3021ZM67.2234 50.3523C65.0723 53.3462 62.9184 56.3372 60.5758 59.083C59.3676 60.4062 58.1605 61.7776 56.9522 63.0498C56.9156 63.0979 56.8766 63.1964 56.9522 63.2949C57.3254 63.3971 57.7037 63.5468 58.0023 63.8934C58.713 64.4911 59.1228 65.4806 59.3435 66.467L59.9448 66.7181C60.358 66.9189 60.5827 67.5106 60.6899 68.0549C61.102 68.6466 61.3272 69.3369 61.2086 70.1256C61.1673 70.4248 61.0435 70.7752 61.0412 71.0233H78.8994L78.8289 70.8895C78.4942 70.2977 78.0093 69.9481 77.5582 69.5504L77.0343 68.7579L76.8114 68.7549C76.3941 68.9489 75.8313 68.9451 75.4965 68.497C74.9337 67.8572 74.8638 66.8677 74.6402 65.9805C74.3834 65.2392 74.3106 64.4498 74.2012 63.6099C74.0877 62.9671 74.1674 62.2295 74.0195 61.6378C73.8716 61.1919 73.7965 60.6483 73.5735 60.2536C72.5304 58.1762 71.4488 56.1492 70.2916 54.1673C69.3556 52.8312 68.4242 51.4944 67.3375 50.4004L67.2234 50.3523ZM19.596 48.2495C19.0698 48.0495 18.4296 47.9954 17.9418 48.2879C17.0007 48.8736 16.506 50.1014 16.1638 51.2818C15.8583 52.5607 15.589 53.8427 15.4342 55.2208C15.4313 55.3193 15.5093 55.4178 15.5844 55.469C16.1833 55.6216 16.7852 55.3765 17.3136 55.1344C17.9154 54.8419 18.4439 54.4028 19.0091 53.9637C19.9525 53.2322 20.6707 52.0006 20.7503 50.6232C20.7165 49.8848 20.5686 49.1435 20.0809 48.6473L19.596 48.2495ZM46.1514 71.0233H49.877L49.8965 70.8384C49.8965 70.6414 49.8214 70.4444 49.7824 70.1963C49.5984 69.5535 49.7922 68.8663 49.9424 68.2745C49.7561 67.6828 49.5325 67.037 49.5738 66.3017C49.5761 65.955 49.7291 65.6588 49.6174 65.3122C49.5423 65.0167 49.3193 64.819 49.3193 64.4754C48.9118 62.9927 49.1055 61.1221 49.7509 59.8432C50.8497 57.5846 52.1737 55.4237 53.1974 53.114C53.954 51.4945 54.4125 49.675 55.3972 48.2021C55.5113 48.0044 55.6591 47.8585 55.6591 47.6608C55.1353 47.7059 54.7214 47.9983 54.2669 48.0938C53.367 48.5329 52.4265 48.7713 51.4853 48.9111C50.4714 49.1021 49.4185 49.0961 48.3661 49.0389C47.9151 49.0352 47.5391 48.9337 47.1269 48.8825L45.3971 48.6728C44.272 48.5171 43.183 48.2149 42.055 48.1577C41.0416 48.0525 40.1417 47.6006 39.2029 47.1999C39.1278 47.2472 39.1278 47.3968 39.1278 47.4991C39.0865 48.3833 38.9702 49.2201 38.628 49.9073C38.5094 51.9276 38.1987 53.8493 37.6674 55.5703C37.9637 56.6553 37.9952 57.8387 38.1408 58.9778L38.6595 60.804C39.0332 61.7424 39.4041 62.7288 40.0397 63.5243C40.9419 63.5303 41.9581 63.4386 42.7078 64.0363C43.1927 64.3829 43.5297 65.0769 43.8645 65.6686C44.166 65.8693 44.4657 65.9708 44.7254 66.2671C45.5868 67.161 46.4477 68.3986 46.2145 69.9768C46.2122 70.3166 46.0253 70.5647 46.0981 70.8609L46.1514 71.0233ZM57.8808 47.2795L57.3523 47.6231C56.5252 48.2561 56.1441 49.3884 55.6494 50.3208C54.8567 51.8418 54.2113 53.4643 53.5659 55.0898C52.8071 56.8589 51.7473 58.4273 50.915 60.098C50.5734 61.0333 50.1562 61.9175 50.1149 62.9994C50.1126 63.2986 50.1487 63.5941 50.2628 63.7911C50.4106 63.7437 50.2989 63.4956 50.3768 63.346C50.488 63.152 50.6411 62.955 50.8279 62.9099C51.0532 62.7641 51.2813 62.8595 51.5043 63.0122C51.8029 63.2603 51.8029 63.7024 51.8367 64.1475C51.8367 64.4437 51.6865 64.7873 51.4584 64.9339C51.1942 64.9813 50.8594 64.8798 50.8182 65.3249C50.4376 66.1587 50.6216 67.294 50.9959 68.0354C51.1093 68.3316 50.8812 68.5286 50.8422 68.7737C50.7259 69.5631 50.7866 70.5173 51.3954 71.0233H54.8275L54.8155 70.8706C54.7083 70.0849 54.8613 69.3428 55.1645 68.7549C54.9416 68.4557 54.8659 68.0609 54.7908 67.7173C54.718 67.2241 54.8711 66.8805 55.0602 66.5369C55.172 66.3873 55.286 66.2414 55.4362 66.2888C55.4362 66.4895 55.286 66.5369 55.2476 66.7346C55.1691 67.1256 55.2809 67.5715 55.3926 67.9181C55.4654 68.2166 55.6529 68.4617 55.7274 68.7579C55.7274 68.8564 55.5766 68.9549 55.5382 69.0534C55.3491 69.6902 55.4895 70.5714 55.7904 71.0233H57.3523C57.5655 70.9917 57.6383 70.5969 57.675 70.3488C57.7885 69.906 57.5655 69.4609 57.6796 69.0188C57.7937 68.9203 57.9438 68.7737 57.9461 68.5767C57.9828 68.2805 57.6842 68.1308 57.573 67.9339C57.4228 67.8316 57.236 67.8316 57.1219 67.6346C57.0124 67.1895 56.9763 66.6963 56.7505 66.3497C56.6003 66.2001 56.4158 66.1016 56.2266 66.1016V66.0504C56.4158 65.8053 56.7167 65.8565 56.9786 65.958C57.3523 66.3046 57.5392 66.897 57.687 67.3895C58.1014 67.5903 58.4752 68.0865 58.6207 68.6308L59.2587 68.9804C59.4111 68.7835 59.5642 68.5384 59.6759 68.3444C59.4501 67.9466 59.1521 67.797 58.8122 67.6955C58.4774 67.5933 58.4774 67.0527 58.4413 66.658C58.2957 65.7196 57.5827 65.0738 56.9448 64.8219C56.4937 64.7204 56.0059 64.6189 55.5549 64.8129C55.407 64.8129 55.2906 65.0099 55.1427 65.0069C54.992 64.3197 55.2201 63.6295 55.5256 63.0881C55.7514 62.6941 56.0157 62.449 56.2048 62.0573C56.0936 62.0099 55.9045 62.0062 55.7927 62.1017C55.6397 62.449 55.6013 62.84 55.3365 63.1332C55.0722 63.4287 54.6212 63.3776 54.3615 63.1776C54.0583 62.9295 53.8353 62.5347 53.7264 62.14C53.6508 61.5964 53.9179 61.2047 54.1431 60.8107C54.369 60.616 54.6722 60.5686 54.9341 60.4731C54.9731 60.225 55.0843 60.0273 55.2373 59.8333C55.5015 59.5378 55.9137 59.4935 56.2535 59.6423C56.4765 59.792 56.5906 60.1356 56.6634 60.4318C56.7362 60.928 56.6221 61.4686 56.394 61.8603H56.4329L57.7524 60.5904L60.4686 57.4537C61.9434 55.6372 63.3769 53.7756 64.815 51.8636C65.3801 51.0779 66.0232 50.2952 66.4789 49.3599C66.4038 49.2614 66.292 49.0606 66.1396 49.0606C65.1961 50.3365 64.102 51.4628 63.1195 52.6876C62.0259 53.865 60.8544 55.1883 59.7218 56.4131C59.0042 57.1958 58.4001 58.1792 57.6091 58.8634C57.3426 59.0574 57.0417 59.401 56.7046 59.2514C56.7046 59.0063 56.7436 58.707 56.7069 58.4115C56.6393 57.2755 56.794 56.1935 56.9471 55.1597C57.3254 54.0304 57.6698 52.847 58.0504 51.6696C58.3198 50.2922 58.5502 48.911 59.0816 47.6832C59.1205 47.5336 59.2317 47.3908 59.1589 47.2411C58.7056 47.2381 58.2568 47.184 57.8808 47.2795ZM63.969 47.1743C63.217 47.2667 62.4627 47.3622 61.7107 47.4066C61.2229 47.4036 60.6968 47.3013 60.248 47.3968C59.1177 48.275 59.1469 50.0471 58.8391 51.5268C58.4219 52.4591 58.2304 53.4959 57.8882 54.4282C57.6217 55.1666 57.4349 55.9523 57.3907 56.7921C57.35 57.1868 57.3134 57.6259 57.4228 57.9244C58.6695 56.7507 59.8405 55.1824 61.0097 53.8583C61.427 53.2704 62.0305 52.7802 62.4845 52.1441C63.127 51.3614 63.84 50.6231 64.4831 49.8404C64.8247 49.3502 65.2374 49.0065 65.504 48.466C65.1669 47.9697 64.8322 47.6261 64.4952 47.1299C64.3083 47.0314 64.1192 47.1231 63.969 47.1743ZM34.7328 46.8751C34.1315 47.0187 33.7143 47.8548 33.6369 48.5931C33.4036 50.3179 34.1121 51.7525 35.0847 52.793C35.6447 53.4863 36.3216 53.7885 36.8065 54.6291H36.9183C37.2989 53.5472 37.3791 52.3156 37.5345 51.0848C37.5368 50.3938 37.7282 49.557 37.4685 49.0134C36.8335 47.8774 35.9359 46.5887 34.7328 46.8751ZM71.8684 45.3067C71.2281 45.7458 70.8086 46.6811 70.8057 47.6646C70.7622 49.3886 71.3198 50.8231 72.0283 52.1118C73.0348 54.0404 74.2304 55.8726 75.2759 57.753H75.3509C75.2759 57.1613 75.1303 56.6681 75.0219 56.1238C74.6116 54.4952 73.6773 53.105 73.0835 51.6254C72.7877 50.8329 72.2633 50.0916 72.4186 49.0548C72.5304 48.7112 72.8313 48.5172 73.1706 48.5202C73.9587 48.7239 74.3662 49.8593 74.815 50.6998C75.5596 52.5291 76.0009 54.5554 76.9713 56.2862C77.4201 57.2252 77.7915 58.2109 78.4266 59.0064C78.6518 59.353 78.8754 59.7477 79.2124 59.9958C79.0645 59.1087 78.6547 58.3673 78.4724 57.4794C78.0265 55.7997 77.5823 54.0719 77.0613 52.3923L76.4331 50.4164C75.802 48.2909 74.6064 46.2105 73.0325 45.1188C72.6588 45.0173 72.2054 45.0616 71.8684 45.3067ZM50.2628 44.5652C49.8891 44.4637 49.5085 44.7081 49.1331 44.8036L49.0574 44.9028C49.3944 45.2013 49.8845 45.1539 50.2966 45.2554C50.4857 45.2592 50.5998 44.9629 50.6749 44.8133C50.5637 44.6163 50.3768 44.6637 50.2628 44.5652ZM51.5387 45.0683C51.4997 45.1187 51.4997 45.2179 51.5725 45.2653C52.1376 45.4179 52.7756 45.3735 53.3791 45.2781C53.6439 45.033 53.9832 44.8863 54.2452 44.5428V44.4443C53.2702 44.1931 52.2929 44.4315 51.5387 45.0683ZM62.7412 44.1075C62.3268 44.2533 62.0259 44.597 61.6837 44.8421C61.6476 44.9406 61.5358 45.036 61.6086 45.1383C61.9823 45.2879 62.3996 45.1443 62.7728 45.2909C63.1126 45.3451 63.4107 45.6917 63.8234 45.5451L63.8257 45.4466C63.5614 45.1984 63.3379 44.8548 63.1149 44.6037C62.9648 44.4541 62.8891 44.209 62.7412 44.1075ZM60.1121 43.6488C59.6977 43.8436 59.2833 44.2827 58.9045 44.5752C58.8299 44.6255 58.6786 44.7248 58.6786 44.8203C59.0936 44.9692 59.5785 45.0233 60.0302 44.9759L60.8979 44.7879L61.3519 44.2985C61.388 44.2473 61.4631 44.1518 61.388 44.1007C60.973 43.8496 60.5632 43.7511 60.1121 43.6488ZM57.2188 43.3346C56.6536 43.6271 56.1636 44.0632 55.6374 44.4541C55.6351 44.5053 55.6351 44.5526 55.6741 44.6038C56.3504 44.6579 56.9883 45.0075 57.6653 44.8135C58.1163 44.5211 58.5308 43.9805 58.909 43.5414C58.3445 43.5376 57.7449 43.582 57.2188 43.3346ZM51.4343 43C51.2452 43.0955 51.0583 43.1909 50.8692 43.0924C50.4542 43.0894 50.0421 43.2323 49.6661 43.3308C49.5544 43.3789 49.3652 43.4263 49.3652 43.5729C49.9642 44.021 50.6411 44.1233 51.318 44.0819C51.6573 44.0338 51.9192 43.7894 52.2563 43.8398C52.407 43.7443 52.5211 43.5473 52.5984 43.3503C52.5984 43.2511 52.4844 43.2481 52.4483 43.2007C52.1084 43.2007 51.7691 43.0985 51.4343 43ZM46.7728 42.9654C46.5109 42.9143 46.2466 43.0609 46.0231 43.1594L46.0598 43.2068L47.0708 43.8526C47.5586 44.1045 48.0848 44.1579 48.6109 44.209V44.1616C48.4608 43.7639 48.0848 43.9097 47.8618 43.7128C47.4858 43.512 47.1488 43.115 46.7728 42.9654ZM55.1187 42.3798L54.968 42.4783C54.4028 42.6723 53.8766 42.9655 53.3866 43.3564C53.3505 43.4046 53.2341 43.4046 53.2725 43.5031C53.7603 43.8023 54.4366 43.8053 55.0023 43.6617C55.4534 43.5188 55.8678 43.2226 56.2828 42.9332C56.3212 42.8828 56.433 42.8347 56.3579 42.7362L55.1187 42.3798ZM48.8442 42.1412C48.4315 42.1886 48.0922 42.2841 47.6795 42.23L47.076 42.3736C47.076 42.3736 47.0393 42.4239 47.076 42.4751C47.452 42.6247 47.789 42.8728 48.165 43.0728C48.3518 43.1721 48.5771 43.0285 48.8023 43.127L49.7435 42.6405L49.8965 42.4939L49.8576 42.4435C49.5205 42.3442 49.2196 42.1442 48.8442 42.1412ZM61.6241 42.0301C61.2063 42.2271 60.8303 42.5677 60.5294 42.9587V43.0098C60.9031 43.2098 61.3152 43.312 61.7302 43.4105C61.917 43.4105 62.1761 43.8594 62.3291 43.4136L61.6241 42.0301ZM49.6369 41.4572L49.4477 41.5527C49.4088 41.6038 49.4088 41.6512 49.4477 41.7023C49.7486 41.8512 50.1246 41.8068 50.4227 42.0046C50.4617 42.0046 50.5368 41.9061 50.4978 41.8579L49.6369 41.4572ZM58.9555 41.4729C58.4293 41.7623 57.9393 42.2044 57.4859 42.545C57.4859 42.6947 57.5971 42.6435 57.6722 42.6947C58.2373 42.6977 58.8363 42.8503 59.363 42.609C59.7046 42.415 60.1924 42.4654 60.5317 42.1217C60.5317 42.0744 60.6074 41.9759 60.5317 41.8766C60.0055 41.724 59.4066 41.7684 58.9555 41.4729ZM52.8311 41.2308C52.1909 41.3263 51.7009 41.718 51.1724 42.157C51.1357 42.2074 51.1357 42.2555 51.2108 42.3029C51.7714 42.5036 52.3755 42.4623 52.9767 42.6119C53.5035 42.5164 53.954 42.3255 54.4079 41.9819V41.9345C54.3328 41.7849 54.26 41.5871 54.107 41.5871C53.6949 41.4345 53.2461 41.333 52.8311 41.2308ZM56.5928 40.6173C56.2896 40.8113 55.9893 40.8587 55.725 41.0053C55.4992 41.1519 55.2734 41.2978 55.1209 41.5429C55.3829 41.8421 55.8362 41.597 56.1349 41.7467C56.4381 41.8482 56.7361 41.8993 57.0004 42.0008C57.4492 41.7083 57.9054 41.4128 58.3536 41.1233C58.3949 41.0241 58.4677 40.8752 58.3949 40.8271L57.6796 40.8241C57.3036 40.8684 56.9304 40.7669 56.5928 40.6173ZM44.0777 40.5307C43.8525 40.4804 43.5155 40.3781 43.3263 40.5721L43.5882 41.021C44.2623 41.7149 45.0091 42.2623 45.8729 42.4653C45.948 42.4653 45.9869 42.3194 45.9869 42.2202C46.062 42.0743 46.2873 42.1217 46.2901 41.9277C45.7634 41.6766 45.2395 41.3262 44.7523 40.83L44.0777 40.5307ZM45.7319 40.3435C45.6568 40.442 45.4677 40.442 45.4677 40.639C45.9165 41.0879 46.4426 41.4826 47.0032 41.6826C47.3035 41.6382 47.6434 41.5397 47.9443 41.4442V41.3931C47.4588 41.0465 46.9717 40.7473 46.559 40.3022C46.297 40.2037 45.9967 40.2954 45.7319 40.3435ZM49.642 40.1752C49.489 40.3211 49.266 40.3181 49.2248 40.5151C49.7509 40.8173 50.2771 41.1166 50.954 41.0211C51.1793 40.9226 51.3277 41.1737 51.553 41.0241C51.667 40.9286 51.8172 40.9286 51.929 40.7827C51.8952 40.582 51.7421 40.6331 51.6309 40.5346C51.5192 40.4324 51.6693 40.2384 51.5965 40.0888C50.9959 39.8407 50.2078 39.9301 49.642 40.1752ZM60.765 39.806L60.3162 40.0504C60.013 40.2451 59.6759 40.4894 59.4478 40.7857C59.5206 40.9323 59.7098 40.9323 59.821 40.9827C60.2726 41.1353 60.7965 41.2849 61.286 41.0939C61.102 40.7 60.9547 40.2511 60.8034 39.809L60.765 39.806ZM48.1403 39.6721C47.7643 39.7164 47.425 39.7645 47.088 39.9104V39.9585C47.5729 40.4066 48.138 40.7059 48.6235 41.0525C48.7347 41.0562 48.9238 41.1547 48.9989 40.9607C48.776 40.76 48.5117 40.6585 48.2859 40.5089V40.4134C48.475 40.0668 48.7783 40.1209 49.0041 39.8758C49.0402 39.8247 49.1909 39.7773 49.1153 39.6781C48.8172 39.5766 48.4412 39.5736 48.1403 39.6721ZM54.5678 39.6655C54.3397 39.6655 54.1918 39.4655 54.0027 39.4655C53.6995 39.758 53.3625 39.8565 53.0226 39.9519C52.9475 40.0001 52.7996 40.0474 52.7973 40.197C53.3963 40.6933 54.1873 40.7474 54.9387 40.7542L55.3147 40.5602C55.5038 40.3625 55.9549 40.3655 55.8443 39.873C55.8048 39.7738 55.693 39.7738 55.6179 39.7738C55.2786 39.9174 54.8659 39.8151 54.5678 39.6655ZM84.4437 71.0233C84.4053 70.7752 84.1698 70.5812 84.0947 70.3805C84.0196 70.1354 83.7554 70.1835 83.8327 69.9384C84.0219 69.397 84.3979 69.2512 84.7739 69.1076C84.8902 69.0572 85.0381 69.1076 85.1889 69.0091C85.1911 68.7136 85.1161 68.4174 84.9676 68.1693C83.9176 67.0783 82.5689 66.7723 81.4438 65.8783C81.0311 65.4806 80.6941 64.9844 80.435 64.4438C80.3622 64.046 80.0613 63.7979 80.0252 63.4032C79.9495 63.2062 79.8744 62.9581 79.9547 62.7641C79.9908 62.716 80.0275 62.8115 80.1026 62.8145C80.5513 63.5084 80.9245 64.3483 81.5211 64.8445C82.1591 65.2934 82.7609 65.7896 83.4716 65.9896C84.2598 66.3911 85.0845 66.8392 85.6835 67.7813C85.8675 68.176 85.9426 68.6211 85.9403 69.1143L85.8239 69.703L85.7122 69.9L85.6348 70.3451C85.6348 70.5902 85.4405 70.7752 85.4772 71.0233H86.3455C86.4619 70.4346 85.8216 70.1008 86.052 69.5091C86.1271 69.2128 86.353 69.0662 86.5805 68.9707C86.6923 68.7737 86.4664 68.7226 86.4303 68.573C85.9088 68.0768 85.9122 67.2399 85.574 66.6452C85.4989 66.4482 85.3872 66.3016 85.4651 66.1046C85.8388 66.2542 86.0251 66.7979 86.2486 67.1926C86.3965 67.6858 86.7335 67.9881 87.0706 68.2332C87.4804 68.7294 87.5944 69.3722 87.587 70.1098C87.6627 70.4534 87.3497 70.7752 87.5366 71.0233C87.912 70.9917 88.3029 71.179 88.4141 70.7083C88.378 70.2624 88.0799 69.8685 87.7813 69.6677C87.7423 69.273 87.9704 69.0286 88.1206 68.685V68.4873C87.9366 67.9941 87.5239 67.7941 87.1869 67.4467C86.7358 67.0497 86.4401 66.4069 86.142 65.8122C85.3556 64.4753 84.1119 65.7001 83.0979 65.3475C82.0502 64.4024 81.4558 63.0182 80.8591 61.6852C80.3376 60.4987 80.0057 59.2131 79.7094 57.88C79.3385 56.4996 79.1562 55.0169 78.8634 53.5854C78.5693 51.7621 78.0873 49.9839 77.6041 48.2531C77.345 47.3652 76.9736 46.4772 76.753 45.5359C77.129 45.0931 77.5072 44.6036 77.8494 44.066C78.567 42.8375 79.3603 41.6097 79.7409 40.1842C79.7048 39.9872 79.554 40.0826 79.4428 40.0345C79.2927 39.933 79.3311 39.5894 79.1809 39.5383C78.9918 40.13 78.9144 40.7699 78.7229 41.3134C78.3802 42.5894 77.6259 43.7187 76.7552 44.5495C76.2268 45.0397 75.5499 45.084 74.9119 45.2269C74.7618 45.278 74.5359 45.2239 74.4975 45.4209C75.4335 46.4141 75.9534 47.699 76.5518 48.8892C77.1467 50.5178 77.6288 52.2485 78.0701 53.929C78.3681 55.0139 78.6645 56.0981 78.9963 57.1387L79.1832 57.7785C79.4767 59.1116 79.9254 60.3461 80.3719 61.5837C80.3719 61.631 80.333 61.7295 80.294 61.7295C79.9209 61.5295 79.6583 61.0837 79.2852 60.8837C78.2736 59.8431 77.3382 58.6529 76.6681 57.2695C75.6977 55.338 75.1813 53.2162 74.4007 51.2373C74.1382 50.6959 73.9903 50.0501 73.5782 49.608C73.428 49.4584 73.2045 49.2584 73.0159 49.4042C72.9041 49.7005 72.974 49.996 73.0491 50.2411C73.6825 51.6283 74.4293 53.0124 75.0627 54.3996C75.4358 55.338 75.6955 56.4229 75.9161 57.4605C76.1735 59.089 76.2778 60.7657 76.3477 62.4934L76.3093 62.5408C76.0451 62.2423 76.0474 61.7995 75.9379 61.4025L75.676 60.5619C75.453 59.9702 75.1572 59.4296 74.9314 58.8311C74.5967 58.192 74.1479 57.5973 73.8499 56.9033C73.4034 55.9169 72.8044 54.9756 72.2828 54.0335C71.6861 52.9455 71.0534 51.8576 70.6069 50.62C70.3449 49.9772 70.2721 49.287 70.1265 48.596C70.0154 48.0043 70.0543 47.4126 70.134 46.8208C70.134 46.5284 70.3598 46.2803 70.3231 45.984C69.8721 46.0795 69.4961 46.3727 69.0817 46.6171C68.2546 47.1554 67.2745 47.1013 66.2995 47.1426L66.0353 47.1389C66.1465 47.384 66.3333 47.6351 66.5202 47.8329C67.3839 48.7268 68.2809 49.5193 69.0668 50.5629C70.784 52.9899 72.3533 55.5131 73.6945 58.2334C74.1794 59.4198 74.9629 60.4604 75.1475 61.8408C75.2564 62.3852 75.179 62.9769 75.1406 63.5175C75.1378 64.3581 75.3974 65.0483 75.7321 65.7415L75.8044 66.5783C75.8772 66.9257 76.064 67.3196 76.3236 67.5678C76.4767 67.67 76.7386 67.7174 76.9278 67.6219C77.3038 67.5234 77.4562 66.9858 77.5313 66.5911C77.6093 66.2956 77.5365 65.9994 77.6116 65.7039L77.7594 66.0505C77.9073 66.4956 77.905 66.9888 77.9027 67.479C77.9778 67.9753 78.1647 68.3219 78.4656 68.6685C79.2124 69.4136 79.9787 70.0812 80.5754 71.0233H82.1253L82.1373 70.912C82.1396 70.1226 81.4633 69.8715 81.1285 69.3752C81.1285 69.3271 81.0534 69.2286 81.1285 69.2286C81.5045 69.5279 81.9556 69.6294 82.3677 69.9256C82.7047 70.0782 82.9088 70.6286 83.0956 71.0233H84.4437ZM58.3634 38.7556C58.2522 38.7053 58.2155 38.9022 58.1014 39.0007C57.6503 39.1947 57.1609 39.3383 56.7459 39.7293C56.6685 39.7804 56.6324 39.8789 56.6685 39.9774C57.0439 40.127 57.4589 40.0797 57.8349 40.1331C58.286 40.1368 58.662 39.7932 59.1108 40.0413L59.751 39.5067L59.7533 39.3571C59.3412 39.0105 58.8901 38.8098 58.3634 38.7556ZM41.871 38.1009C41.796 38.1009 41.757 38.2498 41.8321 38.3452C42.1301 38.8896 42.654 39.0903 42.9916 39.5385C43.2535 39.6881 43.5544 39.7362 43.8187 39.5926C43.406 39.2934 43.183 38.8001 42.9601 38.3039C42.6591 38.0558 42.247 37.9543 41.871 38.1009ZM43.6753 37.9639C43.6002 38.0113 43.4862 37.9639 43.4495 38.0624C43.5223 38.4571 43.8599 38.7053 44.0851 39.0037C44.4199 39.4496 44.832 39.6496 45.2447 39.8503C45.5089 39.7992 45.7731 39.6564 46.0351 39.6564C46.074 39.6564 46.1858 39.6564 46.1491 39.5579C45.7003 39.112 45.2131 38.7624 44.8394 38.2181C44.5007 38.0211 44.0874 38.0173 43.6753 37.9639ZM45.5164 37.8775C45.4413 37.8775 45.4413 37.9767 45.4774 38.0271L46.0769 38.67C46.3022 38.8196 46.489 39.0677 46.7143 39.2685C47.1654 39.0234 47.6921 39.176 48.1432 39.0294L48.216 38.9339L48.1793 38.8797C47.3184 38.4346 46.4936 37.8873 45.5164 37.8775ZM56.0014 37.6551C55.4362 38.043 54.8344 38.3363 54.306 38.7784V38.8257C54.8688 39.128 55.5452 39.0806 56.1831 39.1851C56.6004 38.8423 57.0491 38.4987 57.5776 38.4032C57.5776 38.3551 57.7255 38.3077 57.6533 38.2085L57.0904 38.107C56.7144 37.9573 56.3407 37.8558 56.0014 37.6551ZM60.139 37.2888C59.61 37.4835 59.0087 37.4798 58.5938 37.97C58.7806 38.2151 59.0815 38.1707 59.3435 38.3677C59.7195 38.4692 60.0542 38.9624 60.5443 38.7714C60.5099 38.279 60.3597 37.8331 60.2869 37.2888H60.139ZM80.0928 37.4225C79.6417 37.2255 79.6755 37.9669 79.4887 38.2593C79.5592 38.5556 79.5231 38.9495 79.671 39.1473C79.8962 39.0992 79.9742 38.7082 80.1633 38.6097C80.3525 38.3165 80.3886 37.9225 80.5049 37.5751C80.4671 37.5248 80.4298 37.4767 80.4298 37.5248C80.3158 37.6736 80.1656 37.5751 80.0928 37.4225ZM42.8505 36.9746C42.6637 36.9235 42.4017 36.7738 42.1765 36.9204C42.1765 37.1648 42.3244 37.3144 42.3995 37.464C42.6614 37.5625 42.9256 37.467 43.1881 37.4167C43.2265 37.3685 43.3383 37.3715 43.2632 37.2227L42.8505 36.9746ZM43.8313 36.5859C43.7556 36.5859 43.7166 36.6851 43.7166 36.7836C43.9425 37.0791 44.0904 37.5723 44.5025 37.5249C44.5775 37.3783 44.8057 37.4325 44.8418 37.2828C44.5437 36.9363 44.1677 36.7355 43.8313 36.5859ZM57.9272 35.8445C57.287 36.0866 56.6828 36.4272 56.12 36.8663C56.0449 36.9167 56.0426 37.0122 56.0787 37.0633C56.6416 37.464 57.3569 37.4167 58.0699 37.4227C58.4849 37.0317 58.9383 36.7896 59.465 36.5956V36.4971C59.0134 36.0483 58.4534 35.9941 57.9272 35.8445ZM79.3872 35.549C79.2703 35.6948 79.1224 35.8415 79.1201 36.0384C79.1562 36.4843 79.1906 37.0249 79.3024 37.4226L79.3408 37.3715L79.6829 36.3858L79.5712 35.7941C79.5356 35.6948 79.4961 35.549 79.3872 35.549ZM58.5284 35.2565H58.5651C58.9795 35.5076 59.3922 35.7557 59.7676 36.0512C59.9161 36.1534 60.1024 36.2519 60.2915 36.2076C60.2944 35.6158 60.4107 35.0715 60.4497 34.5783C59.7338 34.5242 59.0575 34.6678 58.5284 35.2565ZM80.8545 34.5241C80.7038 34.7692 80.6654 35.1129 80.4396 35.3068C80.2114 35.1098 80.1776 34.6166 79.9547 34.3685C79.879 34.4196 79.8383 34.5655 79.8016 34.6647C79.6125 35.1068 79.9472 35.4534 79.9862 35.8955C79.9833 36.0925 80.173 36.1948 80.1702 36.3918C80.2069 36.4903 80.2458 36.6369 80.357 36.5895C80.5078 36.3918 80.5857 36.0993 80.7743 35.9527C81.0775 35.6572 81.0385 35.164 81.0798 34.7219C81.1188 34.5723 80.9709 34.1294 80.8545 34.5241ZM17.3646 33.0002L17.2895 32.9017C17.1755 32.9528 17.1004 33.1498 17.0253 33.2453C16.455 34.6708 15.9609 36.1467 15.8027 37.773C15.5334 39.497 15.5649 41.4699 15.48 43.242C15.4004 44.9187 14.9802 46.3946 14.2603 47.7216C13.239 49.6817 11.4707 49.9171 10.0034 50.7471C9.73919 50.9411 9.43828 51.1862 9.24684 51.5779C8.86855 52.1696 8.67941 52.9072 8.41231 53.5944L8.06841 55.2207C7.98817 56.4515 7.98301 57.8289 7.97842 59.162C7.93486 60.2477 7.81851 61.2777 7.66318 62.2679C7.54912 62.907 7.54396 63.5972 7.46888 64.237C7.38634 66.0565 7.03957 68.176 7.67292 69.8106C7.85691 70.3519 8.3057 70.797 8.68915 71.0233H11.6891C11.8685 70.8512 12.0261 70.9249 12.1018 70.7271C12.0651 70.5775 12.029 70.479 11.9533 70.3805C11.6914 70.0301 11.5802 69.588 11.5074 69.1429C11.4323 68.8467 11.1727 68.6971 10.9835 68.5956C10.3089 68.0039 9.2927 68.2903 8.73271 67.3994C8.28392 66.658 8.44154 65.5731 8.48052 64.6852C8.48281 64.1927 8.33493 63.7498 8.41002 63.3047C8.71322 63.4062 8.67196 63.9506 8.78372 64.2468C8.96771 64.9844 8.6645 65.7738 8.88804 66.4129C9.29786 67.3069 10.047 67.5076 10.8013 67.4152C11.3252 67.4182 11.7762 67.8129 11.9998 68.4076C12.1866 68.6557 12.4486 68.758 12.5598 69.0535C12.6715 69.2001 12.5964 69.4963 12.7443 69.5467C12.9724 69.4008 13.2728 69.3053 13.5376 69.2068L13.7267 68.9136L14.4031 68.2775C14.5171 68.1791 14.4059 68.0294 14.3303 67.8798C14.0712 67.4851 13.7313 67.1866 13.6195 66.6423C13.1369 65.6558 12.0095 65.8468 11.7499 64.6603C11.7499 64.6122 11.7888 64.5137 11.8639 64.5137C12.315 64.9085 12.7999 65.2107 13.3261 65.3603C13.7772 65.6114 14.1125 66.155 14.2237 66.7979C14.4856 66.9475 14.7842 67.1956 14.857 67.5903C14.8954 67.9339 15.0433 68.2294 15.1551 68.5287C15.3809 68.4813 15.4949 68.2836 15.6841 68.2362C15.8343 68.1377 16.0962 68.2362 16.1713 68.0422C16.2103 67.746 15.9483 67.5964 15.7976 67.3964C15.4244 67.2467 14.9734 66.9505 14.8639 66.4069C14.602 65.6656 13.9669 65.1182 13.4401 64.7716C12.9552 64.4724 12.354 64.2212 12.1305 63.4799C11.9854 62.3438 12.327 61.2619 12.5219 60.2281C12.9019 58.7522 13.6585 57.5267 14.2649 56.1974C14.5292 55.659 14.7573 55.1666 14.8713 54.6252C14.99 53.5403 15.182 52.5065 15.3734 51.523C15.7953 49.6524 16.8167 47.3938 18.5092 47.1585C19.0721 47.1104 19.5983 47.3111 20.086 47.5622C21.0243 48.2111 21.3934 49.4938 21.4634 50.7757C21.5 51.0719 21.3499 51.3674 21.4611 51.6125L22.099 51.3704C23.341 50.9855 24.5831 50.6516 25.6767 49.672C25.7151 49.6208 25.7151 49.5223 25.64 49.4742C24.966 49.172 24.328 48.6757 23.7291 48.078C22.7948 47.0374 21.8227 45.8984 21.0369 44.5623C19.8407 42.8285 19.0623 40.703 18.4685 38.5812C18.0971 37.3941 17.8398 36.1091 17.5807 34.8776L17.3646 33.0002ZM79.358 32.6378C79.2049 33.2295 79.0181 33.8212 78.7515 34.3114L78.8243 34.7565C78.8994 34.9032 78.8582 35.1986 79.0112 35.1986C79.2009 34.8077 79.3144 34.3626 79.4669 33.9235C79.656 33.5288 79.4697 33.0829 79.3941 32.6378H79.358ZM60.1946 32.4084C59.8163 32.6024 59.4042 32.6979 59.0282 32.943C58.9141 33.0415 58.725 33.1407 58.6522 33.3347C58.8752 33.4362 59.1371 33.4843 59.3629 33.6843L60.3012 33.84C60.452 33.7926 60.5271 33.9896 60.6388 33.8911C60.7162 33.5001 60.8303 33.1024 60.9076 32.7076C60.6847 32.6091 60.4566 32.4084 60.1946 32.4084ZM80.4539 31.1679C80.2286 31.4634 80.0756 31.8551 80.0005 32.2498C79.9621 32.4468 79.7724 32.4949 79.8458 32.6919L80.3329 34.0249L80.4057 34.1264C80.7089 33.6843 80.5611 32.9911 80.7863 32.5009L80.6774 31.6611C80.6407 31.5145 80.6069 31.2664 80.4539 31.1679ZM77.8276 30.3627C77.6385 30.5093 77.4516 30.6048 77.2625 30.7033V30.7988C77.4854 31.1454 77.6356 31.4927 77.8975 31.7912C77.9004 31.3973 77.9365 31.0537 78.0145 30.7101C77.9388 30.6078 77.9778 30.3627 77.8276 30.3627ZM74.854 31.4732C74.1433 30.6815 73.2434 30.1341 72.3023 30.3724C71.325 30.5634 70.5317 31.4446 69.7024 32.0807C68.6111 32.9115 67.369 33.2964 66.0519 33.5348C65.4896 33.5791 64.8878 33.6273 64.2865 33.519L62.9717 33.3152L62.8605 33.3664C62.6685 33.7573 62.4793 34.149 62.4432 34.6423C62.2466 35.8731 62.2804 37.2542 62.5767 38.3903C63.0204 40.1685 63.6509 41.9977 64.7737 43.2353C65.2981 43.7315 65.8214 44.1804 66.4623 44.3811C67.0612 44.4827 67.6625 44.3398 68.2276 44.1488C69.3189 43.6616 70.4469 43.1308 71.65 42.9398C72.2541 42.7458 72.9677 42.8504 73.6051 42.9045C73.9805 42.9045 74.3565 42.7586 74.7325 42.7135C75.1085 42.618 75.4845 42.4722 75.8267 42.1759C76.6922 41.4955 77.2235 40.3151 77.3037 39.0324C77.3083 38.0971 77.2745 37.1588 77.0899 36.3189C76.8693 34.6926 76.1247 33.2581 75.3051 32.0205L74.854 31.4732ZM78.994 30.0257C78.8049 30.3182 78.3876 30.5603 78.4266 31.0054L78.2323 32.6821L78.3417 33.1242C78.4168 33.1753 78.5286 33.3723 78.6449 33.3249C78.8702 32.6851 79.0232 31.9475 79.1757 31.2565L79.1029 30.5693C79.1029 30.3723 79.1442 30.1242 78.994 30.0257ZM79.5253 28.9921C79.409 29.6823 79.554 30.3725 79.6657 30.9672C79.7047 31.0665 79.6273 31.3078 79.7775 31.2634C80.0807 30.8176 80.1581 30.28 80.3088 29.7394L80.2383 29.1921C80.1655 28.7019 79.7483 28.944 79.5253 28.9921ZM19.2223 28.3777C18.8491 28.3296 18.621 28.8198 18.4686 29.1634C18.4267 30.0987 18.3499 31.034 17.9321 31.7724C17.9659 32.9558 18.2622 33.9422 18.3711 35.0783C18.4806 35.9181 18.7013 36.7068 18.8875 37.4993C19.1449 38.5331 19.4796 39.4714 19.7777 40.4646C20.5199 42.4879 21.7156 44.3202 22.9479 45.9525C23.6609 46.751 24.4083 47.4953 25.2325 48.0908C25.6836 48.3419 26.0934 48.6374 26.5445 48.7908C27.0713 48.7427 27.5584 48.7457 28.0485 48.6502C28.4245 48.4088 28.3907 47.8682 28.4291 47.375C28.393 46.9292 28.2061 46.4841 27.9832 46.0893C26.9377 44.5052 25.7031 43.3593 24.6943 41.7278C23.799 39.9459 23.0184 38.1166 22.6882 36.0452L22.6154 35.4535C22.4314 34.3655 22.2859 33.2836 22.0652 32.1957C21.6187 31.0085 21.3229 29.6281 20.3864 28.7815C20.0494 28.486 19.6372 28.3807 19.2223 28.3777ZM76.256 28.6733C76.1442 28.7725 75.9533 28.8199 75.9533 28.9665C76.178 29.2146 76.3649 29.4657 76.6291 29.6627C76.7042 29.4687 76.554 29.3672 76.4789 29.2687C76.4067 29.068 76.4812 28.677 76.256 28.6733ZM77.7984 28.0438L77.1948 28.6799C77.1581 29.122 77.192 29.6152 77.1146 30.013L77.153 30.1588C77.4149 30.1626 77.568 29.7205 77.8322 29.5709C77.8322 29.0776 77.8712 28.5363 77.8373 28.0438H77.7984ZM78.6667 27.7062C78.6254 27.7062 78.5887 27.7062 78.5503 27.7032C78.4025 27.8017 78.2855 27.9483 78.2855 28.1453C78.2832 28.737 78.3973 29.1829 78.395 29.7738C78.395 29.8219 78.4701 29.9204 78.5429 29.8731C78.6959 29.628 78.9189 29.431 78.9601 29.1377C78.885 28.9851 78.7343 28.9378 78.6592 28.7881C78.6231 28.6896 78.6231 28.6415 78.6592 28.543C78.6644 28.2468 78.7756 28.0024 78.6667 27.7062ZM70.8109 27.3567C70.471 27.4522 70.3209 27.8431 70.0199 27.9416C70.0199 28.0882 70.1678 28.2379 70.2819 28.2882L71.1479 27.9003C71.1479 27.8018 71.1502 27.6552 71.0728 27.6048C70.886 27.7507 70.886 27.4552 70.8109 27.3567ZM73.9324 27.0792C73.7432 27.2769 73.5174 27.4228 73.4034 27.6679L73.8544 27.7731C73.9295 27.6235 73.9685 27.3784 73.9685 27.1303L73.9324 27.0792ZM79.421 26.8725C79.1539 27.2643 79.0399 27.8049 79.1155 28.3492C79.3746 28.3996 79.6394 28.3048 79.867 28.1582C79.9037 27.9101 79.7558 27.7131 79.7168 27.4643C79.644 27.2673 79.5689 26.9718 79.421 26.8725ZM72.1687 26.6244C71.9045 26.9177 71.5629 27.2613 71.638 27.7537C71.7882 27.8049 71.975 27.8086 72.0891 27.659C72.1252 27.3628 72.2031 26.9718 72.2054 26.6244H72.1687ZM74.8007 26.1981C74.65 26.2492 74.4998 26.3958 74.4585 26.5928C74.4975 26.9875 74.4562 27.4296 74.4539 27.8244L74.4923 27.9702C74.6041 28.0213 74.6792 28.1198 74.8294 28.1198L74.8706 27.4326C74.8322 27.1845 75.1354 26.8409 74.8345 26.6439C74.7978 26.4943 74.8758 26.3477 74.8007 26.1981ZM77.6964 25.7749C77.4711 25.823 77.2063 25.9185 76.981 26.0651C76.7529 26.6568 76.7483 27.3944 76.7093 28.0854C76.7093 28.1839 76.7093 28.2824 76.7844 28.2854C77.0853 27.8906 77.3519 27.547 77.6889 27.2546L77.7279 27.1049C77.6551 26.6628 77.8058 26.2207 77.8081 25.7749H77.6964ZM76.3431 25.568C76.0789 25.8161 75.8141 26.1094 75.5498 26.3507C75.4725 27.0417 75.3223 27.6807 75.2782 28.371C75.3171 28.4702 75.3922 28.5206 75.4673 28.4702C75.6931 28.3266 75.8823 28.0311 76.1465 27.8845C76.2244 27.1462 76.2267 26.4048 76.4548 25.7176C76.4548 25.6673 76.4205 25.5206 76.3431 25.568ZM70.8591 25.1868C70.4836 25.4281 70.1025 25.7244 69.6904 25.8198C69.5769 26.2619 69.6124 26.7552 69.6124 27.2003L69.6852 27.3469C70.1363 27.2033 70.4395 26.6153 70.8155 26.2206L70.8957 25.2853L70.8591 25.1868ZM73.377 25.1544C73.224 25.2025 73.0738 25.3484 72.962 25.4476L72.7316 26.4814C72.6955 26.7769 72.6175 27.1205 72.7293 27.4198C72.9912 27.4198 73.2165 27.1243 73.4062 26.8792L73.4498 25.301L73.377 25.1544ZM69.1688 25.0274C68.9045 25.2214 68.6403 25.4665 68.3755 25.6131L68.3004 25.6605L68.8243 26.456C68.8994 26.5041 68.9745 26.7011 69.0839 26.653C69.0885 26.1124 69.1665 25.6192 69.2049 25.1259L69.1688 25.0274ZM71.8804 23.6659C71.6162 23.8629 71.4271 24.2546 71.4993 24.6967C71.3101 25.2884 71.3806 25.9282 71.3056 26.5703L71.3417 26.6688C71.4534 26.6688 71.5285 26.5229 71.6426 26.4245C71.7933 26.1793 72.0576 25.9854 71.9481 25.5906L71.9893 24.0606C71.9532 23.911 72.0673 23.6185 71.8804 23.6659ZM75.8651 23.4937C75.6737 24.035 75.4455 24.5786 75.3682 25.1673C75.3659 25.3139 75.2931 25.5109 75.441 25.565C75.7052 25.368 75.9694 25.0748 76.1952 24.7793L76.6486 24.4869L76.9157 23.7997C76.9518 23.7004 77.0636 23.5546 76.9908 23.4049C76.6148 23.4523 76.2027 23.3508 75.8651 23.4937ZM77.7038 23.411C77.4396 23.8501 77.3255 24.3433 77.1335 24.8335C77.0585 24.932 76.9857 25.1801 77.1335 25.2786L77.9996 25.0373C78.1136 24.9892 78.3366 24.8463 78.4484 25.0876C78.3733 25.7305 78.1813 26.2748 78.179 26.9109C78.218 27.0605 78.2157 27.2102 78.3297 27.2102L78.8192 26.7199C78.931 26.523 79.1952 26.3763 79.1952 26.0839C78.7126 25.1899 78.2638 24.302 77.8953 23.3606C77.8563 23.2651 77.7428 23.3606 77.7038 23.411ZM75.3389 23.0959C74.9629 23.0959 74.6236 23.3891 74.2866 23.4846L73.9444 24.2222C73.8303 24.8109 73.7501 25.4507 73.7845 26.0936C73.7845 26.1921 73.8206 26.3417 73.9369 26.2424C74.313 25.8003 74.6912 25.3109 74.9922 24.7695L75.1085 24.035C75.1859 23.7387 75.3366 23.5417 75.4117 23.1981L75.3389 23.0959ZM69.5665 22.7622C69.3774 22.8576 69.1492 22.9088 68.9647 22.8065L68.5864 23.0997C68.3972 23.2494 68.172 23.2937 67.9828 23.5418C68.019 23.9809 67.9049 24.426 67.9026 24.9193C67.9026 25.0177 67.9777 25.117 68.0528 25.117C68.5428 24.8238 69.0719 24.4328 69.4863 23.8952C69.5619 23.5516 69.5642 23.2043 69.6416 22.8607C69.6416 22.8103 69.6032 22.7622 69.5665 22.7622ZM67.0853 22.6952C66.9351 22.8419 66.707 22.8892 66.5591 23.087L67.3426 24.226L67.4538 24.2734L67.4951 23.7832C67.4951 23.6847 67.3839 23.6817 67.3083 23.6817C67.1581 23.5321 67.1948 23.2366 67.1948 22.9915C67.1971 22.893 67.236 22.6952 67.0853 22.6952ZM61.4751 22.0651C60.6119 21.9125 59.6346 21.8553 58.9554 22.5906C58.4631 23.0327 58.2762 23.7711 58.1576 24.5086C58.1186 25.05 58.1186 25.5936 58.1914 26.0868C58.5238 27.3695 59.2707 28.4604 60.1706 29.1536C61.4825 30.0514 62.8702 30.7513 64.4103 30.9611C65.2735 31.0664 66.0616 30.8716 66.8526 30.6777C67.3426 30.4393 67.8688 30.2453 68.2838 29.8536C67.949 29.1604 67.4252 28.5657 67.0876 27.8717C66.4548 26.8823 65.7441 25.9883 65.0723 25.047C64.3226 24.156 63.5007 23.3124 62.6398 22.6666C62.2638 22.4155 61.8878 22.2185 61.4751 22.0651ZM73.1999 22.0493L72.6708 22.7334C72.4043 23.3733 72.4404 24.2094 72.3264 24.9477C72.3264 24.9988 72.3631 25.0973 72.4381 25.1003C72.9259 24.7567 73.5684 24.2672 73.6458 23.4304C73.6487 22.9372 73.8378 22.5455 73.8401 22.1004L73.1999 22.0493ZM65.5865 21.7982C65.5475 21.8456 65.5475 21.8456 65.5475 21.8937C65.5842 21.9952 65.6226 22.0944 65.6599 21.9952C65.6983 21.9478 65.6983 21.7982 65.5865 21.7982ZM56.6777 22.0305V22.129C56.8284 22.0846 57.0176 22.0335 57.0927 21.7884C57.1317 21.5914 57.3936 21.4448 57.3959 21.1997C57.0199 21.0982 56.8307 21.6899 56.6777 22.0305ZM84.1531 21.4801C84.1142 21.4801 84.0775 21.3335 84.0368 21.432C83.925 21.7756 83.7748 22.1192 83.6969 22.4628C83.8086 22.6124 83.9588 22.7621 84.109 22.7621C84.1846 22.3681 84.262 21.9252 84.1531 21.4801ZM71.1113 21.1463C70.847 21.5373 70.5438 21.8297 70.3186 22.1771L70.2406 22.6154C70.0904 23.4079 69.9718 24.1936 69.8577 24.983C69.8549 25.1297 70.0079 25.1327 70.083 25.0815C70.42 24.7379 70.8373 24.3973 71.0264 23.9041C71.105 23.1184 71.07 22.2786 71.262 21.5403C71.262 21.3906 71.262 21.1463 71.1113 21.1463ZM66.7919 21.0154C66.6027 21.165 66.3746 21.3117 66.1877 21.5056L66.0714 22.4913C66.0691 22.5395 66.0691 22.641 66.1465 22.641C66.3333 22.444 66.5614 22.3928 66.7483 22.1515C67.0125 21.8049 67.5416 21.5658 67.5049 20.9741C67.2796 20.9711 67.0177 21.168 66.7919 21.0154ZM64.6866 20.853C64.7256 21.0508 64.8368 21.1012 64.9485 21.1523L64.9898 20.8087C65.0265 20.4139 64.7256 20.7575 64.6866 20.853ZM77.0034 20.6908H76.9638C76.7747 20.8404 76.6973 21.1366 76.6973 21.4321C76.5466 21.8238 76.319 22.1674 76.1683 22.5614C76.0909 22.6095 76.0909 22.7591 76.205 22.7591C76.581 22.7622 76.9931 22.8133 77.294 22.6155C77.408 22.5712 77.5582 22.5208 77.5582 22.3742L77.0034 20.6908ZM75.3486 20.4877C74.9704 20.9268 74.7061 21.4674 74.4803 21.9576C74.439 22.2531 74.2499 22.5012 74.3617 22.7463C74.8517 22.7019 75.1933 22.0147 75.7195 21.9192C75.9843 21.6741 76.2485 21.1809 76.2508 20.7388L75.3486 20.4877ZM74.0705 20.478C73.8836 20.5253 73.8447 20.7704 73.8086 20.9171C73.7673 21.114 73.5443 21.2607 73.6143 21.5088C73.7673 21.5599 73.9541 21.4606 74.1433 21.3659C74.2935 21.0697 74.5216 20.7742 74.5967 20.4298C74.4098 20.4268 74.2207 20.5253 74.0705 20.478ZM63.8836 21.4891C63.3574 21.0922 62.8335 20.7448 62.2736 20.4937C60.9564 19.8922 59.3412 20.0771 58.247 21.0568C57.3426 21.8906 56.9643 23.1695 56.731 24.4515C56.6462 26.9108 57.5776 28.9408 59.038 30.3792L59.7871 31.0243C61.3616 32.0716 63.0857 32.6761 65.0408 32.6889C65.7561 32.5964 66.5419 32.6979 67.2234 32.4054C68.4632 32.0716 69.5178 30.9453 70.6871 30.213C71.2912 29.7739 72.0042 29.6792 72.6812 29.4844L73.5466 29.5927C74.6718 30.0446 75.7195 30.9897 76.428 32.4212C76.879 33.1626 77.1364 33.955 77.4322 34.7948C77.658 35.5873 77.7669 36.373 77.8735 37.2128L77.9801 38.6444C77.9755 40.2699 77.4814 41.7466 76.4618 42.6759C75.4799 43.7029 74.129 43.6428 72.8508 43.5375C71.6477 43.5315 70.6315 44.0179 69.5786 44.4029C68.5263 44.9886 67.3203 45.5202 66.1201 45.1187C64.9921 44.6164 63.9082 43.5758 63.2365 42.1917C62.79 41.1037 62.3074 39.9646 62.0844 38.7338L61.9021 38.0399C61.6454 36.5098 61.6889 34.6392 62.2208 33.261C62.0718 33.0129 61.8076 33.1084 61.6574 33.0129L61.5067 33.058C61.2012 34.0437 61.0848 35.1768 61.0412 36.3091L61.0774 37.3467C61.1845 38.6256 61.5554 39.8631 61.9268 40.9985C62.5596 42.3826 63.2313 43.8653 64.2791 44.8104C65.2517 45.851 66.5666 46.4044 67.9198 46.0194C68.5211 45.7773 69.159 45.6344 69.7632 45.2427C70.7404 44.9029 71.6838 44.3683 72.7729 44.4254C73.6389 44.5781 74.5388 44.3871 75.4043 44.2473C76.9473 43.9134 78.1211 41.8992 78.504 40.0286C78.7321 39.1444 78.6983 38.1068 78.6668 37.1204C78.5573 35.7399 78.1475 34.5054 77.7015 33.2708C77.1072 31.8836 76.3236 30.4491 75.2759 29.4559C74.8271 29.0581 74.337 28.81 73.8521 28.607C73.1001 28.4063 72.3097 28.4987 71.5967 28.6416C70.4297 28.9281 69.4863 29.8604 68.4678 30.6904C66.9615 31.9122 64.9313 31.9979 63.1293 31.5912C61.701 31.1867 60.389 30.4393 59.1933 29.3446C58.0315 28.104 57.2113 26.3732 57.483 24.3049C57.5994 23.271 58.0556 22.2884 58.8076 21.7027C60.3185 20.4298 62.3435 21.235 63.6537 22.4756L65.4117 24.3628C66.7603 25.7973 67.8058 27.6807 69.0375 29.3641C69.2244 29.2175 69.4525 29.122 69.6032 28.8769L68.9309 27.8371C68.0339 26.3033 66.9884 25.059 65.9407 23.6244C65.4919 23.1793 65.0821 22.5838 64.6333 22.1861L63.8836 21.4891ZM69.0507 19.9975C68.7853 20.2426 68.485 20.4366 68.223 20.6306C68.1818 20.9268 68.07 21.1238 67.9926 21.3719C67.8786 21.814 67.8006 22.2561 67.7233 22.6982C67.6866 22.7974 67.7594 22.8478 67.835 22.8478C68.2884 22.6538 68.6644 22.2117 68.9699 21.7696C69.0088 21.1779 69.0839 20.6877 69.1642 20.1441C69.1642 20.0486 69.1642 19.9464 69.0507 19.9975ZM56.9493 19.6186C56.5372 19.7652 56.1612 20.1058 55.7462 20.3509L55.4797 21.184L55.5164 21.2351C55.8557 21.187 56.1566 20.796 56.4937 20.6976C56.7579 20.5539 56.947 20.2111 56.9493 19.8164V19.6186ZM63.2651 19.1193L62.6616 19.5103V19.6095C63.115 19.7591 63.4887 20.1087 63.9008 20.3057C63.9759 20.1117 64.0538 19.9621 64.0148 19.714H63.867C63.675 19.6636 63.5271 19.8606 63.3746 19.7621C63.2629 19.6125 63.4543 19.1704 63.2651 19.1193ZM65.4093 19.0365C65.1084 18.9854 64.8442 19.326 64.58 19.4245C64.4659 19.6222 64.4659 19.8666 64.5049 20.1154C64.7284 20.0643 64.9537 19.8703 65.2179 19.8222C65.293 19.5771 65.4071 19.3801 65.4454 19.135L65.4093 19.0365ZM71.0069 18.7313C70.7816 19.0238 70.5174 19.2689 70.2532 19.4629C70.0663 19.6095 69.8772 19.6569 69.7265 19.8035C69.6124 20.4937 69.5711 21.235 69.5304 21.9252C69.7557 21.9252 69.9448 21.7282 70.0956 21.5313C70.4349 21.0922 70.7381 20.602 71.0774 20.1087L71.0826 18.8772C71.0826 18.8268 71.0849 18.7313 71.0069 18.7313ZM72.923 19.3832C72.6565 19.9719 72.2054 20.4621 71.8271 20.8531L71.7056 23.0711H71.7423C72.1206 22.632 72.4966 22.2403 72.8021 21.6997C72.9161 21.3561 73.1414 21.111 73.4062 20.8185C73.7455 20.3253 73.0686 20.5192 72.9597 20.223C72.8066 19.6283 73.299 19.1892 73.338 18.6448C73.0032 18.5464 73.037 19.1381 72.923 19.3832ZM58.9486 18.4991C58.6477 18.4961 58.3445 18.642 58.0436 18.6901C57.7793 19.1322 57.6653 19.6728 57.5122 20.163L57.5099 20.3637C57.624 20.4111 57.7381 20.3126 57.8493 20.2645C58.0384 20.2171 58.3003 20.2682 58.4534 20.1216C58.6402 19.6314 58.7956 19.0878 58.9847 18.5976L58.9486 18.4991ZM59.923 18.4547C59.7751 18.5051 59.6977 18.6998 59.547 18.6517C59.4335 18.9442 59.2438 19.1893 59.3194 19.4885L60.4107 19.1509L60.4497 18.5088C60.3402 18.26 60.076 18.4066 59.923 18.4547ZM76.5225 18.2254C76.2606 18.4193 75.9551 18.6644 75.8072 19.0111C75.7292 19.3547 75.4289 19.5486 75.426 19.8449C75.8387 20.1441 76.4766 20.1982 76.8549 19.7554L76.6704 18.5208C76.6343 18.4223 76.6366 18.2254 76.5225 18.2254ZM82.6634 17.8245C82.3969 18.3651 82.0576 18.9027 81.9773 19.5899C82.0524 20.0357 82.4674 20.0899 82.7271 20.338L82.8021 20.2869L82.7339 19.3989C82.6588 18.9065 82.7362 18.3177 82.6634 17.8245ZM85.7099 17.5983L85.5935 17.6434C85.5161 18.1396 85.3654 18.5817 85.3241 19.1223C85.3241 19.2719 85.3241 19.4185 85.4749 19.3674C85.8532 19.1253 86.1174 18.5847 86.4183 18.1456C86.4573 18.0952 86.4957 17.9486 86.4206 17.8501L85.7099 17.5983ZM74.8855 17.5253C74.2814 18.111 73.753 18.8967 73.4108 19.7809C73.4085 19.8794 73.4859 19.832 73.5225 19.8794C74.0487 19.8351 74.5749 19.8381 75.0283 19.5456C75.2931 19.0554 75.5963 18.5629 75.8966 18.0246L75.8582 17.9742C75.5596 17.8246 75.2226 17.6749 74.8855 17.5253ZM69.3968 17.535L69.363 17.4366C68.9091 17.8275 68.419 17.9741 67.9295 18.2636C67.8155 18.9027 67.6601 19.5929 67.51 20.1816C67.769 20.2839 67.9221 19.9914 68.1502 19.8921L69.2828 18.5689L69.3968 17.535ZM67.6309 17.3728L67.5948 17.3254C67.4441 17.4713 67.3312 17.7164 67.2188 17.863C66.8016 18.2066 66.4256 18.5021 66.0473 18.8938C65.9332 19.3329 65.7802 19.7299 65.7028 20.1727C65.6667 20.4682 65.5887 20.7614 65.6638 21.0569C65.8513 21.0599 65.9286 20.8629 66.0398 20.7163C66.1178 20.666 66.229 20.7163 66.3407 20.6208L66.9833 19.9336C67.1363 19.2464 67.2165 18.5532 67.5536 17.9645L67.6309 17.3728ZM61.5044 17.6269C61.3175 17.7735 61.1284 17.9231 60.9782 18.0698C60.9031 18.3652 60.9008 18.76 61.012 19.0051C61.1989 19.0081 61.3519 18.8111 61.5411 18.6645C61.9171 18.4705 61.8076 17.8788 61.9967 17.4841C62.0357 16.9435 61.6184 17.481 61.5044 17.6269ZM73.7186 17.2201C73.7186 17.5637 73.2675 18.0058 73.6435 18.1555L74.2453 17.4683C74.2837 17.4201 74.3227 17.3216 74.2866 17.2231C74.0946 17.2201 73.8716 17.0735 73.7186 17.2201ZM59.5934 16.975C59.3286 17.172 59.1011 17.3659 58.9119 17.6622V17.7607H59.2123C59.363 17.6622 59.6272 17.6652 59.6272 17.3186C59.5911 17.2201 59.7046 17.0223 59.5934 16.975ZM83.8665 16.8442L83.8304 16.8923C83.7937 17.0893 83.9416 17.2389 84.0557 17.3915C84.1285 17.487 84.2792 17.4396 84.3566 17.3412C84.5824 17.1434 84.6185 17.5893 84.8054 17.6908C84.9195 17.6908 85.1063 17.7419 85.2175 17.5953C85.2565 17.4938 85.2565 17.2998 85.1447 17.2487C84.7326 17.0991 84.3205 16.8953 83.8665 16.8442ZM72.7465 16.6728C72.6347 16.6216 72.5206 16.7682 72.4455 16.8156C71.8053 17.1088 71.8002 18.0441 71.611 18.7344C71.572 19.1291 71.5313 19.5712 71.5697 19.9659H71.6425C71.9824 19.6223 72.21 19.1321 72.4748 18.69C72.7 18.1487 73.0422 17.6081 73.2726 17.0194C73.1609 16.9209 72.9694 16.9209 72.8577 16.8667L72.7465 16.6728ZM63.3912 16.4592C63.127 16.6531 62.8627 16.7486 62.6346 16.9975C62.4094 17.5381 62.3704 18.1268 62.3681 18.7185C62.3681 18.817 62.4019 18.9636 62.516 18.8681C62.892 18.7245 63.1562 18.2313 63.4984 17.9869C63.6096 17.6433 63.7626 17.2997 63.8016 16.905H63.6898C63.5396 16.8065 63.503 16.5584 63.3912 16.4592ZM82.3287 16.4915C81.8393 17.0764 81.5722 17.8629 81.1939 18.505C81.0385 19.5839 81.2592 20.5764 81.4071 21.5628C81.5555 22.1545 82.0038 22.3042 82.3436 22.6034C82.6417 22.8515 83.0177 22.9019 83.3186 23.2011C83.4665 23.2523 83.6533 23.4492 83.8064 23.3507C83.1684 22.6575 82.46 22.0621 81.8582 21.3177C81.6742 20.6275 81.4535 19.8862 81.5676 19.0967C81.7229 18.5087 81.9843 17.9163 82.2903 17.3757C82.4405 17.0832 82.7025 16.8862 82.8526 16.593C82.7047 16.4404 82.4795 16.2938 82.3287 16.4915ZM64.7061 16.663L64.2865 17.4998C64.1358 17.9419 63.9443 18.3366 63.9053 18.8268C63.9053 18.9764 63.981 19.0749 64.0561 19.0268C64.4705 18.7817 64.8855 18.5403 65.2638 18.1486L65.4896 17.3118C65.567 16.8667 65.7584 16.3735 65.8341 15.9344C65.4581 16.1765 65.0821 16.3705 64.7061 16.663ZM71.3227 15.4765C70.9828 15.7216 70.6825 16.0141 70.3816 16.3065C70.1512 16.9975 69.9254 17.6877 69.8457 18.4253C69.8457 18.5719 69.809 18.7696 69.9569 18.82C70.4836 18.626 70.8619 17.8915 71.2402 17.3028C71.2786 16.7584 71.2814 16.1667 71.3978 15.6261C71.3978 15.5276 71.3588 15.4795 71.3227 15.4765ZM76.0061 15.9059L75.6691 16.2976C75.516 16.5931 75.2128 16.6886 75.1377 16.9848C75.3246 17.1337 75.4753 17.2329 75.6639 17.2803C75.9236 17.3344 76.2996 17.5352 76.4887 17.287C76.5271 16.7457 76.4159 16.3006 76.4572 15.8104C76.4595 15.2187 76.0812 15.7563 76.0061 15.9059ZM84.9653 15.5209C84.5509 15.4194 84.0631 15.3682 83.7989 15.7592C83.7238 15.8584 83.7576 16.0081 83.8327 16.1066C84.4368 16.3066 85.0358 16.5103 85.6371 16.7584C86.0497 16.9111 86.3868 17.3058 86.8356 17.3088C86.9106 17.3088 86.9857 17.2614 86.9857 17.1118C86.9519 16.9178 86.7628 16.9141 86.6877 16.8637C86.1248 16.7614 85.7878 16.2178 85.378 15.772L84.9653 15.5209ZM67.0394 15.7434C66.8503 15.9412 66.6222 15.9374 66.4353 16.087C66.2439 16.6757 65.9796 17.2133 65.8656 17.8561C65.8627 17.9546 65.7899 18.1043 65.8994 18.1043C66.2387 18.0058 66.5035 17.5637 66.8451 17.3186C67.1094 17.0261 67.2601 16.6314 67.5604 16.3893C67.976 16.1449 67.9026 15.454 68.0167 15.0119C67.6797 15.254 67.3793 15.5494 67.0394 15.7434ZM61.9314 14.6239C61.3663 15.1615 60.8011 15.6517 60.3477 16.2404C60.1947 16.7329 60.0445 17.2231 60.0783 17.7637C60.2652 17.8178 60.4182 17.5697 60.6022 17.5253C60.9054 17.2772 61.1697 17.0351 61.4339 16.7396C61.4729 16.2494 61.6649 15.8547 61.7428 15.3622C61.7784 15.1171 61.9314 14.872 61.9314 14.6239ZM74.9314 14.7126C74.4052 15.1044 73.9542 15.5938 73.4979 16.2307C73.4618 16.2818 73.4228 16.3803 73.4979 16.4788C73.9129 16.5803 74.4007 16.584 74.8517 16.4885C75.2272 16.2938 75.4943 15.7051 75.7952 15.3111C75.5332 15.063 75.2346 14.8149 74.9314 14.7126ZM88.9918 14.2674C88.8755 14.4644 88.7998 14.6622 88.7975 14.9065C88.7614 15.2028 88.6473 15.4509 88.4582 15.5464C88.1573 15.7403 88.3441 16.2847 88.0799 16.4817C87.8151 16.7238 87.5509 17.0163 87.4368 17.3629C87.4007 17.414 87.4368 17.5095 87.5119 17.5095C87.7377 17.5636 87.9607 17.4651 88.1521 17.22C88.531 16.6313 88.8342 16.0396 89.0984 15.3524C89.1735 15.1073 89.365 14.8622 89.2509 14.5637C89.2148 14.4674 89.103 14.2704 88.9918 14.2674ZM73.1706 13.9623L72.3412 14.5983C71.8489 14.9389 71.9578 15.7788 71.8466 16.3675L71.8827 16.5171C72.1085 16.5171 72.2197 16.1735 72.4089 16.0269L73.0904 15.5367L74.3737 14.3149L74.3347 14.2675C73.9203 14.2134 73.5827 13.9171 73.1706 13.9623ZM64.2281 13.5548C63.7747 13.7999 63.3259 13.8954 62.8725 14.0894C62.4191 14.7254 62.1887 15.5149 62.038 16.3517C62.038 16.4502 62.1131 16.4976 62.1859 16.4502C62.6008 16.2081 63.0542 16.0615 63.3941 15.572C63.5832 15.2758 63.9203 15.3269 63.9977 14.9322C64.1117 14.5412 64.1868 14.0954 64.3037 13.7044C64.3037 13.6059 64.3037 13.5074 64.2281 13.5548ZM84.9705 13.5517C84.8977 13.5991 84.7836 13.6976 84.8587 13.7968L85.6835 14.2449C86.0933 14.5442 86.5444 14.9419 86.8814 15.387C87.1433 15.6351 87.3663 16.2306 87.7423 15.9374C87.7813 15.7885 87.6317 15.6389 87.5944 15.4893C86.8453 14.5472 86.1002 13.0645 84.9705 13.5517ZM76.7432 13.2466C76.593 13.2969 76.479 13.3451 76.3672 13.4909C75.9912 13.5864 75.6496 13.7841 75.3487 14.0255L75.3097 14.2232C75.4988 14.5187 75.8364 14.5698 76.0617 14.7706C76.2485 14.824 76.4354 15.0217 76.5856 14.7736C76.6635 14.3315 76.7415 13.8413 76.8183 13.3451L76.7432 13.2466ZM66.4479 12.5367C65.9212 12.9246 65.395 13.2682 64.9411 13.8058C64.7857 14.5442 64.4464 15.184 64.2573 15.9216L64.255 16.0712C64.5169 15.9727 64.745 15.8772 64.9726 15.7306C65.3853 15.2885 65.7997 14.8975 66.1057 14.3562L66.1785 14.1118C66.2565 13.5705 66.3723 13.0773 66.4479 12.5367ZM70.3208 12.5623C69.8262 13.348 69.2633 14.0826 68.6208 14.6209L68.6179 15.1134C68.4655 15.6066 68.2763 16.0457 68.1984 16.59L68.1961 17.2291L68.2328 17.3787C68.4219 17.4298 68.536 17.2802 68.6839 17.1374C68.8363 16.8893 69.0644 16.8411 69.1762 16.596C69.4015 16.3005 69.7047 16.0081 69.8938 15.7148C69.9351 14.5795 70.1294 13.5487 70.3959 12.5623C70.3959 12.4638 70.3208 12.5623 70.3208 12.5623ZM70.9949 12.5172L70.9588 12.4187C70.8447 12.5653 70.8057 12.8134 70.8057 13.0104C70.6166 13.5991 70.5002 14.2389 70.4979 14.8818C70.4979 15.0788 70.42 15.3239 70.5707 15.375C71.0241 15.2795 71.3273 14.6397 71.7033 14.2961C71.893 13.8059 72.6812 13.7141 72.4238 13.0202C72.273 12.969 72.159 13.0683 72.0478 13.1156L71.3296 13.5547C71.2545 13.6021 71.1427 13.6532 71.0677 13.5036L70.9949 12.5172ZM74.8294 12.1006C74.4923 12.4923 74.114 12.8359 73.8498 13.3254C73.9616 13.475 74.1891 13.4276 74.337 13.475C74.4511 13.5261 74.4511 13.7742 74.5989 13.7231L75.8043 12.9946L75.9551 12.8487C75.8072 12.6006 75.543 12.451 75.3194 12.3013C75.1326 12.3013 75.0219 12.1006 74.8294 12.1006ZM87.2333 12.1361C86.9347 11.9384 86.5203 11.5888 86.1827 11.8812C86.1827 11.9797 86.1827 12.079 86.2193 12.079C87.0052 12.4316 87.6792 13.2752 88.2398 14.0639C88.3148 14.1654 88.4266 14.118 88.5017 14.0195C88.6908 13.4278 88.0552 13.0774 87.8299 12.6835L87.2333 12.1361ZM68.2179 11.5631L67.6917 11.9548C67.5049 12.1007 67.2406 12.0466 67.1243 12.2947C67.0853 13.23 66.707 14.0164 66.6657 14.9548C66.6657 15.0502 66.7018 15.0502 66.7775 15.0502C67.1558 14.7097 67.4951 14.3187 67.8688 14.0736C68.2494 13.7804 68.3274 13.2879 68.3297 12.7465C68.2907 12.3999 68.4798 12.1075 68.3686 11.7601C68.3686 11.6616 68.3342 11.512 68.2179 11.5631ZM88.8898 11.6044C88.7344 12.5908 89.7117 12.3014 89.8596 13.0931C89.9713 13.3382 89.8573 13.5359 89.8939 13.7803C89.969 13.9299 90.0808 13.9299 90.231 13.9299C90.6093 13.7359 90.6866 13.1953 90.7233 12.7021C90.6528 12.3555 90.4637 11.9608 90.2407 11.7126C89.8286 11.4645 89.2658 11.1623 88.8898 11.6044ZM64.878 11.1939C64.3856 11.7315 63.8933 12.3683 63.4009 12.9089C63.3648 12.957 63.3282 13.0555 63.3648 13.1059C63.7769 12.96 64.1191 12.6705 64.5702 12.6194C64.8344 12.2788 64.9485 11.7382 64.9147 11.245L64.878 11.1939ZM87.4247 11.251C87.2356 11.248 87.0103 11.1969 86.8957 11.3465C86.8957 11.3946 86.8957 11.4458 86.9347 11.4458C87.3474 11.6428 87.7205 11.942 88.0965 12.2405C88.1716 12.0946 88.2106 11.8465 88.2106 11.6488C87.9876 11.4037 87.6477 11.4488 87.4247 11.251ZM84.3423 11.13C83.4401 11.7157 82.6078 12.5969 81.5916 12.7879C80.9176 12.8834 80.2407 12.6796 79.8669 11.9864L79.8285 12.0375C79.7145 12.53 79.9013 12.9247 80.1633 13.224C80.6849 13.9142 81.5893 13.8217 82.2296 13.5322C83.1707 13.0458 83.925 12.1165 84.6793 11.1338C84.5675 11.0826 84.4563 11.13 84.3423 11.13ZM76.4887 10.8789C76.1517 11.1752 75.7757 11.318 75.5115 11.6616L75.5453 11.7601L76.8985 12.5112L76.9713 12.4601C77.1238 12.015 77.2378 11.5248 77.2791 10.9842L76.4887 10.8789ZM69.0839 11.0255C68.8971 11.5157 68.8558 12.1074 68.8168 12.651C68.7394 12.9472 68.7756 13.2908 68.8122 13.539C69.1516 13.342 69.4548 12.9029 69.7201 12.46C69.833 12.2157 69.7219 11.9164 69.7608 11.6202C69.7608 11.1781 69.8743 10.7871 69.8772 10.3413C69.5396 10.4368 69.3482 10.8315 69.0839 11.0255ZM77.4321 9.99765C77.2819 10.1443 77.0584 10.1916 76.981 10.4397C77.0928 10.539 77.204 10.4909 77.318 10.4909C77.4682 10.4909 77.5049 10.2969 77.5438 10.0999C77.5438 10.0488 77.5072 9.95028 77.4321 9.99765ZM76.3821 9.54583C76.0812 9.49471 76.1173 9.94055 76.0038 10.1375C75.9287 10.2842 75.8898 10.5293 75.9649 10.6277C76.1517 10.5323 76.3793 10.3856 76.5661 10.1413C76.4933 9.94356 76.4572 9.74658 76.3821 9.54583ZM88.2954 9.28487C87.9584 9.08487 87.6213 9.13224 87.3181 9.27584C87.0562 9.32622 86.9032 9.56832 86.6412 9.56832C86.1901 9.71418 85.7391 9.95628 85.2857 10.1029C84.7979 10.2457 84.2717 10.1916 83.8206 10.3856C82.8021 10.8728 82.0186 9.83222 81.0024 10.0232C80.6625 10.0706 80.2865 10.2653 80.173 10.7074C80.0589 11.1014 80.134 11.5472 80.357 11.7953C80.8786 12.5367 81.822 12.1961 82.4238 11.9066C83.2893 11.4202 84.0075 10.3894 85.0575 10.4939C85.5086 10.4976 85.8875 10.3029 86.2996 10.1089C87.0533 9.66982 87.9922 9.87358 88.6668 10.3728C89.0061 10.4721 89.2268 11.2134 89.569 10.7705C89.683 10.3766 89.307 10.0803 89.1202 9.83222L88.2954 9.28487ZM76.9472 9.00823C76.8716 9.00823 76.8355 9.10672 76.8355 9.15785C76.7942 9.35484 76.8332 9.54882 76.9444 9.69844C77.0584 9.74956 77.1702 9.55258 77.2842 9.45709C77.2504 9.25935 77.0223 9.15785 76.9472 9.00823ZM67.1409 8.54655C66.6124 9.08489 66.0834 9.62547 65.6323 10.2615L65.3606 12.3299V12.578H65.3973C65.8094 12.2344 66.3384 11.9923 66.6049 11.3533L67.0245 9.1894C67.0245 8.94128 67.2165 8.7473 67.1775 8.54655H67.1409ZM68.3469 8.35632C68.1571 8.45482 67.9319 8.35632 67.8178 8.60444C67.5513 9.48863 67.2481 10.3728 67.2068 11.3563L67.2429 11.4074C67.6189 11.1623 68.0723 10.9683 68.3732 10.5262C68.4122 9.78788 68.5308 9.04954 68.681 8.41046L68.3469 8.35632ZM75.7104 8.31132C75.5235 8.1617 75.3344 8.45493 75.1475 8.40681C75.0695 8.55342 75.1836 8.60455 75.2587 8.70304C75.4822 8.99852 75.8193 9.04965 76.1586 8.95417C76.2365 8.9068 76.3844 8.85567 76.3477 8.65868C76.0858 8.65868 75.8966 8.50906 75.7104 8.31132ZM82.7752 8.30828C82.625 8.55639 82.511 8.89999 82.5448 9.24359C82.6199 9.49171 82.7339 9.78794 82.9185 9.83907C83.1466 9.98794 83.4446 9.94358 83.6699 9.79396C83.8596 9.74659 83.9731 9.45411 84.0121 9.20525C84.0121 8.90977 83.9783 8.61353 83.8642 8.36542C83.6046 7.97145 83.0761 8.06693 82.7752 8.30828ZM77.8907 7.88196C77.7015 8.12706 77.2138 8.27368 77.3255 8.71577C77.4367 8.91276 77.5875 9.01501 77.7743 9.06238C77.9635 8.81727 78.0408 8.4263 78.1136 8.07895C78.0798 7.93308 77.9658 7.88196 77.8907 7.88196ZM78.1234 6.65038C78.0093 6.74963 77.7474 6.84512 77.8563 7.09323C77.9703 7.19173 78.0821 7.34135 78.2323 7.38872C78.3802 7.29323 78.383 6.99775 78.4581 6.8C78.5355 6.50452 78.2351 6.55565 78.1234 6.65038ZM73.988 6.42479C73.9152 6.42479 73.9152 6.52328 73.9152 6.57441C74.1382 7.06764 74.3227 7.61124 74.6987 7.91049C74.8105 8.0571 74.9973 8.10823 75.1085 8.00898C75.2249 7.96162 75.2616 7.815 75.1859 7.71651C74.8128 7.22027 74.4781 6.57742 73.988 6.42479ZM84.8128 6.05563C84.7011 6.10375 84.6621 6.20225 84.6621 6.30074C84.626 6.54584 84.7372 6.69546 84.885 6.84508C84.9991 6.84508 85.1476 6.94658 85.2639 6.79997C85.3751 6.60298 85.1888 6.45337 85.1498 6.25638C85.0381 6.20525 84.9269 6.05563 84.8128 6.05563ZM81.4317 5.78498C81.2472 5.7346 81.019 5.58799 80.8327 5.7316C80.4155 5.92558 80.0028 6.46616 79.9644 7.05788C79.9982 7.45261 80.0733 7.84733 80.3352 8.09545C81.2328 8.8428 82.1012 7.86312 82.9667 7.66914C83.7553 7.47817 84.2792 8.26988 84.8782 8.71874L85.3682 8.77287C85.4043 8.82024 85.3682 8.91949 85.3682 8.91949C85.2519 9.16459 85.065 9.16459 84.8759 9.21196C84.6867 9.25933 84.4999 9.01121 84.3881 9.15783C84.3881 9.30745 84.3113 9.60293 84.4248 9.65105L85.065 9.60669C85.703 9.36459 86.3432 9.07211 86.9444 8.68415L86.9834 8.58491C86.6464 8.04131 86.1586 7.69095 85.7488 7.34434C85.4869 6.99773 85.2588 7.53832 84.9584 7.33832C84.4729 6.89247 83.7937 7.28043 83.2699 7.02931C82.7076 6.48571 82.1058 5.98873 81.4317 5.78498ZM79.4887 3.40904L79.3746 3.50453C79.2949 4.24586 79.331 5.07893 79.217 5.82026C78.904 8.18412 78.0334 10.2014 77.6092 12.5141C77.3399 14.1404 77.2596 16.0614 77.4757 17.7892C77.5852 19.0207 77.8809 20.2041 78.1744 21.3906C78.5091 22.7236 79.1058 24.0093 80.0028 24.9033C80.2647 25.2499 80.6069 24.8589 80.9416 24.9093C81.657 24.7664 82.1808 25.2627 82.8577 25.3168C83.3111 25.3198 83.7989 25.2243 84.1359 24.7311C84.2133 24.6364 84.2133 24.4386 84.1021 24.3401C83.0515 23.7424 81.9263 23.3379 81.1039 22.1988C80.733 21.2605 80.7015 20.1274 80.5536 19.0395C80.7066 18.55 80.8201 18.1072 81.046 17.7132C81.3881 17.026 81.6908 16.2907 82.1808 15.7501C82.5207 15.6035 82.7832 16.0493 83.1197 15.9501C83.3478 15.9057 83.2366 15.511 83.3862 15.314C83.5369 15.0659 83.7628 14.9231 84.027 14.8749C84.7056 14.7795 85.4164 14.9832 85.9402 15.5779C86.2411 15.9253 86.5392 16.323 86.9519 16.4719C86.988 16.4719 87.1021 16.523 87.1021 16.4245C86.3185 15.2343 85.3436 14.4389 84.2574 14.1366L84.2207 13.9907C84.1818 13.7389 84.3348 13.593 84.4827 13.399C84.8249 13.0554 85.2393 12.8645 85.688 12.963C86.5541 13.2141 87.2259 14.0095 87.8586 14.9005C87.9343 14.999 88.085 14.9516 88.1985 14.8561C88.2346 14.7569 88.1595 14.6554 88.0868 14.5569C87.4127 13.8126 86.816 12.8735 86.0279 12.5239C85.766 12.4224 85.5012 12.5682 85.2782 12.3682C85.2393 12.3201 85.2031 12.1705 85.2782 12.1231C85.6175 11.7795 85.9208 11.2893 86.2967 11.048C86.8619 10.6562 87.7257 10.7104 88.2518 11.06C88.3997 11.1081 88.5499 11.4547 88.7006 11.2577C88.739 11.1592 88.739 11.0126 88.7006 10.9141C88.3269 10.5164 87.8397 10.3668 87.3886 10.3126C86.6366 10.4051 86.0348 10.8953 85.3556 11.1397C84.677 12.1201 83.9227 12.9028 83.1684 13.6374C82.3751 14.2734 81.3985 14.5599 80.459 14.2577C79.8962 13.9584 79.3362 13.2652 79.2634 12.4254C79.2657 11.9833 79.3431 11.5412 79.6079 11.1968C79.6463 10.9013 79.6463 10.5577 79.7626 10.2615C80.0274 9.47281 80.7428 9.38033 81.3807 9.43446C81.6059 9.43446 81.7928 9.68258 82.0186 9.58709L82.0232 8.89688L81.9842 8.84576C81.3446 9.18936 80.4808 9.13222 79.9569 8.53749C79.656 8.28938 79.4697 7.89465 79.4354 7.40143C79.3242 7.0067 79.4377 6.5616 79.5907 6.17063C79.93 5.57816 80.3473 5.0887 80.9101 5.09171C81.9991 5.10148 82.8211 5.89319 83.7209 6.5428C83.874 6.59318 84.0218 6.69242 84.172 6.5428L84.2523 5.8556L84.1772 5.70899C83.651 5.26013 83.0904 4.86239 82.5276 4.51278C81.5142 4.06091 80.5777 3.56167 79.4887 3.40904ZM9.06515 3.16998C7.86665 1.97677 6.17867 1.47453 4.67238 2.10459C3.09101 2.78502 1.80539 4.84663 1.64548 7.06086C1.64548 7.16312 1.53371 7.21048 1.6065 7.30898C1.49015 8.19392 1.52683 9.03375 1.52167 9.9217C1.66726 11.4006 1.96072 12.7337 2.37054 14.0194C3.33632 17.0802 5.39285 19.4598 7.41327 21.4959C9.13507 22.9883 10.8597 24.4289 12.6956 25.4762C13.9692 26.3221 15.3201 26.9236 16.7101 27.3273C17.9493 27.6807 19.1907 27.0988 20.3164 27.7476C21.4783 28.298 22.0726 29.8791 22.5186 31.2122C23.0401 32.746 23.2585 34.4226 23.513 36.0993C23.7727 37.6805 24.2914 39.112 24.9998 40.4488C25.3735 41.2405 25.9335 41.8834 26.419 42.5804C27.2042 43.8653 28.366 44.6608 28.8853 46.1434C29.145 46.8848 29.2906 48.0712 28.9117 48.8065C28.8366 49.0546 28.6475 49.1975 28.6091 49.4456L29.3192 50.3847L30.0666 51.6253C30.5515 52.6621 30.8089 53.7981 30.8788 55.0297C30.9155 55.7229 30.9126 56.4612 30.947 57.1514C31.0582 57.2499 31.1339 57.1003 31.2474 57.056C31.5483 56.7635 31.8853 57.059 32.1478 57.2597C32.4092 57.8003 32.858 58.2973 32.8557 59.0379C32.8534 59.6777 32.5135 60.1198 32.1352 60.5115L32.0968 60.61C32.7685 61.6498 33.3285 62.7859 34.0003 63.7754C34.7477 65.261 35.5306 66.7437 36.2758 68.2294C36.9475 69.3685 37.9104 70.473 38.8464 71.0233H43.1469L43.2558 70.794C43.3699 70.4985 43.2581 70.1512 43.2581 69.8075C43.222 69.5594 43.0741 69.3113 43.0374 69.0158C43.1515 68.7707 43.4157 68.6722 43.5665 68.4783C43.5298 67.8354 42.7778 67.9783 42.7812 67.2881C42.7079 66.7948 42.4465 66.3497 42.1473 66.0535C41.9604 65.8535 41.7352 65.8497 41.6234 65.6046C41.8498 65.261 42.1473 65.6558 42.4115 65.7099C42.8242 66.1046 43.3091 66.6009 43.2317 67.3422C43.4937 67.6377 43.8313 67.6888 44.0926 68.0354C44.2795 68.0392 44.3574 67.6956 44.4348 67.4467C44.248 67.1001 43.9471 66.9986 43.6461 66.9505C43.3842 66.9475 43.3481 66.5497 43.3114 66.3084C43.0134 65.7129 42.5256 65.3122 42.1135 64.9174C41.7008 64.6189 41.0634 64.7618 40.6485 64.9588C40.4593 65.1498 40.3063 65.643 40.0059 65.5926C39.4844 64.752 38.9605 63.8618 38.553 62.9709C38.0652 62.0799 37.8445 61.0423 37.4737 60.104C37.1028 58.8695 37.0707 57.4379 36.775 56.156C36.7022 55.7101 36.552 55.265 36.2534 54.9688L34.5706 53.1809C33.9326 52.4876 33.4111 51.5967 33.1514 50.6102C32.9657 50.114 33.0815 49.4742 33.0471 48.8825C33.1228 48.3892 33.1612 47.9471 33.3532 47.5051C33.7699 46.5216 34.5969 46.0352 35.463 46.0923C35.9141 46.0449 36.2511 46.3915 36.6248 46.5923C37.2261 46.9893 37.6726 47.6351 38.0463 48.3772C38.1598 47.9825 38.087 47.5366 38.0509 47.1427C37.8279 46.2036 37.6072 45.3164 37.4978 44.3299C37.4662 43.2961 37.7305 42.3097 38.2618 41.5744C38.5627 41.33 38.8269 41.0368 39.164 41.0368C39.4649 41.0909 39.8437 41.0435 39.9526 41.4375C39.8019 41.7811 39.3508 41.4826 39.0866 41.6766C38.3346 42.1668 38.2182 43.2991 38.2498 44.2856C38.2859 44.7307 38.3225 45.2209 38.6596 45.3735C39.8965 46.169 41.2474 46.6209 42.6379 46.9772C43.5372 47.1329 44.4761 47.1389 45.3783 47.3396C46.5057 47.499 47.5947 47.702 48.7227 47.7599C49.7366 47.7659 50.7139 47.6735 51.6911 47.5336C52.8942 47.3427 53.9884 46.7577 55.1525 46.4231C55.9429 46.2803 56.6949 46.1367 57.5197 46.0961C58.4241 46.0509 59.2879 46.1562 60.1901 46.0607C60.7936 45.9682 61.3932 46.1209 62.0305 46.0735L62.0718 45.978L61.8076 45.975C61.6964 46.0254 61.5823 45.8765 61.4682 45.9239L60.9805 45.8728L60.6435 45.7201L59.9281 45.7645C59.4043 45.7104 58.8363 45.66 58.3519 45.4081C58.2012 45.3096 58.0143 45.4562 57.8986 45.5547C56.9981 45.8442 56.0209 45.5901 55.2711 44.9946L54.8951 45.0901C54.369 45.5773 53.8015 46.0667 53.1613 46.1622C52.5595 46.1081 51.8854 46.1532 51.3954 45.7555C50.4955 45.8983 49.4793 45.9908 48.6912 45.3923C48.5066 45.2908 48.3931 44.8961 48.1335 45.0427C47.0416 44.9374 46.1807 44.0946 45.3949 43.2006C45.1329 43.051 44.7569 43.0984 44.5701 42.8029C44.3838 42.7007 44.6091 42.5548 44.534 42.4052C43.6708 42.0074 42.8093 41.015 42.3634 39.9263C42.3267 39.8278 42.4018 39.6819 42.3296 39.5797C41.8418 39.0834 41.393 38.4887 41.095 37.7474C41.2451 37.4068 41.6211 37.6038 41.8464 37.4098C41.8103 37.1143 41.6234 36.8662 41.5122 36.6181C41.4755 36.4715 41.3254 36.3188 41.4755 36.1722C41.9656 36.1279 42.4167 36.179 42.9039 36.182C42.9795 36.2331 43.0179 36.0865 43.0569 35.988C43.093 35.9399 43.171 35.7429 43.2827 35.8414C43.8817 35.994 44.5219 36.0925 45.0458 36.494C45.3078 36.7421 45.533 37.0887 45.7927 37.1903C46.508 37.2444 47.1075 37.6421 47.7838 37.894C48.3828 38.1421 48.9095 38.6413 49.5085 38.988C49.6592 39.1406 49.8822 39.0902 50.0324 39.2902C50.7093 39.1473 51.4997 39.2015 52.1353 39.5007C52.7028 39.306 53.1905 39.0646 53.6439 38.6729C54.1701 38.0842 54.7742 37.6963 55.3778 37.2542C55.5646 37.0602 55.5308 36.6655 55.795 36.4685C56.3241 35.9309 56.9643 35.5903 57.5266 35.1986L58.0189 34.7091C58.2086 34.5151 58.3949 34.3174 58.548 34.0723C58.3978 33.8723 58.1742 33.6272 57.9851 33.4302V33.3309C58.3273 32.5452 58.9675 32.3001 59.5327 31.9092L59.4576 31.7626C58.56 31.0663 57.6601 30.0731 57.1024 28.8356C56.5808 27.601 56.1733 26.3191 56.2536 24.789C56.3309 24.3462 56.2948 23.8537 56.484 23.459C56.5229 23.265 56.6364 23.0199 56.5614 22.8673C56.3361 22.8192 56.0329 23.1124 55.9234 22.7688C55.9601 22.4214 56.1131 22.0778 56.1177 21.6327C55.7027 21.8778 55.2494 22.0718 54.8373 22.1673C54.6865 22.2147 54.4613 22.3139 54.3862 22.1643C54.3885 21.7696 54.5782 21.4733 54.7278 21.1778C54.7278 21.1297 54.7306 20.9839 54.655 20.9839C54.1626 21.2252 53.5975 21.4192 53.0736 21.5628C51.306 22.1447 49.387 22.4252 47.4686 22.6094L42.885 22.6282C42.8093 22.6763 42.7732 22.5297 42.7342 22.6282L41.0801 22.568C39.164 22.6034 37.2845 22.2913 35.4825 21.935L34.7328 21.7853C33.9447 21.7282 33.2294 21.5756 32.4797 21.4229C30.9762 21.1681 29.4361 20.9583 27.8571 20.9966L25.64 21.1778L24.4759 21.3688C22.7444 21.75 21.2014 22.6282 19.6567 23.7003C18.6766 24.086 17.6243 24.3785 16.4963 24.1718C15.9701 24.0695 15.4823 23.968 14.9952 23.7169C13.2315 23.1154 11.5435 22.2147 9.9335 21.1207C9.03362 20.5222 8.17215 19.7779 7.31125 19.0298C6.33858 17.9899 5.36362 17.0479 4.50502 15.7562C3.49624 14.175 2.82678 12.4442 2.53561 10.4209C2.23985 8.98638 2.32239 7.26161 2.70297 5.88721C3.31168 4.26469 4.48094 2.94141 5.87088 2.85194C7.11236 2.85795 8.19966 3.46245 8.98261 4.69701C9.39472 5.43834 9.5403 6.3293 9.57412 7.26462C9.57183 8.05407 9.3053 8.84278 9.52827 9.58412C9.9014 9.97884 10.1633 10.4751 10.4258 10.9683C10.4981 11.1653 10.5348 11.4615 10.7239 11.5119C11.0248 11.4164 11.0999 10.9232 11.214 10.5803C11.3303 9.9405 11.6719 9.15179 11.3349 8.46083C11.0368 7.91724 10.6631 7.37289 10.5542 6.73004C10.3697 5.69323 10.0349 4.7549 9.51336 3.86394L9.06515 3.16998ZM78.5137 2.81065C77.5777 1.86932 76.1104 2.34901 75.022 2.53697C74.1891 2.77907 73.401 3.11891 72.6467 3.60612C71.0293 4.63016 69.4066 5.75344 68.0482 7.51957V7.56694C68.4603 7.61806 68.8363 7.52258 69.2123 7.3286C69.249 7.28048 69.4015 7.23311 69.4404 7.3316C69.4743 8.06993 69.2077 8.61052 69.0937 9.25337C69.0937 9.45036 68.9796 9.64434 69.0914 9.79396L70.4108 8.91277C70.522 8.86841 70.6361 8.6203 70.7862 8.81729C70.8619 8.96991 70.859 9.11653 70.7839 9.26314C70.5948 9.7526 70.5558 10.297 70.4395 10.8375C70.4011 11.0827 70.365 11.3308 70.4372 11.5285L71.1531 11.0383C71.4173 10.9428 71.5698 10.5007 71.8294 10.6022C71.9796 10.8503 71.8271 11.1436 71.9022 11.439L71.7469 12.5713C72.198 12.3804 72.5762 12.0375 72.9522 11.6428C73.0302 11.5947 73.1414 11.6428 73.1781 11.7443C73.0663 12.1871 72.95 12.6796 73.0227 13.1728L73.0617 13.3194C73.287 13.0743 73.5128 12.7307 73.777 12.4856C74.3422 11.948 74.7956 11.312 75.402 10.7744L75.516 10.1346C75.5527 9.98493 75.6301 9.73982 75.5934 9.53983C74.6551 9.39021 73.9444 8.14963 73.5736 7.16319C73.4618 6.91507 73.3867 6.61884 73.1632 6.46922C73.1632 6.42185 73.1632 6.37072 73.2021 6.27223L73.7673 5.78201C74.5583 4.85346 75.5768 4.07077 76.7799 4.47452C77.192 4.67226 77.7136 4.97451 77.8637 5.6136C77.8248 5.76021 77.7113 5.81058 77.5995 5.76021C76.9255 5.11436 75.7975 5.20609 75.1572 5.74442C75.0455 5.84291 74.8563 5.9384 74.8563 6.08727C75.1933 6.43463 75.453 6.92785 75.7149 7.37596C75.9379 7.96768 76.4234 8.16843 76.9518 8.07294L77.4419 7.58273L77.3691 6.94364C77.5244 6.30381 78.0506 6.00832 78.5017 5.86472C78.7298 5.07902 78.8851 4.19107 78.7756 3.30387L78.5137 2.81065ZM91.8342 73.1579H4.10262V71.0234H6.6538C6.76786 70.9249 6.76557 70.5903 6.72946 70.4918C6.24398 69.5024 6.13737 68.2678 6.17864 67.037C6.1838 66.2476 6.29729 65.51 6.37524 64.7717L6.56897 63.292L6.84352 60.8326C6.88421 59.9928 6.96216 59.2071 7.00343 58.3673C6.97191 57.0372 7.05158 55.7546 7.09285 54.4215C7.17768 52.6501 8.04603 51.275 8.98946 50.0472C9.59358 49.4615 10.2728 49.0705 10.9491 48.7329C11.7401 48.4404 12.4193 47.8547 13.0618 47.2187C14.0053 45.7939 14.1629 43.8751 14.4346 42.0519L14.5973 39.0452L14.677 37.8617C14.7596 35.9437 15.1791 34.1678 15.9386 32.5453C16.2028 32.0077 16.6178 31.5175 16.9938 31.0754C16.9984 30.5348 16.9256 29.9431 17.1147 29.4499C17.1537 29.2048 17.4185 29.0108 17.2677 28.7627C16.7049 28.5078 16.067 28.4093 15.5041 28.1582C13.9279 27.5567 12.3901 26.8537 10.9273 25.8583C9.13103 24.5154 7.36969 23.0741 5.68629 21.3847C4.26254 19.9464 2.95514 18.0629 2.02374 16.1352C1.39096 14.6525 0.869379 13.0713 0.689977 11.3465C0.43549 9.52028 0.554136 7.59551 0.861928 5.87449C1.09005 4.9903 1.43223 4.15348 1.8495 3.36778L2.60379 2.28886C3.05716 1.84676 3.51054 1.30918 4.07569 1.1152C4.48837 0.917462 4.86379 0.676114 5.27877 0.679121C5.72985 0.631002 6.21991 0.539275 6.63202 0.688896C7.11979 0.742278 7.57087 0.943025 8.02195 1.14001C8.47075 1.24227 8.84674 1.64301 9.25885 1.88812C10.3066 3.0302 11.1262 4.51588 11.5338 6.14516C11.7183 7.13086 12.4675 7.72934 12.6497 8.66766C12.7976 9.25938 12.6085 9.80072 12.4554 10.3413C12.0387 11.3247 11.7716 12.4059 11.1652 13.2397C11.015 13.3894 10.8643 13.4879 10.7141 13.3864C10.0401 12.9856 9.81941 11.948 9.40902 11.2097C8.81293 10.3157 8.43922 9.23081 8.51946 8.00001C8.59684 7.45566 8.67422 6.81658 8.60143 6.27223C8.45355 5.58202 8.04373 4.88805 7.51756 4.53843C7.10775 4.2422 6.58158 4.13769 6.05484 4.08656C5.19165 4.17904 4.39838 4.71662 3.90603 5.69931C3.52774 6.482 3.44749 7.42107 3.37011 8.40677C3.28758 10.3766 3.80687 12.0052 4.47576 13.5901C5.10911 14.9232 6.00898 16.0141 6.90599 17.0577C7.43044 17.5028 7.91534 18.0502 8.44151 18.4479C9.60103 19.5396 10.8769 20.3381 12.1499 21.0381C13.3507 21.7343 14.6627 22.1388 15.9386 22.641C16.729 22.8929 17.7039 22.9944 18.4949 22.7079C19.9261 22.0749 21.2816 21.1493 22.7128 20.5163L24.4805 19.9373C26.0235 19.6509 27.6776 19.4659 29.3289 19.6253L30.4569 19.7809C31.6577 19.9877 32.8992 20.1441 34.139 20.2997C35.0383 20.5035 35.9381 20.608 36.8403 20.8117C38.5312 21.2162 40.2604 21.0343 42.0263 21.1426C42.9646 21.299 43.9035 21.1553 44.8446 21.1651L48.9044 20.9929C51.0096 20.8117 53.0398 20.2809 54.8854 19.2592C55.5623 18.9186 56.2025 18.381 56.8817 17.8945C57.8229 17.0096 58.7686 16.2818 59.6759 15.2502C60.503 14.3187 61.3737 13.4367 62.203 12.5555C63.9374 10.5962 65.4896 8.4391 67.2991 6.53012C68.2809 5.54969 69.1882 4.42039 70.2818 3.73995L71.8999 2.61667C72.8044 2.07909 73.7816 1.64301 74.7617 1.30542C76.2268 1.01596 78.0334 0.736263 79.2319 2.02496C79.3798 2.37156 79.7191 2.27608 79.981 2.3272C80.5806 2.42871 81.1451 2.68058 81.7057 2.92869C82.758 3.33244 83.7697 3.97829 84.6672 4.82113C85.3436 4.87527 85.9426 5.61961 86.1661 6.40907C86.5782 6.66019 86.9519 7.01056 87.3279 7.35416L87.8489 8.00001C88.4507 8.29925 89.0887 8.64887 89.6103 9.24359L90.2092 10.1827C90.2826 10.6789 90.6551 10.93 90.881 11.2766C91.0288 11.818 91.4025 12.2157 91.3275 12.8548C91.2472 13.4946 91.0214 14.1337 90.5657 14.5728L89.9639 15.1615C89.5443 16.1953 89.091 17.2261 88.4095 18.1111C88.1475 18.5501 87.6575 18.5464 87.2815 18.5945C87.0562 18.496 86.7943 18.5404 86.6051 18.69C86.1901 19.3261 85.6978 20.0133 85.0209 20.0073L84.9825 19.9591C84.912 19.4155 84.9143 18.7757 85.1034 18.2825C84.9171 17.987 84.6523 18.381 84.3881 18.378C84.2379 18.2795 84.3153 17.9802 84.0901 17.9802C84.0144 17.9802 83.9009 18.0787 83.8642 17.9802C83.8281 17.5855 83.4882 17.484 83.3042 17.2833H83.2653L83.2217 18.7118C83.2194 19.5524 83.2893 20.3922 83.326 21.229C83.326 21.2764 83.326 21.3275 83.2871 21.3749C82.95 21.229 82.613 20.9268 82.3121 20.8275V20.8787C82.5351 21.423 82.9477 21.6681 83.2848 22.0651C83.396 21.9696 83.4739 21.7253 83.5123 21.5275C83.6264 21.0824 83.6292 20.5411 83.7817 20.099C84.0413 20.2486 84.2672 20.5952 84.4901 20.8914C84.6403 21.3847 84.7905 21.8809 84.8249 22.4726C84.8226 22.8162 84.5967 23.2079 84.8197 23.5545C84.9676 23.8027 85.1183 24.1019 85.0404 24.4455C84.8902 25.1357 84.6988 25.9214 84.1308 26.2139C83.5656 26.6056 82.8165 26.4018 82.2152 26.2492C81.8025 26.0996 81.3538 25.8004 80.9394 26.0455C80.7863 26.0936 80.6751 26.1921 80.6361 26.3379C80.5995 26.583 80.7112 26.7808 80.7473 26.9778C81.3394 28.9537 81.7085 30.9799 82.0381 33.0987C82.108 33.84 82.1058 34.6768 82.0645 35.4663C82.0255 36.2076 81.8341 36.8467 81.7567 37.5851C80.9204 40.2895 79.9713 42.8985 78.4942 45.1541C78.3418 45.4977 77.9658 45.7428 78.0781 46.1367C78.4484 47.2728 78.708 48.4089 79.0038 49.4938L79.5569 51.8637C79.9254 53.69 80.2189 55.5162 80.6264 57.2951C81.1818 59.468 81.81 61.5928 82.9695 63.4228C83.3065 63.9694 83.8304 64.1702 84.3205 63.9732C85.186 63.7822 86.0107 64.0363 86.6464 64.7807C87.2815 65.328 87.6185 66.0694 88.2152 66.6648C88.6301 66.8618 88.8921 67.3581 89.115 67.8513C89.8647 68.2994 90.1605 69.3881 90.1192 70.4249C90.0808 70.5715 90.0052 70.7685 90.078 70.9663L90.1192 71.0234H91.8342V73.1579Z" fill="white"/>
<mask id="mask0_1_1007" style="mask-type:luminance" maskUnits="userSpaceOnUse" x="75" y="77" width="14" height="15">
<path fill-rule="evenodd" clip-rule="evenodd" d="M75.0506 77.5786H88.5992V91.9836H75.0506V77.5786Z" fill="white"/>
</mask>
<g mask="url(#mask0_1_1007)">
<path fill-rule="evenodd" clip-rule="evenodd" d="M81.7228 79.9964C80.7427 80.0408 79.8406 80.2318 79.0502 80.8175C77.8809 81.6956 77.0469 83.27 77.1558 85.0933C77.2601 86.9669 78.4948 88.5037 79.7706 89.1526C80.8184 89.506 82.0215 89.7608 83.1489 89.4233C83.753 89.2293 84.391 89.0353 84.9194 88.5481C85.8967 87.7654 86.5816 86.4391 86.5495 84.9121C86.5518 83.776 86.295 82.7422 85.6594 81.8986C85.3613 81.6001 85.0994 81.1543 84.7618 80.9543C83.8642 80.2573 82.7729 80.1047 81.7228 79.9964ZM82.7832 77.6388C84.2476 77.8967 85.6376 78.5455 86.7948 79.8342C87.3938 80.5785 87.8397 81.3236 88.2134 82.2108C88.5842 83.3499 88.7304 84.7785 88.4604 86.0574C88.308 86.8461 88.1188 87.5844 87.7772 88.2716C86.9811 89.8911 85.6617 90.9189 84.3818 91.5046C83.5151 91.7903 82.613 92.0324 81.6741 91.9753C79.1551 92.1091 76.8309 90.5114 75.6037 87.6957C75.3785 87.1994 75.269 86.7062 75.1572 86.1656L75.0506 84.9311C75.0603 82.4176 76.2319 80.159 77.8906 78.8387C78.9481 78.056 80.1145 77.62 81.3933 77.5786L82.7832 77.6388Z" fill="white"/>
</g>
<path fill-rule="evenodd" clip-rule="evenodd" d="M7.79797 77.5701V91.8397H17.3275V89.4848H9.83273V77.5701H7.79797Z" fill="white"/>
<path fill-rule="evenodd" clip-rule="evenodd" d="M40.491 77.5898V91.8368H52.3366V89.4857H42.4483V85.9798H50.3306V83.5648H42.4483V80.0874L52.2931 80.0807V77.5837L40.491 77.5898Z" fill="white"/>
</svg>
